<svg id="svg" version="1.1" xmlns="http://www.w3.org/2000/svg" xmlns:xlink="http://www.w3.org/1999/xlink" width="400" height="239.13043478260872" viewBox="0, 0, 400,239.13043478260872"><g id="svgg"><path id="path0" d="M260.128 82.955 C 260.206 83.448,260.812 87.889,261.475 92.823 C 262.137 97.757,262.735 102.036,262.803 102.333 L 262.928 102.871 288.402 102.871 C 302.412 102.871,313.876 102.955,313.876 103.058 C 313.876 103.162,313.418 103.424,312.859 103.642 C 312.300 103.859,309.581 105.023,306.818 106.228 C 299.408 109.460,298.205 109.983,295.574 111.117 C 294.258 111.684,291.029 113.087,288.397 114.235 C 285.766 115.383,282.913 116.621,282.057 116.986 C 281.202 117.351,279.103 118.263,277.392 119.012 C 275.682 119.761,272.452 121.163,270.215 122.126 C 264.232 124.704,263.876 124.876,263.873 125.191 C 263.872 125.349,264.253 128.062,264.719 131.220 C 265.186 134.378,265.808 138.684,266.103 140.789 L 266.639 144.617 303.662 144.678 C 335.691 144.730,340.703 144.785,340.818 145.084 C 340.891 145.274,340.730 147.508,340.459 150.048 C 340.189 152.587,339.690 157.572,339.351 161.124 C 338.425 170.824,338.146 173.196,337.902 173.416 C 337.660 173.633,335.908 173.981,322.064 176.566 L 312.907 178.276 301.729 175.465 C 295.581 173.918,290.502 172.613,290.444 172.564 C 290.351 172.486,289.608 166.561,288.732 158.911 L 288.451 156.459 278.077 156.459 L 267.703 156.459 267.702 156.998 C 267.701 157.294,268.083 161.842,268.550 167.105 C 269.017 172.368,269.637 179.577,269.927 183.124 L 270.455 189.573 273.565 190.455 C 275.275 190.940,278.451 191.826,280.622 192.423 C 282.793 193.021,287.153 194.231,290.311 195.112 C 293.469 195.994,297.344 197.063,298.923 197.489 C 300.502 197.915,304.001 198.882,306.699 199.638 C 309.396 200.393,312.429 201.226,313.439 201.488 L 315.275 201.964 319.300 200.724 C 321.514 200.041,324.456 199.124,325.837 198.686 C 327.219 198.247,331.525 196.902,335.407 195.696 C 339.288 194.490,343.594 193.144,344.976 192.704 C 346.358 192.265,349.480 191.299,351.914 190.558 C 354.348 189.817,356.717 189.077,357.177 188.914 L 358.014 188.618 358.193 186.235 C 358.291 184.924,358.799 179.007,359.322 173.086 C 360.570 158.958,362.096 141.427,362.560 135.885 C 362.764 133.451,363.089 129.856,363.283 127.897 C 363.478 125.938,363.636 124.081,363.636 123.770 L 363.636 123.206 340.880 123.206 C 320.679 123.206,318.157 123.165,318.421 122.847 C 318.585 122.650,318.821 122.488,318.946 122.488 C 319.128 122.488,362.308 104.868,366.567 103.056 L 367.703 102.573 367.703 92.315 L 367.703 82.057 313.845 82.057 L 259.987 82.057 260.128 82.955 M32.297 82.803 C 32.297 82.949,32.512 85.398,32.775 88.245 C 33.345 94.405,35.179 115.023,36.726 132.656 C 37.337 139.629,37.885 145.577,37.942 145.872 L 38.047 146.410 74.705 146.471 L 111.364 146.531 111.285 147.967 C 111.242 148.756,111.054 151.017,110.868 152.990 C 110.682 154.964,110.259 159.701,109.927 163.517 C 109.596 167.333,109.245 171.262,109.148 172.249 L 108.971 174.043 107.656 174.449 C 106.932 174.672,104.456 175.352,102.153 175.959 C 99.850 176.567,96.244 177.534,94.139 178.108 C 92.033 178.682,89.154 179.466,87.739 179.851 L 85.167 180.550 82.596 179.852 C 81.181 179.468,78.248 178.674,76.077 178.088 C 65.408 175.209,61.662 174.182,61.595 174.115 C 61.524 174.044,60.048 158.236,60.048 157.539 C 60.048 157.221,58.759 157.177,49.522 157.177 C 43.278 157.177,38.995 157.267,38.995 157.397 C 38.995 157.880,40.217 171.878,40.552 175.239 C 40.749 177.213,41.128 181.405,41.394 184.555 C 41.660 187.705,41.921 190.326,41.975 190.380 C 42.028 190.433,43.775 190.938,45.857 191.501 C 47.938 192.064,51.848 193.140,54.545 193.891 C 57.243 194.643,60.365 195.510,61.483 195.818 C 62.602 196.126,65.508 196.937,67.943 197.619 C 72.503 198.899,76.442 199.989,82.059 201.529 L 85.290 202.415 88.877 201.439 C 90.850 200.902,93.272 200.245,94.258 199.978 C 95.245 199.711,97.344 199.129,98.923 198.683 C 102.508 197.671,115.166 194.159,121.053 192.543 C 129.099 190.334,128.708 190.470,128.712 189.882 C 128.715 189.592,128.824 188.331,128.956 187.081 C 129.088 185.831,129.621 179.964,130.140 174.043 C 130.660 168.122,131.248 161.555,131.447 159.450 C 131.645 157.344,132.077 152.500,132.406 148.684 C 132.735 144.868,133.113 140.616,133.247 139.234 C 133.521 136.420,134.450 125.842,134.450 125.548 C 134.450 125.444,117.073 125.359,95.834 125.359 L 57.219 125.359 57.081 124.462 C 57.005 123.968,56.723 120.927,56.454 117.703 C 56.185 114.480,55.807 110.120,55.615 108.014 C 55.422 105.909,55.265 104.052,55.264 103.888 C 55.263 103.649,63.529 103.589,95.799 103.589 L 136.334 103.589 136.459 102.572 C 136.527 102.013,136.642 100.909,136.715 100.120 C 136.787 99.330,137.168 95.185,137.561 90.909 C 137.953 86.633,138.275 82.999,138.276 82.835 C 138.277 82.597,127.521 82.536,85.287 82.536 C 46.479 82.536,32.297 82.607,32.297 82.803 " stroke="none" fill="#f7f7f7" fill-rule="evenodd"></path><path id="path1" d="M0.554 49.103 C 0.912 55.068,1.727 64.271,1.930 64.650 C 2.053 64.878,2.153 65.578,2.154 66.205 C 2.154 66.832,2.472 71.112,2.860 75.718 C 3.248 80.323,3.589 84.710,3.618 85.467 C 3.647 86.223,3.733 86.842,3.809 86.842 C 3.885 86.842,3.969 87.407,3.994 88.098 C 4.020 88.789,4.255 91.615,4.516 94.378 C 4.777 97.141,5.166 101.878,5.380 104.904 C 5.594 107.931,5.864 110.622,5.981 110.885 C 6.098 111.148,6.375 113.840,6.596 116.866 C 6.963 121.878,7.186 124.450,8.248 135.885 C 8.438 137.925,8.874 143.104,9.217 147.396 C 9.852 155.326,9.878 155.588,10.104 156.220 C 10.174 156.417,10.406 159.001,10.618 161.962 C 11.397 172.821,11.822 177.633,12.009 177.711 C 12.115 177.755,12.201 178.297,12.201 178.915 C 12.201 179.534,12.471 183.212,12.800 187.089 C 13.130 190.966,13.468 195.323,13.552 196.770 C 13.635 198.218,13.770 199.456,13.850 199.522 C 13.931 199.587,14.022 199.910,14.053 200.239 C 14.239 202.238,15.311 215.839,15.441 217.853 L 15.598 220.275 17.428 220.703 C 18.435 220.939,19.581 221.264,19.976 221.426 C 20.371 221.588,21.878 222.011,23.325 222.368 C 24.773 222.724,26.280 223.154,26.675 223.322 C 27.069 223.490,28.900 223.985,30.742 224.422 C 32.584 224.858,34.145 225.290,34.211 225.381 C 34.276 225.473,35.030 225.713,35.885 225.917 C 36.740 226.120,38.194 226.465,39.115 226.685 C 40.036 226.905,40.843 227.163,40.909 227.259 C 40.975 227.355,42.480 227.781,44.253 228.206 C 46.027 228.631,47.588 229.067,47.722 229.174 C 47.856 229.282,49.581 229.763,51.555 230.245 C 53.529 230.726,55.535 231.272,56.013 231.456 C 56.997 231.836,61.763 233.014,62.317 233.014 C 62.516 233.014,62.679 233.108,62.679 233.222 C 62.679 233.336,64.160 233.783,65.969 234.215 C 67.778 234.647,69.374 235.089,69.515 235.198 C 69.773 235.396,70.799 235.673,74.759 236.612 C 75.943 236.893,76.966 237.201,77.032 237.297 C 77.213 237.557,84.286 239.234,85.202 239.234 C 86.067 239.234,93.108 237.577,93.301 237.328 C 93.367 237.243,95.090 236.760,97.129 236.254 C 99.169 235.748,100.999 235.245,101.196 235.136 C 101.394 235.028,102.877 234.613,104.492 234.214 C 106.108 233.815,107.615 233.386,107.841 233.261 C 108.068 233.136,109.707 232.687,111.483 232.262 C 113.260 231.838,114.767 231.421,114.833 231.336 C 114.898 231.252,116.675 230.772,118.780 230.270 C 120.885 229.769,122.725 229.267,122.868 229.156 C 123.010 229.045,124.516 228.622,126.213 228.216 C 127.910 227.811,129.354 227.402,129.422 227.308 C 129.490 227.214,130.084 227.009,130.742 226.852 C 131.400 226.696,132.907 226.337,134.091 226.055 C 135.275 225.773,136.359 225.450,136.500 225.338 C 136.641 225.225,137.502 224.966,138.414 224.763 C 140.955 224.196,143.815 223.424,144.237 223.192 C 144.446 223.077,145.936 222.654,147.547 222.252 C 149.159 221.850,150.720 221.427,151.016 221.311 C 151.312 221.196,152.255 220.910,153.110 220.677 C 153.965 220.445,154.734 220.192,154.818 220.115 C 154.902 220.039,155.150 217.392,155.370 214.234 C 155.590 211.077,155.863 208.278,155.977 208.014 C 156.090 207.751,156.356 205.221,156.566 202.392 C 156.777 199.563,157.119 194.988,157.326 192.225 C 157.533 189.462,157.794 186.986,157.906 186.722 C 158.017 186.459,158.278 183.929,158.485 181.100 C 159.321 169.691,159.895 163.032,160.052 162.919 C 160.143 162.853,160.287 161.669,160.373 160.287 C 160.735 154.465,161.756 142.134,161.969 141.029 C 162.176 139.949,163.367 125.646,163.771 119.378 C 163.860 117.996,164.006 116.812,164.096 116.746 C 164.239 116.641,164.679 111.514,165.594 99.282 C 165.746 97.243,165.943 95.520,166.031 95.455 C 166.118 95.389,166.381 92.805,166.615 89.713 C 167.150 82.638,167.863 74.536,168.044 73.461 C 168.169 72.722,169.421 57.332,169.783 52.093 C 169.862 50.942,170.024 50.000,170.142 50.000 C 170.260 50.000,170.325 49.273,170.286 48.385 L 170.215 46.770 85.311 46.710 L 0.406 46.650 0.554 49.103 M138.517 82.750 C 138.517 82.999,138.363 84.694,138.176 86.518 C 137.988 88.341,137.597 92.739,137.306 96.292 C 137.015 99.844,136.680 103.011,136.562 103.329 L 136.346 103.906 95.924 103.740 L 55.502 103.574 55.504 104.119 C 55.505 104.703,57.066 122.042,57.297 124.043 L 57.436 125.239 95.870 125.178 C 117.008 125.144,134.391 125.205,134.499 125.313 C 134.607 125.420,134.481 127.816,134.219 130.637 C 133.698 136.249,131.864 156.869,131.092 165.789 C 130.824 168.882,130.449 173.080,130.258 175.120 C 130.067 177.159,129.692 181.411,129.425 184.569 C 128.927 190.455,128.814 190.909,127.847 190.909 C 127.687 190.909,126.066 191.333,124.244 191.851 C 119.401 193.228,105.128 197.197,99.641 198.691 C 98.062 199.122,94.563 200.088,91.866 200.838 C 89.169 201.589,86.585 202.305,86.124 202.430 C 85.398 202.627,84.082 202.321,76.196 200.118 C 71.196 198.722,66.298 197.366,65.311 197.105 C 64.324 196.845,62.225 196.265,60.646 195.817 C 57.902 195.038,46.527 191.878,43.339 191.008 C 41.491 190.504,41.786 191.619,40.911 181.818 C 40.505 177.279,39.848 169.974,39.449 165.585 C 39.050 161.196,38.782 157.455,38.852 157.271 C 38.996 156.897,59.908 156.756,60.138 157.129 C 60.202 157.234,60.535 160.652,60.876 164.724 C 61.218 168.797,61.575 172.547,61.670 173.057 L 61.842 173.984 63.876 174.555 C 64.994 174.869,70.223 176.296,75.496 177.728 L 85.082 180.330 91.166 178.704 C 99.815 176.392,108.658 173.960,108.723 173.876 C 108.797 173.778,109.934 161.512,110.524 154.426 C 110.788 151.268,111.055 148.227,111.119 147.667 L 111.235 146.651 74.544 146.651 L 37.853 146.651 37.709 145.634 C 37.630 145.075,37.237 140.849,36.837 136.244 C 36.437 131.639,35.846 124.964,35.525 121.411 C 35.203 117.859,34.559 110.592,34.093 105.263 C 33.627 99.934,32.978 92.672,32.652 89.125 C 32.325 85.579,32.057 82.591,32.057 82.487 C 32.057 82.382,56.011 82.297,85.287 82.297 C 137.356 82.297,138.517 82.307,138.517 82.750 " stroke="none" fill="#e85326" fill-rule="evenodd"></path><path id="path2" d="M229.187 45.287 C 229.187 45.590,229.316 45.967,229.474 46.125 C 229.659 46.310,229.765 47.297,229.773 48.900 C 229.779 50.268,229.846 51.350,229.920 51.305 C 229.995 51.259,230.305 54.473,230.610 58.446 C 230.915 62.419,231.209 66.100,231.263 66.627 C 231.318 67.153,231.399 68.391,231.443 69.378 C 231.486 70.365,231.581 71.334,231.654 71.531 C 231.726 71.728,231.901 73.451,232.044 75.359 C 232.186 77.267,232.477 81.035,232.690 83.732 C 232.904 86.429,233.114 89.282,233.158 90.072 C 233.202 90.861,233.298 92.045,233.372 92.703 C 233.740 95.973,234.228 101.907,234.561 107.177 C 234.765 110.401,235.006 113.469,235.095 113.995 C 235.185 114.522,235.282 115.383,235.312 115.909 C 235.342 116.435,235.478 117.889,235.616 119.139 C 235.754 120.389,236.037 123.995,236.246 127.153 C 236.455 130.311,236.793 134.725,236.997 136.962 C 237.202 139.199,237.398 141.406,237.434 141.866 C 237.469 142.327,237.631 144.045,237.794 145.684 C 237.956 147.324,238.040 149.177,237.980 149.803 C 237.920 150.429,237.962 150.884,238.074 150.815 C 238.186 150.746,238.278 151.215,238.278 151.858 C 238.278 152.501,238.382 154.149,238.510 155.521 C 238.725 157.828,239.393 165.525,239.619 168.301 C 239.672 168.959,239.771 169.740,239.839 170.036 C 239.910 170.351,239.848 170.574,239.688 170.574 C 239.503 170.574,239.491 170.671,239.651 170.873 C 239.781 171.038,239.958 172.141,240.044 173.325 C 240.310 176.986,241.139 187.344,241.316 189.234 C 241.409 190.221,241.477 191.702,241.467 192.524 C 241.457 193.346,241.527 194.019,241.622 194.019 C 241.802 194.019,241.852 194.566,242.455 203.110 C 242.654 205.939,242.887 208.953,242.972 209.809 C 243.057 210.664,243.139 211.902,243.154 212.560 C 243.169 213.218,243.271 213.893,243.379 214.061 C 243.487 214.229,243.554 214.821,243.527 215.377 C 243.501 215.933,243.543 216.549,243.622 216.746 C 243.700 216.944,243.795 217.590,243.832 218.182 C 243.889 219.091,243.983 219.270,244.438 219.335 C 244.734 219.377,244.976 219.518,244.976 219.648 C 244.976 219.778,245.088 219.815,245.226 219.730 C 245.363 219.645,245.605 219.684,245.764 219.816 C 245.923 219.947,246.135 220.055,246.237 220.056 C 246.870 220.060,249.957 220.928,249.865 221.077 C 249.803 221.177,249.879 221.337,250.033 221.432 C 250.208 221.540,250.249 221.501,250.142 221.329 C 250.041 221.165,250.124 221.053,250.345 221.053 C 250.550 221.053,250.718 221.133,250.718 221.232 C 250.718 221.331,250.987 221.434,251.316 221.461 C 252.568 221.566,252.758 221.601,252.990 221.775 C 253.122 221.874,254.220 222.206,255.431 222.513 C 256.726 222.843,257.514 223.149,257.345 223.258 C 257.187 223.361,257.407 223.377,257.834 223.295 C 258.265 223.213,258.748 223.260,258.918 223.401 C 259.087 223.541,259.491 223.717,259.816 223.791 C 263.513 224.635,267.335 225.770,267.288 226.010 C 267.256 226.169,267.373 226.244,267.546 226.178 C 267.891 226.045,272.409 227.059,273.565 227.528 C 273.959 227.688,274.444 227.845,274.641 227.877 C 275.694 228.047,279.795 229.265,279.856 229.426 C 279.895 229.530,280.137 229.559,280.394 229.492 C 280.662 229.422,280.861 229.490,280.861 229.651 C 280.861 229.806,280.942 229.883,281.041 229.823 C 281.256 229.691,286.897 231.205,286.747 231.355 C 286.690 231.412,286.876 231.477,287.161 231.498 C 287.923 231.555,295.031 233.440,295.478 233.704 C 295.688 233.828,297.454 234.320,299.403 234.797 C 301.351 235.274,303.063 235.737,303.207 235.827 C 303.351 235.918,303.577 236.012,303.708 236.037 C 304.627 236.213,309.678 237.599,309.896 237.735 C 310.045 237.829,310.363 237.935,310.603 237.973 C 310.842 238.010,311.976 238.304,313.123 238.626 L 315.207 239.212 317.539 238.530 C 318.821 238.154,319.894 237.844,319.923 237.840 C 319.952 237.836,320.251 237.728,320.587 237.600 C 320.923 237.473,322.377 237.084,323.817 236.736 C 325.257 236.389,326.571 236.058,326.737 236.001 C 326.903 235.945,327.075 235.922,327.119 235.952 C 327.163 235.981,327.350 235.879,327.535 235.726 C 327.720 235.573,329.187 235.118,330.796 234.715 C 332.404 234.312,333.912 233.876,334.145 233.745 C 334.378 233.614,335.969 233.138,337.679 232.687 C 339.390 232.235,342.665 231.322,344.958 230.658 C 347.251 229.993,349.215 229.504,349.324 229.571 C 349.433 229.638,349.522 229.592,349.522 229.468 C 349.522 229.345,350.033 229.118,350.658 228.965 C 351.283 228.811,352.840 228.362,354.119 227.967 C 356.024 227.377,358.268 226.772,361.244 226.045 C 361.441 225.996,361.675 225.856,361.764 225.733 C 361.859 225.601,362.086 225.643,362.316 225.833 C 362.645 226.107,362.695 226.106,362.633 225.826 C 362.580 225.588,363.368 225.282,365.431 224.741 C 367.010 224.327,368.597 223.869,368.959 223.723 C 369.321 223.576,369.617 223.521,369.617 223.600 C 369.617 223.678,369.777 223.610,369.973 223.448 C 370.182 223.274,370.585 223.217,370.950 223.308 C 371.307 223.398,371.513 223.371,371.435 223.244 C 371.360 223.123,372.237 222.788,373.383 222.501 C 374.530 222.213,375.590 221.876,375.741 221.751 C 375.891 221.627,376.448 221.499,376.980 221.468 C 377.511 221.437,377.902 221.366,377.848 221.311 C 377.703 221.163,383.103 219.645,383.313 219.774 C 383.412 219.835,383.493 219.784,383.493 219.661 C 383.493 219.538,383.790 219.378,384.154 219.306 C 384.732 219.190,384.819 219.058,384.840 218.259 C 384.898 216.078,385.986 203.828,386.122 203.828 C 386.204 203.828,386.247 203.101,386.217 202.213 C 386.187 201.325,386.258 200.006,386.373 199.282 C 386.625 197.701,387.799 183.925,387.799 182.549 C 387.799 182.015,387.880 181.579,387.978 181.579 C 388.077 181.579,388.142 181.068,388.123 180.443 C 388.104 179.818,388.180 178.445,388.293 177.392 C 388.733 173.270,389.284 167.162,389.723 161.524 C 389.976 158.278,390.244 155.084,390.319 154.426 C 390.393 153.768,390.493 152.799,390.540 152.273 C 390.586 151.746,390.739 150.239,390.879 148.923 C 391.018 147.608,391.353 143.355,391.623 139.474 C 391.893 135.592,392.180 132.147,392.262 131.818 C 392.344 131.489,392.388 130.811,392.359 130.311 C 392.330 129.811,392.421 129.263,392.562 129.093 C 392.703 128.923,392.805 128.363,392.789 127.849 C 392.751 126.679,393.736 114.617,394.350 108.732 C 394.419 108.074,394.531 106.782,394.599 105.861 C 394.667 104.940,394.773 103.648,394.834 102.990 C 394.895 102.333,395.177 98.941,395.460 95.455 C 395.744 91.968,396.033 88.953,396.104 88.756 C 396.175 88.559,396.258 87.590,396.289 86.603 C 396.320 85.616,396.417 84.324,396.505 83.732 C 396.761 82.010,397.844 68.906,397.846 67.510 C 397.846 66.811,397.928 66.290,398.026 66.351 C 398.125 66.412,398.191 65.961,398.173 65.348 C 398.155 64.736,398.229 63.427,398.338 62.440 C 398.627 59.821,399.221 53.477,399.526 49.761 C 399.672 47.984,399.850 46.127,399.921 45.634 L 400.052 44.737 314.619 44.737 L 229.187 44.737 229.187 45.287 M367.797 82.197 C 368.103 82.994,367.958 102.281,367.644 102.672 C 367.479 102.876,365.676 103.718,363.636 104.543 C 361.597 105.368,358.690 106.550,357.177 107.170 C 354.051 108.450,345.124 112.101,342.165 113.309 C 341.080 113.752,339.303 114.479,338.218 114.924 C 332.908 117.101,330.588 118.049,325.957 119.930 C 323.194 121.053,320.502 122.168,319.976 122.409 C 319.040 122.837,319.501 122.848,341.447 122.908 C 362.600 122.965,363.876 122.993,363.875 123.386 C 363.874 123.954,362.734 137.334,362.433 140.311 C 362.300 141.627,361.924 145.933,361.597 149.880 C 361.270 153.828,360.738 159.964,360.415 163.517 C 360.091 167.069,359.547 173.260,359.206 177.273 C 358.358 187.243,358.221 188.526,357.982 188.759 C 357.761 188.974,355.169 189.818,348.086 191.982 C 345.652 192.726,343.068 193.535,342.344 193.780 C 341.621 194.026,339.468 194.708,337.560 195.296 C 335.652 195.885,331.938 197.030,329.306 197.841 C 326.675 198.652,323.553 199.623,322.368 199.999 C 321.184 200.376,319.076 201.026,317.683 201.444 L 315.151 202.205 308.951 200.492 C 305.541 199.550,301.244 198.360,299.402 197.848 C 297.560 197.335,294.438 196.472,292.464 195.929 C 290.490 195.386,287.315 194.512,285.407 193.987 C 283.499 193.462,280.861 192.724,279.545 192.347 C 278.230 191.971,275.700 191.268,273.923 190.786 C 272.147 190.304,270.598 189.818,270.481 189.706 C 270.364 189.594,270.017 186.616,269.709 183.088 C 268.874 173.492,267.464 156.784,267.464 156.484 C 267.464 156.078,288.495 156.114,288.636 156.519 C 288.693 156.684,289.130 160.263,289.607 164.474 C 290.085 168.684,290.548 172.207,290.637 172.301 C 290.726 172.396,295.781 173.730,301.871 175.264 L 312.942 178.055 318.852 176.934 C 322.102 176.318,326.968 175.394,329.665 174.882 C 332.362 174.370,335.323 173.810,336.244 173.638 L 337.919 173.325 338.676 165.550 C 339.093 161.274,339.712 155.044,340.052 151.706 C 340.392 148.368,340.670 145.488,340.670 145.306 C 340.670 145.027,334.966 144.976,303.593 144.976 L 266.516 144.976 266.404 144.438 C 266.318 144.024,264.613 132.011,263.759 125.805 C 263.618 124.778,263.738 124.655,265.670 123.855 C 267.024 123.293,271.907 121.177,282.895 116.389 C 285.526 115.242,288.379 114.007,289.234 113.644 C 290.090 113.282,292.889 112.068,295.455 110.947 C 306.743 106.016,309.799 104.688,311.483 103.982 L 313.278 103.230 287.989 103.169 L 262.701 103.108 262.567 102.331 C 262.391 101.313,259.809 82.171,259.809 81.886 C 259.809 81.551,367.669 81.862,367.797 82.197 " stroke="none" fill="#1c7abe" fill-rule="evenodd"></path><path id="path3" d="M16.268 16.268 L 16.268 32.536 21.890 32.536 L 27.512 32.536 27.512 27.153 L 27.512 21.770 32.177 21.770 L 36.842 21.770 36.842 27.157 L 36.842 32.545 42.524 32.480 L 48.206 32.416 48.267 16.208 L 48.329 0.000 42.585 0.000 L 36.842 0.000 36.842 5.144 L 36.842 10.287 32.177 10.287 L 27.512 10.287 27.512 5.144 L 27.512 0.000 21.890 0.000 L 16.268 0.000 16.268 16.268 M52.153 5.502 L 52.153 11.005 56.878 11.005 L 61.603 11.005 61.603 21.710 L 61.603 32.416 67.285 32.480 L 72.967 32.545 72.967 21.775 L 72.967 11.005 77.751 11.005 L 82.536 11.005 82.536 5.502 L 82.536 0.000 67.344 0.000 L 52.153 0.000 52.153 5.502 M86.661 16.208 L 86.722 32.416 92.165 32.481 L 97.608 32.545 97.608 24.856 C 97.608 18.048,97.649 17.200,97.967 17.464 C 98.164 17.628,98.325 17.849,98.325 17.956 C 98.325 18.205,99.797 20.618,100.141 20.933 C 100.285 21.065,100.706 21.711,101.078 22.368 C 101.449 23.026,101.817 23.618,101.895 23.684 C 102.146 23.895,103.349 25.820,103.350 26.012 C 103.350 26.113,103.628 26.519,103.968 26.914 C 104.308 27.309,104.685 27.793,104.805 27.990 C 105.000 28.309,105.048 28.309,105.242 27.990 C 105.362 27.793,105.695 27.362,105.983 27.033 C 106.270 26.705,106.670 26.118,106.872 25.729 C 107.074 25.341,107.656 24.413,108.165 23.667 C 108.674 22.921,109.091 22.205,109.091 22.075 C 109.091 21.946,109.357 21.553,109.683 21.202 C 110.008 20.851,110.627 19.921,111.058 19.136 C 111.489 18.351,111.923 17.708,112.022 17.706 C 112.120 17.705,112.201 21.041,112.201 25.120 L 112.201 32.536 117.797 32.536 C 122.680 32.536,123.412 32.488,123.539 32.157 C 123.619 31.949,123.684 24.629,123.684 15.890 L 123.684 0.000 117.622 0.000 L 111.559 0.000 110.882 1.256 C 110.510 1.947,110.128 2.566,110.034 2.632 C 109.940 2.697,109.564 3.289,109.199 3.947 C 108.834 4.605,108.419 5.353,108.275 5.610 C 108.132 5.866,107.831 6.285,107.608 6.539 C 107.384 6.794,107.021 7.392,106.800 7.867 C 106.580 8.343,106.210 8.947,105.979 9.211 C 105.747 9.474,105.477 9.952,105.379 10.274 C 105.205 10.847,105.192 10.840,104.742 9.963 C 104.489 9.470,104.073 8.857,103.816 8.601 C 103.559 8.344,103.349 8.021,103.349 7.883 C 103.349 7.745,102.910 6.971,102.373 6.163 C 101.836 5.354,101.135 4.175,100.814 3.543 C 100.494 2.910,100.125 2.392,99.996 2.392 C 99.867 2.392,99.761 2.283,99.761 2.148 C 99.761 2.014,99.490 1.476,99.160 0.952 L 98.559 -0.000 92.579 -0.000 L 86.600 0.000 86.661 16.208 M128.230 15.890 C 128.230 24.629,128.295 31.949,128.375 32.157 C 128.505 32.496,129.909 32.536,141.772 32.536 L 155.024 32.536 155.024 26.914 L 155.024 21.292 147.368 21.292 L 139.713 21.292 139.713 10.646 L 139.713 0.000 133.971 0.000 L 128.230 0.000 128.230 15.890 M264.173 16.208 L 264.234 32.416 277.320 32.536 C 290.255 32.654,290.408 32.650,290.535 32.177 C 290.605 31.914,290.665 29.519,290.667 26.854 L 290.670 22.010 283.014 22.010 L 275.359 22.010 275.359 16.511 L 275.359 11.012 282.955 10.948 L 290.550 10.885 290.615 5.443 L 290.679 0.000 277.395 0.000 L 264.111 0.000 264.173 16.208 M301.008 4.246 C 300.969 7.602,301.026 8.615,301.256 8.623 C 301.420 8.629,301.955 9.248,302.444 9.999 C 304.164 12.641,305.091 13.996,305.256 14.115 C 305.349 14.181,305.815 14.827,306.294 15.550 C 306.772 16.274,307.599 17.458,308.131 18.182 C 309.377 19.876,310.282 21.239,310.447 21.669 C 310.557 21.956,309.911 22.010,306.365 22.010 L 302.153 22.010 302.157 27.093 C 302.159 29.889,302.240 32.285,302.336 32.416 C 302.451 32.572,306.920 32.633,315.132 32.592 L 327.751 32.528 327.751 27.466 L 327.751 22.405 326.017 20.169 C 325.063 18.940,323.959 17.515,323.565 17.003 C 323.170 16.490,322.362 15.455,321.770 14.701 C 321.178 13.947,320.481 13.049,320.220 12.706 C 319.959 12.362,319.663 12.045,319.562 12.002 C 318.733 11.643,319.963 11.483,323.565 11.483 L 327.751 11.483 327.751 5.740 L 327.751 -0.004 314.653 0.058 L 301.555 0.120 301.441 4.306 L 301.327 8.493 301.193 4.187 L 301.060 -0.120 301.008 4.246 M338.278 4.490 L 338.278 8.984 339.175 10.206 C 341.195 12.956,342.289 14.515,342.715 15.251 C 342.963 15.679,343.235 16.029,343.319 16.029 C 343.404 16.029,343.870 16.672,344.355 17.458 C 344.840 18.244,345.370 19.024,345.534 19.192 C 345.883 19.551,347.368 21.745,347.368 21.902 C 347.368 21.961,345.484 22.010,343.182 22.010 L 338.995 22.010 338.995 27.014 C 338.995 29.766,339.050 32.162,339.117 32.337 C 339.304 32.822,364.006 32.679,364.495 32.190 C 364.762 31.923,364.833 30.908,364.833 27.360 L 364.833 22.867 363.385 20.999 C 362.567 19.944,362.011 19.013,362.106 18.859 C 362.206 18.697,362.169 18.652,362.015 18.747 C 361.795 18.883,356.514 12.423,356.260 11.708 C 356.212 11.574,357.800 11.482,360.207 11.480 C 365.366 11.475,364.854 12.133,364.777 5.605 L 364.713 0.120 351.495 0.058 L 338.278 -0.004 338.278 4.490 " stroke="none" fill="#040404" fill-rule="evenodd"></path><path id="path4" d="M290.909 5.670 C 290.843 8.723,290.872 11.138,290.974 11.036 C 291.075 10.935,291.129 8.437,291.093 5.486 L 291.028 0.120 290.909 5.670 M319.617 11.663 C 319.616 11.761,320.881 11.814,322.428 11.779 C 327.632 11.664,328.136 11.576,323.864 11.529 C 321.528 11.504,319.617 11.564,319.617 11.663 M356.459 11.708 C 356.459 11.832,356.584 12.010,356.736 12.104 C 356.905 12.209,356.947 12.170,356.845 12.004 C 356.723 11.808,357.814 11.714,360.815 11.662 L 364.952 11.591 360.706 11.537 C 358.174 11.505,356.459 11.574,356.459 11.708 M343.182 21.469 C 341.208 21.501,339.351 21.584,339.055 21.653 L 338.517 21.779 338.572 27.217 L 338.627 32.656 338.696 27.333 L 338.765 22.010 342.947 22.010 C 345.401 22.010,347.129 21.917,347.129 21.784 C 347.129 21.423,346.949 21.409,343.182 21.469 M275.598 21.770 C 275.598 21.925,278.309 22.010,283.254 22.010 L 290.909 22.010 290.964 27.333 L 291.019 32.656 291.088 27.423 C 291.137 23.758,291.076 22.091,290.885 21.860 C 290.546 21.452,275.598 21.364,275.598 21.770 M302.392 21.770 C 302.392 21.920,303.907 22.010,306.459 22.010 C 309.011 22.010,310.526 21.920,310.526 21.770 C 310.526 21.620,309.011 21.531,306.459 21.531 C 303.907 21.531,302.392 21.620,302.392 21.770 M271.830 44.677 C 295.350 44.711,333.837 44.711,357.356 44.677 C 380.876 44.643,361.633 44.616,314.593 44.616 C 267.554 44.616,248.310 44.643,271.830 44.677 M399.671 49.172 C 399.589 49.386,399.535 49.902,399.551 50.319 C 399.576 50.949,399.611 50.896,399.760 50.000 C 399.950 48.856,399.916 48.534,399.671 49.172 M229.481 50.000 C 229.481 50.461,229.531 50.649,229.591 50.419 C 229.651 50.188,229.651 49.812,229.591 49.581 C 229.531 49.351,229.481 49.539,229.481 50.000 M229.965 53.230 C 229.967 53.756,230.016 53.943,230.074 53.646 C 230.131 53.348,230.129 52.917,230.069 52.689 C 230.009 52.460,229.962 52.703,229.965 53.230 M397.847 68.541 C 397.847 68.870,397.953 69.139,398.083 69.139 C 398.214 69.139,398.298 68.870,398.271 68.541 C 398.243 68.212,398.137 67.943,398.034 67.943 C 397.931 67.943,397.847 68.212,397.847 68.541 M231.156 69.856 C 231.156 70.317,231.205 70.505,231.265 70.275 C 231.326 70.045,231.326 69.668,231.265 69.438 C 231.205 69.208,231.156 69.396,231.156 69.856 M231.400 72.847 C 231.403 73.373,231.452 73.560,231.509 73.263 C 231.566 72.965,231.564 72.535,231.504 72.306 C 231.444 72.077,231.397 72.321,231.400 72.847 M231.728 75.796 C 231.622 76.102,231.599 76.416,231.677 76.493 C 231.925 76.741,232.099 76.376,232.008 75.798 L 231.920 75.239 231.728 75.796 M232.831 89.713 C 232.831 90.173,232.880 90.362,232.940 90.132 C 233.000 89.901,233.000 89.525,232.940 89.294 C 232.880 89.064,232.831 89.252,232.831 89.713 M396.088 90.247 C 396.012 90.541,396.053 90.885,396.180 91.013 C 396.329 91.162,396.411 90.972,396.411 90.478 C 396.411 89.584,396.285 89.494,396.088 90.247 M395.694 93.222 C 395.694 93.573,395.768 93.786,395.858 93.695 C 396.099 93.455,396.126 92.584,395.893 92.584 C 395.783 92.584,395.694 92.871,395.694 93.222 M393.780 114.833 C 393.780 115.096,393.888 115.311,394.019 115.311 C 394.151 115.311,394.258 115.096,394.258 114.833 C 394.258 114.569,394.151 114.354,394.019 114.354 C 393.888 114.354,393.780 114.569,393.780 114.833 M392.888 127.990 C 392.888 128.583,392.935 128.825,392.992 128.529 C 393.049 128.233,393.049 127.748,392.992 127.452 C 392.935 127.156,392.888 127.398,392.888 127.990 M236.658 135.885 C 236.658 136.346,236.708 136.534,236.768 136.304 C 236.828 136.074,236.828 135.697,236.768 135.467 C 236.708 135.236,236.658 135.425,236.658 135.885 M266.711 144.797 C 266.810 144.897,283.519 144.950,303.840 144.917 L 340.789 144.856 303.660 144.737 C 283.239 144.671,266.612 144.698,266.711 144.797 M390.974 149.761 C 390.974 150.353,391.021 150.595,391.078 150.299 C 391.135 150.003,391.135 149.519,391.078 149.222 C 391.021 148.926,390.974 149.169,390.974 149.761 M237.560 149.507 C 237.560 149.763,237.667 150.038,237.799 150.120 C 237.935 150.203,238.038 150.002,238.038 149.655 C 238.038 149.319,237.931 149.043,237.799 149.043 C 237.667 149.043,237.560 149.252,237.560 149.507 M238.333 155.742 C 238.333 156.202,238.382 156.391,238.442 156.160 C 238.503 155.930,238.503 155.553,238.442 155.323 C 238.382 155.093,238.333 155.281,238.333 155.742 M267.624 156.380 C 267.536 156.467,267.466 156.656,267.468 156.798 C 267.470 156.954,267.547 156.939,267.660 156.761 C 267.804 156.534,270.270 156.449,278.123 156.399 L 288.397 156.334 278.090 156.277 C 272.421 156.246,267.711 156.292,267.624 156.380 M389.295 168.062 C 389.297 168.589,389.346 168.776,389.404 168.478 C 389.461 168.180,389.459 167.750,389.399 167.521 C 389.339 167.292,389.292 167.536,389.295 168.062 M268.716 170.096 C 268.716 170.556,268.765 170.745,268.825 170.514 C 268.885 170.284,268.885 169.907,268.825 169.677 C 268.765 169.447,268.716 169.635,268.716 170.096 M239.934 174.940 C 239.783 175.435,239.799 175.862,239.973 175.970 C 240.093 176.044,240.191 175.829,240.191 175.493 C 240.191 175.006,240.024 174.646,239.934 174.940 M269.194 175.598 C 269.194 176.059,269.243 176.247,269.304 176.017 C 269.364 175.786,269.364 175.410,269.304 175.179 C 269.243 174.949,269.194 175.138,269.194 175.598 M387.827 183.971 C 387.839 184.965,387.856 184.994,388.049 184.351 C 388.172 183.939,388.166 183.498,388.035 183.274 C 387.877 183.003,387.817 183.201,387.827 183.971 M387.620 186.962 C 387.623 187.488,387.672 187.675,387.729 187.378 C 387.786 187.080,387.784 186.649,387.724 186.421 C 387.664 186.192,387.617 186.435,387.620 186.962 M241.448 195.813 C 241.451 196.340,241.500 196.527,241.557 196.229 C 241.614 195.932,241.612 195.501,241.552 195.272 C 241.492 195.044,241.445 195.287,241.448 195.813 M386.012 205.333 C 385.910 205.569,385.893 205.829,385.975 205.911 C 386.218 206.154,386.414 205.813,386.302 205.342 C 386.203 204.924,386.190 204.923,386.012 205.333 M385.646 208.413 C 385.646 208.698,385.721 208.857,385.812 208.765 C 386.071 208.506,386.107 207.895,385.864 207.895 C 385.744 207.895,385.646 208.128,385.646 208.413 M243.123 215.670 C 243.125 216.196,243.174 216.383,243.231 216.086 C 243.289 215.788,243.286 215.358,243.227 215.129 C 243.167 214.900,243.120 215.144,243.123 215.670 " stroke="none" fill="#a4abc2" fill-rule="evenodd"></path><path id="path5" d="M229.332 47.397 C 229.546 50.341,229.893 51.335,229.792 48.714 C 229.741 47.414,229.592 46.243,229.460 46.111 C 229.300 45.951,229.257 46.378,229.332 47.397 M399.544 48.445 C 399.538 49.175,399.591 49.307,399.768 49.004 C 399.914 48.754,399.917 48.400,399.776 48.047 C 399.580 47.558,399.551 47.608,399.544 48.445 M229.844 51.334 C 229.746 51.434,229.675 51.955,229.687 52.492 L 229.708 53.469 229.939 52.668 C 230.188 51.801,230.135 51.042,229.844 51.334 M399.192 53.957 C 399.110 54.170,399.053 54.579,399.065 54.864 C 399.080 55.232,399.154 55.149,399.318 54.579 C 399.556 53.751,399.458 53.264,399.192 53.957 M229.762 54.343 C 229.660 54.508,229.696 54.555,229.851 54.459 C 230.008 54.362,230.151 54.561,230.211 54.960 C 230.305 55.581,230.313 55.574,230.347 54.844 C 230.383 54.070,230.087 53.817,229.762 54.343 M398.957 56.749 C 398.876 57.050,398.821 57.566,398.833 57.895 C 398.847 58.247,398.942 58.057,399.064 57.431 C 399.284 56.311,399.207 55.818,398.957 56.749 M230.297 57.536 C 230.372 58.194,230.476 58.777,230.528 58.832 C 230.715 59.030,230.583 57.285,230.375 56.818 C 230.233 56.499,230.207 56.739,230.297 57.536 M398.597 60.347 C 398.453 61.169,398.283 62.583,398.219 63.488 C 398.155 64.393,398.031 65.766,397.944 66.538 C 397.835 67.504,397.868 67.943,398.051 67.943 C 398.213 67.943,398.306 67.487,398.290 66.773 C 398.276 66.130,398.320 65.511,398.389 65.398 C 398.458 65.284,398.584 64.222,398.671 63.038 C 398.757 61.854,398.885 60.428,398.955 59.868 C 399.150 58.314,398.892 58.659,398.597 60.347 M230.557 61.005 C 230.624 62.123,230.721 63.083,230.771 63.138 C 230.935 63.319,230.808 60.421,230.619 59.689 C 230.513 59.278,230.486 59.841,230.557 61.005 M230.976 66.029 C 231.066 67.542,231.236 69.211,231.352 69.737 C 231.525 70.519,231.542 70.409,231.442 69.139 C 231.374 68.283,231.259 66.669,231.185 65.550 C 231.111 64.432,230.997 63.463,230.931 63.397 C 230.865 63.331,230.886 64.516,230.976 66.029 M231.490 72.787 C 231.520 73.609,231.554 74.659,231.566 75.120 C 231.581 75.745,231.644 75.866,231.813 75.598 C 232.053 75.219,231.872 71.779,231.596 71.471 C 231.507 71.372,231.460 71.964,231.490 72.787 M397.518 72.617 C 397.436 72.831,397.381 73.293,397.396 73.644 C 397.417 74.122,397.470 74.042,397.610 73.325 C 397.808 72.308,397.764 71.974,397.518 72.617 M397.293 75.450 C 397.203 75.685,397.139 76.164,397.151 76.515 C 397.171 77.110,397.188 77.099,397.403 76.353 C 397.651 75.490,397.561 74.750,397.293 75.450 M231.673 76.907 C 231.701 77.101,231.773 77.307,231.831 77.365 C 231.890 77.424,231.928 78.123,231.915 78.919 C 231.902 79.714,231.966 80.320,232.056 80.264 C 232.262 80.137,232.325 78.092,232.150 77.213 C 232.017 76.544,231.578 76.263,231.673 76.907 M397.124 77.532 C 397.122 77.587,396.959 79.246,396.764 81.220 C 396.156 87.349,396.114 87.923,396.282 87.762 C 396.476 87.577,397.401 77.704,397.240 77.543 C 397.179 77.482,397.127 77.477,397.124 77.532 M232.229 80.562 C 232.176 80.661,232.213 81.011,232.310 81.340 C 232.477 81.899,232.490 81.887,232.512 81.160 C 232.535 80.410,232.429 80.187,232.229 80.562 M259.836 82.356 C 259.857 82.761,259.891 82.791,259.973 82.477 C 260.077 82.080,262.904 82.055,313.953 81.998 L 367.823 81.937 313.816 81.877 L 259.809 81.818 259.836 82.356 M367.813 92.344 C 367.813 97.937,367.844 100.224,367.883 97.428 C 367.921 94.632,367.921 90.057,367.883 87.261 C 367.844 84.465,367.813 86.752,367.813 92.344 M232.610 84.809 C 232.611 85.598,232.656 85.892,232.709 85.462 C 232.763 85.032,232.761 84.386,232.707 84.027 C 232.652 83.667,232.609 84.019,232.610 84.809 M232.792 87.939 C 232.801 88.454,232.905 89.091,233.023 89.354 C 233.162 89.667,233.187 89.376,233.093 88.517 C 232.921 86.936,232.769 86.645,232.792 87.939 M396.112 88.654 C 396.014 88.754,395.940 89.221,395.948 89.693 C 395.962 90.497,395.978 90.514,396.198 89.963 C 396.457 89.314,396.395 88.366,396.112 88.654 M395.846 91.584 C 395.737 92.021,395.712 92.443,395.791 92.521 C 396.061 92.791,396.206 92.388,396.124 91.590 L 396.043 90.789 395.846 91.584 M233.062 91.627 C 233.062 91.956,233.148 92.494,233.254 92.823 L 233.445 93.421 233.445 92.823 C 233.445 92.494,233.359 91.956,233.254 91.627 L 233.062 91.029 233.062 91.627 M233.146 94.019 C 233.247 94.348,233.358 95.371,233.392 96.292 C 233.450 97.869,233.682 101.148,233.820 102.328 C 233.943 103.387,234.210 103.163,234.193 102.014 C 234.149 99.095,233.592 94.024,233.284 93.729 C 233.015 93.473,232.992 93.521,233.146 94.019 M395.510 94.976 C 395.510 95.437,395.559 95.625,395.619 95.395 C 395.680 95.164,395.680 94.788,395.619 94.557 C 395.559 94.327,395.510 94.516,395.510 94.976 M395.368 97.069 C 395.297 97.563,395.176 98.828,395.100 99.880 C 395.023 100.933,394.910 102.225,394.848 102.751 C 394.768 103.427,394.796 103.567,394.944 103.230 C 395.059 102.967,395.224 101.782,395.310 100.598 C 395.397 99.414,395.532 97.934,395.611 97.309 C 395.691 96.684,395.697 96.172,395.626 96.172 C 395.555 96.172,395.439 96.576,395.368 97.069 M269.737 103.046 C 288.311 103.209,313.636 103.211,313.636 103.050 C 313.636 102.952,302.144 102.896,288.098 102.927 C 274.052 102.958,265.789 103.011,269.737 103.046 M234.285 104.665 C 234.286 105.455,234.331 105.749,234.384 105.319 C 234.437 104.889,234.436 104.243,234.381 103.883 C 234.327 103.524,234.283 103.876,234.285 104.665 M394.617 105.263 C 394.524 106.069,394.501 106.782,394.567 106.848 C 394.633 106.913,394.763 106.308,394.856 105.502 C 394.950 104.697,394.973 103.984,394.907 103.918 C 394.841 103.852,394.711 104.458,394.617 105.263 M234.409 107.895 C 234.459 108.421,234.543 108.852,234.595 108.852 C 234.646 108.852,234.689 108.421,234.689 107.895 C 234.689 107.368,234.605 106.938,234.503 106.938 C 234.401 106.938,234.359 107.368,234.409 107.895 M394.386 108.194 C 394.313 108.621,394.256 109.187,394.258 109.450 C 394.260 109.713,394.151 110.885,394.014 112.054 C 393.783 114.032,393.820 114.632,394.156 114.297 C 394.280 114.173,394.352 113.299,394.598 108.911 C 394.690 107.283,394.596 106.966,394.386 108.194 M354.067 108.254 C 353.738 108.442,353.577 108.595,353.708 108.595 C 353.840 108.595,354.217 108.442,354.545 108.254 C 354.874 108.066,355.036 107.912,354.904 107.912 C 354.773 107.912,354.396 108.066,354.067 108.254 M350.000 109.928 C 349.671 110.116,349.510 110.270,349.641 110.270 C 349.773 110.270,350.150 110.116,350.478 109.928 C 350.807 109.740,350.969 109.586,350.837 109.586 C 350.706 109.586,350.329 109.740,350.000 109.928 M234.851 114.234 C 234.929 114.761,235.085 115.353,235.197 115.550 C 235.321 115.767,235.346 115.531,235.261 114.952 C 235.184 114.426,235.029 113.834,234.916 113.636 C 234.790 113.417,234.765 113.650,234.851 114.234 M338.876 114.468 C 338.218 114.778,337.787 115.034,337.919 115.037 C 338.050 115.040,338.696 114.789,339.354 114.479 C 340.012 114.169,340.443 113.913,340.311 113.910 C 340.179 113.907,339.533 114.159,338.876 114.468 M393.686 115.689 C 393.521 116.119,393.486 117.599,393.645 117.440 C 393.773 117.312,394.024 115.311,393.912 115.311 C 393.867 115.311,393.766 115.481,393.686 115.689 M235.074 117.225 C 235.155 117.817,235.248 118.947,235.279 119.737 C 235.441 123.800,235.723 126.574,235.950 126.346 C 236.288 126.009,235.686 117.804,235.255 116.866 C 234.929 116.158,234.927 116.163,235.074 117.225 M329.545 118.296 C 328.888 118.606,328.457 118.862,328.589 118.865 C 328.720 118.868,329.366 118.617,330.024 118.307 C 330.682 117.997,331.112 117.741,330.981 117.738 C 330.849 117.735,330.203 117.986,329.545 118.296 M393.301 120.096 C 393.301 120.797,393.345 121.327,393.399 121.272 C 393.581 121.086,393.642 119.160,393.471 118.989 C 393.378 118.896,393.301 119.394,393.301 120.096 M393.062 122.847 C 393.062 123.483,393.111 123.954,393.171 123.894 C 393.358 123.707,393.407 122.035,393.230 121.859 C 393.138 121.766,393.062 122.211,393.062 122.847 M318.820 122.648 C 318.732 122.735,318.660 122.897,318.660 123.006 C 318.660 123.116,328.861 123.179,341.328 123.147 L 363.995 123.089 341.554 123.026 C 326.747 122.985,319.162 122.883,319.259 122.726 C 319.423 122.461,319.070 122.398,318.820 122.648 M363.697 124.282 C 363.699 124.809,363.748 124.996,363.806 124.698 C 363.863 124.401,363.861 123.970,363.801 123.741 C 363.741 123.513,363.694 123.756,363.697 124.282 M392.953 125.419 C 392.756 126.044,392.678 127.243,392.841 127.142 C 392.935 127.084,393.053 126.605,393.103 126.078 C 393.194 125.123,393.132 124.851,392.953 125.419 M363.457 126.914 C 363.460 127.440,363.509 127.627,363.566 127.330 C 363.624 127.032,363.621 126.602,363.562 126.373 C 363.502 126.144,363.455 126.388,363.457 126.914 M236.185 128.110 C 236.187 128.636,236.236 128.824,236.294 128.526 C 236.351 128.228,236.349 127.798,236.289 127.569 C 236.229 127.340,236.182 127.584,236.185 128.110 M363.223 129.904 C 363.223 130.496,363.270 130.739,363.327 130.443 C 363.384 130.147,363.384 129.662,363.327 129.366 C 363.270 129.070,363.223 129.312,363.223 129.904 M392.467 129.182 C 392.387 129.311,392.346 129.883,392.376 130.452 C 392.405 131.022,392.364 131.593,392.284 131.722 C 392.045 132.110,391.833 137.321,392.057 137.321 C 392.171 137.321,392.270 137.186,392.276 137.022 C 392.282 136.857,392.366 135.754,392.462 134.569 C 392.674 131.956,392.795 128.947,392.689 128.947 C 392.647 128.947,392.547 129.053,392.467 129.182 M362.987 132.656 C 362.989 133.313,363.035 133.554,363.090 133.190 C 363.145 132.827,363.144 132.289,363.087 131.994 C 363.030 131.700,362.985 131.998,362.987 132.656 M362.751 135.167 C 362.751 135.891,362.796 136.187,362.851 135.825 C 362.906 135.464,362.906 134.871,362.851 134.510 C 362.796 134.148,362.751 134.444,362.751 135.167 M236.774 137.502 C 236.931 138.691,237.081 138.804,237.081 137.733 C 237.081 137.259,236.986 136.811,236.869 136.739 C 236.752 136.667,236.709 137.010,236.774 137.502 M362.509 137.919 C 362.510 138.577,362.557 138.817,362.612 138.454 C 362.667 138.090,362.665 137.552,362.609 137.257 C 362.552 136.963,362.507 137.261,362.509 137.919 M391.627 139.115 C 391.627 139.882,391.671 140.466,391.725 140.411 C 391.905 140.229,391.964 138.057,391.794 137.887 C 391.702 137.795,391.627 138.347,391.627 139.115 M236.980 140.550 C 237.038 141.340,237.136 142.470,237.196 143.062 C 237.257 143.654,237.376 145.215,237.460 146.531 C 237.544 147.847,237.655 148.968,237.706 149.023 C 238.032 149.372,238.060 148.453,237.803 145.765 C 237.643 144.081,237.475 142.165,237.431 141.507 C 237.387 140.849,237.244 140.042,237.112 139.713 C 236.926 139.247,236.897 139.431,236.980 140.550 M362.269 140.550 C 362.271 141.208,362.318 141.449,362.373 141.085 C 362.428 140.722,362.426 140.183,362.369 139.889 C 362.313 139.595,362.268 139.892,362.269 140.550 M391.453 142.105 C 391.453 142.697,391.499 142.940,391.556 142.644 C 391.613 142.347,391.613 141.863,391.556 141.567 C 391.499 141.271,391.453 141.513,391.453 142.105 M362.017 143.062 C 362.017 143.523,362.066 143.711,362.127 143.481 C 362.187 143.251,362.187 142.874,362.127 142.644 C 362.066 142.413,362.017 142.602,362.017 143.062 M361.783 146.053 C 361.785 146.579,361.834 146.766,361.892 146.469 C 361.949 146.171,361.947 145.740,361.887 145.512 C 361.827 145.283,361.780 145.526,361.783 146.053 M340.491 147.488 C 340.494 148.014,340.543 148.201,340.600 147.904 C 340.657 147.606,340.655 147.176,340.595 146.947 C 340.535 146.718,340.488 146.962,340.491 147.488 M361.544 148.923 C 361.546 149.450,361.595 149.637,361.652 149.339 C 361.710 149.042,361.708 148.611,361.648 148.382 C 361.588 148.154,361.541 148.397,361.544 148.923 M340.247 150.000 C 340.247 150.461,340.296 150.649,340.356 150.419 C 340.416 150.188,340.416 149.812,340.356 149.581 C 340.296 149.351,340.247 149.539,340.247 150.000 M390.706 150.638 C 390.686 150.924,390.600 151.354,390.515 151.595 C 390.396 151.932,390.428 151.971,390.653 151.764 C 390.815 151.615,390.900 151.185,390.844 150.807 C 390.772 150.323,390.731 150.273,390.706 150.638 M237.930 151.017 C 237.830 151.247,237.830 151.624,237.930 151.854 C 238.104 152.253,238.117 152.253,238.212 151.854 C 238.381 151.148,238.159 150.490,237.930 151.017 M361.309 151.675 C 361.309 152.267,361.356 152.509,361.413 152.213 C 361.470 151.917,361.470 151.432,361.413 151.136 C 361.356 150.840,361.309 151.083,361.309 151.675 M340.008 152.392 C 340.008 152.853,340.057 153.041,340.117 152.811 C 340.177 152.581,340.177 152.204,340.117 151.974 C 340.057 151.743,340.008 151.932,340.008 152.392 M390.454 153.409 C 390.300 153.968,390.184 154.695,390.196 155.024 C 390.207 155.353,390.142 156.349,390.051 157.237 C 389.946 158.271,389.973 158.852,390.128 158.852 C 390.261 158.852,390.442 157.859,390.531 156.639 C 390.621 155.422,390.751 153.968,390.821 153.409 C 390.891 152.850,390.900 152.392,390.840 152.392 C 390.781 152.392,390.607 152.850,390.454 153.409 M361.073 154.426 C 361.075 155.084,361.121 155.324,361.176 154.961 C 361.231 154.597,361.230 154.059,361.173 153.765 C 361.116 153.470,361.071 153.768,361.073 154.426 M339.768 154.785 C 339.768 155.245,339.818 155.434,339.878 155.203 C 339.938 154.973,339.938 154.596,339.878 154.366 C 339.818 154.136,339.768 154.324,339.768 154.785 M360.834 157.297 C 360.836 157.955,360.882 158.195,360.937 157.832 C 360.992 157.468,360.991 156.930,360.934 156.635 C 360.877 156.341,360.832 156.639,360.834 157.297 M238.423 157.342 C 238.570 158.526,238.756 158.664,238.756 157.590 C 238.756 157.115,238.656 156.665,238.534 156.590 C 238.407 156.511,238.359 156.829,238.423 157.342 M339.534 157.297 C 339.537 157.823,339.586 158.010,339.643 157.713 C 339.700 157.415,339.698 156.984,339.638 156.756 C 339.578 156.527,339.531 156.770,339.534 157.297 M339.300 159.330 C 339.300 159.922,339.346 160.164,339.403 159.868 C 339.460 159.572,339.460 159.088,339.403 158.792 C 339.346 158.496,339.300 158.738,339.300 159.330 M360.595 159.928 C 360.597 160.586,360.643 160.827,360.698 160.463 C 360.753 160.100,360.752 159.561,360.695 159.267 C 360.638 158.973,360.593 159.270,360.595 159.928 M238.605 160.167 C 238.683 160.825,238.807 162.171,238.882 163.158 C 238.956 164.145,239.120 166.083,239.245 167.464 C 239.371 168.846,239.473 170.111,239.473 170.275 C 239.474 170.440,239.583 170.574,239.717 170.574 C 239.852 170.574,239.907 170.332,239.841 170.036 C 239.775 169.740,239.660 168.798,239.587 167.943 C 239.029 161.467,238.795 159.290,238.641 159.142 C 238.543 159.048,238.526 159.510,238.605 160.167 M389.872 159.490 C 389.648 159.714,389.680 161.540,389.916 161.911 C 390.030 162.091,390.112 161.616,390.112 160.775 C 390.112 159.980,390.094 159.330,390.072 159.330 C 390.050 159.330,389.960 159.402,389.872 159.490 M339.060 161.722 C 339.060 162.315,339.107 162.557,339.164 162.261 C 339.221 161.965,339.221 161.480,339.164 161.184 C 339.107 160.888,339.060 161.130,339.060 161.722 M360.352 162.440 C 360.352 163.032,360.399 163.275,360.456 162.978 C 360.513 162.682,360.513 162.198,360.456 161.902 C 360.399 161.606,360.352 161.848,360.352 162.440 M267.998 163.158 C 267.998 163.618,268.047 163.807,268.107 163.577 C 268.168 163.346,268.168 162.969,268.107 162.739 C 268.047 162.509,267.998 162.697,267.998 163.158 M338.821 164.354 C 338.821 164.946,338.868 165.188,338.925 164.892 C 338.982 164.596,338.982 164.112,338.925 163.816 C 338.868 163.520,338.821 163.762,338.821 164.354 M360.108 165.191 C 360.111 165.718,360.160 165.905,360.217 165.607 C 360.274 165.310,360.272 164.879,360.212 164.650 C 360.152 164.422,360.106 164.665,360.108 165.191 M268.237 166.029 C 268.237 166.489,268.287 166.678,268.347 166.447 C 268.407 166.217,268.407 165.840,268.347 165.610 C 268.287 165.380,268.237 165.568,268.237 166.029 M338.577 166.627 C 338.580 167.153,338.629 167.340,338.686 167.043 C 338.743 166.745,338.741 166.314,338.681 166.086 C 338.621 165.857,338.574 166.100,338.577 166.627 M359.864 167.943 C 359.864 168.403,359.913 168.592,359.974 168.361 C 360.034 168.131,360.034 167.754,359.974 167.524 C 359.913 167.294,359.864 167.482,359.864 167.943 M268.481 168.780 C 268.484 169.306,268.533 169.493,268.590 169.196 C 268.647 168.898,268.645 168.468,268.585 168.239 C 268.526 168.010,268.479 168.254,268.481 168.780 M338.333 169.139 C 338.333 169.599,338.382 169.788,338.442 169.557 C 338.503 169.327,338.503 168.950,338.442 168.720 C 338.382 168.490,338.333 168.678,338.333 169.139 M388.995 169.777 C 388.995 170.802,389.106 170.767,389.314 169.677 C 389.399 169.230,389.362 168.900,389.228 168.900 C 389.100 168.900,388.995 169.294,388.995 169.777 M359.630 170.933 C 359.632 171.459,359.681 171.646,359.739 171.349 C 359.796 171.051,359.794 170.621,359.734 170.392 C 359.674 170.163,359.627 170.407,359.630 170.933 M239.560 171.651 C 239.641 172.177,239.709 173.179,239.710 173.878 C 239.712 174.591,239.810 175.088,239.934 175.012 C 240.218 174.836,239.970 171.250,239.652 170.933 C 239.491 170.773,239.460 171.010,239.560 171.651 M268.721 171.651 C 268.723 172.177,268.772 172.364,268.829 172.067 C 268.887 171.769,268.885 171.338,268.825 171.110 C 268.765 170.881,268.718 171.124,268.721 171.651 M338.094 171.531 C 338.094 171.992,338.143 172.180,338.203 171.950 C 338.263 171.719,338.263 171.343,338.203 171.112 C 338.143 170.882,338.094 171.071,338.094 171.531 M388.905 171.660 C 388.823 171.874,388.769 172.390,388.786 172.807 C 388.811 173.437,388.846 173.384,388.995 172.488 C 389.185 171.344,389.150 171.022,388.905 171.660 M359.395 173.684 C 359.395 174.276,359.442 174.519,359.499 174.222 C 359.556 173.926,359.556 173.442,359.499 173.146 C 359.442 172.850,359.395 173.092,359.395 173.684 M268.960 174.282 C 268.963 174.809,269.011 174.996,269.069 174.698 C 269.126 174.401,269.124 173.970,269.064 173.741 C 269.004 173.513,268.957 173.756,268.960 174.282 M388.673 174.342 C 388.306 175.669,387.919 181.340,388.195 181.340 C 388.306 181.340,388.404 181.097,388.413 180.801 C 388.435 180.064,388.770 175.921,388.897 174.821 C 389.005 173.890,388.874 173.612,388.673 174.342 M330.861 174.641 C 330.057 174.899,330.926 174.899,331.938 174.641 C 332.582 174.477,332.595 174.458,332.057 174.454 C 331.728 174.452,331.190 174.536,330.861 174.641 M359.159 176.435 C 359.161 177.093,359.208 177.334,359.263 176.970 C 359.318 176.607,359.316 176.068,359.259 175.774 C 359.203 175.480,359.158 175.778,359.159 176.435 M239.833 176.567 C 239.833 176.955,239.906 177.273,239.995 177.273 C 240.085 177.273,240.206 177.461,240.265 177.691 C 240.324 177.922,240.340 177.693,240.301 177.184 C 240.215 176.070,239.833 175.567,239.833 176.567 M269.194 177.033 C 269.194 177.494,269.243 177.682,269.304 177.452 C 269.364 177.222,269.364 176.845,269.304 176.615 C 269.243 176.385,269.194 176.573,269.194 177.033 M358.920 179.067 C 358.922 179.725,358.968 179.966,359.023 179.602 C 359.078 179.238,359.077 178.700,359.020 178.406 C 358.963 178.112,358.918 178.409,358.920 179.067 M269.438 179.785 C 269.441 180.311,269.490 180.498,269.547 180.201 C 269.604 179.903,269.602 179.472,269.542 179.244 C 269.482 179.015,269.436 179.258,269.438 179.785 M240.346 180.263 C 240.426 180.921,240.532 181.504,240.581 181.559 C 240.768 181.769,240.625 180.000,240.418 179.545 C 240.272 179.223,240.248 179.458,240.346 180.263 M358.678 181.818 C 358.678 182.410,358.724 182.653,358.781 182.356 C 358.838 182.060,358.838 181.576,358.781 181.280 C 358.724 180.984,358.678 181.226,358.678 181.818 M387.803 182.237 C 387.805 182.599,387.913 183.056,388.044 183.254 C 388.217 183.515,388.265 183.336,388.220 182.596 C 388.152 181.483,387.797 181.177,387.803 182.237 M240.549 182.895 C 240.601 183.553,240.712 185.085,240.796 186.301 C 240.880 187.516,241.048 188.808,241.168 189.172 L 241.388 189.833 241.284 189.105 C 241.227 188.705,241.103 187.144,241.007 185.636 C 240.912 184.128,240.749 182.626,240.644 182.297 C 240.514 181.886,240.484 182.074,240.549 182.895 M358.442 184.330 C 358.443 184.988,358.490 185.229,358.545 184.865 C 358.600 184.501,358.598 183.963,358.542 183.669 C 358.485 183.375,358.440 183.672,358.442 184.330 M269.912 185.407 C 269.912 185.867,269.961 186.056,270.021 185.825 C 270.082 185.595,270.082 185.218,270.021 184.988 C 269.961 184.758,269.912 184.946,269.912 185.407 M358.194 187.201 C 358.197 187.727,358.246 187.914,358.303 187.617 C 358.360 187.319,358.358 186.889,358.298 186.660 C 358.238 186.431,358.192 186.675,358.194 187.201 M270.151 188.278 C 270.151 188.738,270.200 188.926,270.261 188.696 C 270.321 188.466,270.321 188.089,270.261 187.859 C 270.200 187.629,270.151 187.817,270.151 188.278 M387.336 188.289 C 387.350 189.065,387.365 189.080,387.582 188.536 C 387.735 188.153,387.730 187.874,387.567 187.711 C 387.398 187.541,387.325 187.723,387.336 188.289 M387.230 190.610 C 387.160 190.972,386.979 192.883,386.828 194.856 C 386.677 196.830,386.514 198.510,386.466 198.590 C 386.261 198.928,386.083 203.110,386.274 203.110 C 386.389 203.110,386.489 202.814,386.496 202.452 C 386.516 201.353,387.283 192.106,387.458 190.849 C 387.602 189.816,387.422 189.627,387.230 190.610 M241.200 190.909 C 241.203 191.370,241.287 192.069,241.388 192.464 C 241.561 193.147,241.570 193.135,241.575 192.225 C 241.577 191.699,241.493 190.999,241.388 190.670 C 241.215 190.130,241.196 190.154,241.200 190.909 M352.512 190.431 C 352.210 190.560,352.166 190.636,352.392 190.636 C 352.590 190.636,352.967 190.544,353.230 190.431 C 353.531 190.301,353.575 190.225,353.349 190.225 C 353.152 190.225,352.775 190.318,352.512 190.431 M345.574 192.584 C 345.273 192.713,345.228 192.789,345.455 192.789 C 345.652 192.789,346.029 192.697,346.292 192.584 C 346.593 192.454,346.638 192.378,346.411 192.378 C 346.214 192.378,345.837 192.471,345.574 192.584 M341.388 193.900 C 340.927 194.077,340.712 194.225,340.909 194.229 C 341.106 194.233,341.591 194.089,341.986 193.908 C 342.910 193.485,342.480 193.479,341.388 193.900 M241.525 195.514 C 241.573 196.337,241.616 197.381,241.620 197.835 C 241.625 198.396,241.705 198.582,241.871 198.416 C 242.024 198.263,242.056 197.405,241.955 196.096 C 241.774 193.739,241.390 193.220,241.525 195.514 M334.809 195.933 C 334.151 196.176,333.774 196.374,333.971 196.374 C 334.169 196.374,334.868 196.176,335.526 195.933 C 336.184 195.690,336.561 195.492,336.364 195.492 C 336.166 195.492,335.467 195.690,334.809 195.933 M327.512 198.206 C 327.051 198.383,326.836 198.528,327.033 198.528 C 327.231 198.528,327.769 198.383,328.230 198.206 C 328.690 198.028,328.906 197.883,328.708 197.883 C 328.511 197.883,327.972 198.028,327.512 198.206 M241.729 199.504 C 241.729 199.757,241.814 199.913,241.917 199.849 C 242.021 199.785,242.105 199.847,242.105 199.986 C 242.105 200.125,242.013 200.239,241.899 200.239 C 241.786 200.239,241.745 200.508,241.807 200.837 C 241.870 201.166,242.017 201.435,242.133 201.435 C 242.374 201.435,242.408 200.383,242.194 199.581 C 242.017 198.922,241.729 198.874,241.729 199.504 M320.215 200.478 C 319.914 200.608,319.870 200.684,320.096 200.684 C 320.293 200.684,320.670 200.592,320.933 200.478 C 321.235 200.349,321.279 200.273,321.053 200.273 C 320.855 200.273,320.478 200.365,320.215 200.478 M242.293 204.007 C 242.417 205.973,242.517 206.159,242.551 204.486 C 242.569 203.597,242.502 202.871,242.403 202.871 C 242.303 202.871,242.254 203.382,242.293 204.007 M385.885 204.560 C 385.885 204.987,385.985 205.230,386.124 205.144 C 386.256 205.062,386.364 204.733,386.364 204.412 C 386.364 204.091,386.256 203.828,386.124 203.828 C 385.993 203.828,385.885 204.157,385.885 204.560 M385.791 206.359 C 385.563 206.953,385.621 207.895,385.885 207.895 C 386.017 207.895,386.124 207.464,386.124 206.938 C 386.124 205.918,386.026 205.747,385.791 206.359 M242.526 207.356 C 242.672 208.895,242.766 209.020,242.795 207.715 C 242.810 207.025,242.737 206.459,242.632 206.459 C 242.527 206.459,242.479 206.863,242.526 207.356 M385.640 209.103 C 385.495 209.372,385.411 209.879,385.452 210.228 C 385.511 210.736,385.577 210.639,385.782 209.737 C 386.063 208.498,386.033 208.367,385.640 209.103 M242.864 211.124 C 242.867 211.388,242.957 211.872,243.062 212.201 L 243.254 212.799 243.261 212.201 C 243.265 211.872,243.175 211.388,243.062 211.124 L 242.857 210.646 242.864 211.124 M385.338 211.962 C 385.257 212.422,385.137 213.929,385.071 215.311 L 384.950 217.823 385.294 214.713 C 385.623 211.741,385.648 210.191,385.338 211.962 M243.194 214.986 C 243.416 216.513,243.541 216.607,243.541 215.245 C 243.541 214.639,243.425 214.071,243.283 213.984 C 243.104 213.873,243.077 214.179,243.194 214.986 M243.327 217.732 C 243.435 218.414,243.472 219.057,243.409 219.159 C 243.268 219.386,243.463 219.504,244.318 219.708 C 244.684 219.796,244.976 219.765,244.976 219.638 C 244.976 219.513,244.734 219.377,244.438 219.335 C 243.973 219.269,243.883 219.081,243.780 217.961 C 243.714 217.248,243.541 216.625,243.396 216.577 C 243.208 216.516,243.188 216.854,243.327 217.732 M384.031 219.308 C 383.223 219.463,383.383 219.790,384.208 219.669 C 384.601 219.611,384.864 219.468,384.792 219.351 C 384.720 219.234,384.640 219.153,384.615 219.171 C 384.590 219.189,384.327 219.251,384.031 219.308 M381.296 220.180 C 380.417 220.463,379.618 220.775,379.521 220.874 C 379.424 220.973,379.874 220.889,380.522 220.688 C 381.169 220.487,381.997 220.257,382.361 220.178 C 382.726 220.099,383.082 219.940,383.153 219.826 C 383.324 219.549,383.170 219.578,381.296 220.180 M246.350 220.130 C 246.483 220.263,246.991 220.462,247.478 220.572 C 248.625 220.831,248.342 220.548,247.081 220.175 C 246.510 220.007,246.208 219.988,246.350 220.130 M249.894 221.165 C 250.450 221.585,250.718 221.622,250.718 221.278 C 250.718 221.138,250.617 221.086,250.495 221.162 C 250.373 221.238,250.205 221.190,250.122 221.057 C 250.039 220.923,249.850 220.813,249.701 220.813 C 249.552 220.813,249.639 220.971,249.894 221.165 M377.392 221.275 C 376.603 221.503,375.688 221.801,375.359 221.940 C 375.030 222.078,374.545 222.245,374.282 222.312 L 373.804 222.433 374.282 222.454 C 374.545 222.466,375.407 222.256,376.196 221.987 C 376.986 221.718,377.818 221.458,378.045 221.410 C 378.535 221.305,379.413 220.820,379.067 220.845 C 378.935 220.855,378.182 221.048,377.392 221.275 M251.035 221.464 C 251.119 221.600,251.660 221.830,252.238 221.976 C 252.815 222.121,253.463 222.307,253.677 222.390 C 253.893 222.472,254.067 222.421,254.067 222.274 C 254.067 222.129,253.858 222.010,253.603 222.010 C 253.347 222.010,253.076 221.909,253.000 221.786 C 252.924 221.662,252.675 221.564,252.447 221.567 C 252.220 221.570,251.774 221.492,251.458 221.394 C 251.082 221.278,250.935 221.303,251.035 221.464 M371.651 222.967 C 371.189 223.165,371.191 223.173,371.696 223.189 C 371.985 223.198,372.287 223.098,372.368 222.967 C 372.543 222.684,372.309 222.684,371.651 222.967 M258.134 223.426 C 258.134 223.619,259.259 224.006,259.928 224.043 C 260.060 224.050,260.302 224.140,260.467 224.243 C 260.635 224.349,260.766 224.320,260.766 224.177 C 260.766 224.037,260.685 223.915,260.586 223.906 C 259.868 223.835,259.185 223.634,258.988 223.438 C 258.694 223.144,258.134 223.136,258.134 223.426 M370.010 223.371 C 369.919 223.463,369.620 223.571,369.346 223.613 C 368.394 223.758,367.986 224.164,368.900 224.057 C 369.811 223.950,371.053 223.532,371.053 223.331 C 371.053 223.146,370.203 223.179,370.010 223.371 M364.288 224.998 C 363.660 225.171,362.960 225.394,362.733 225.493 C 362.506 225.592,362.186 225.652,362.022 225.625 C 361.857 225.599,361.722 225.696,361.722 225.841 C 361.722 225.986,361.637 226.052,361.532 225.987 C 361.427 225.922,361.184 225.970,360.993 226.093 C 360.740 226.257,360.807 226.289,361.244 226.215 C 361.573 226.158,361.869 226.091,361.902 226.064 C 361.974 226.007,362.057 225.988,363.278 225.745 C 363.804 225.641,364.342 225.472,364.474 225.370 C 364.605 225.267,365.036 225.070,365.431 224.931 C 366.442 224.576,365.657 224.622,364.288 224.998 M264.354 225.174 C 265.635 225.737,266.647 226.070,267.093 226.073 C 267.930 226.079,267.161 225.649,265.635 225.258 C 263.949 224.825,263.493 224.795,264.354 225.174 M270.455 226.891 C 270.849 227.065,271.279 227.145,271.409 227.070 C 271.539 226.995,271.378 226.860,271.050 226.769 C 270.043 226.488,269.698 226.559,270.455 226.891 M356.340 227.309 C 355.024 227.705,353.140 228.254,352.153 228.531 C 350.249 229.063,350.098 229.125,350.267 229.294 C 350.357 229.384,352.131 228.903,355.084 227.988 C 355.446 227.876,355.742 227.844,355.742 227.917 C 355.742 227.990,355.883 227.931,356.057 227.788 C 356.230 227.644,356.710 227.500,357.123 227.469 C 357.536 227.438,357.820 227.357,357.753 227.291 C 357.686 227.224,358.041 227.042,358.541 226.887 C 359.041 226.732,359.288 226.602,359.091 226.598 C 358.894 226.594,357.656 226.914,356.340 227.309 M272.010 227.271 C 272.010 227.419,272.108 227.479,272.228 227.405 C 272.349 227.331,272.483 227.361,272.527 227.473 C 272.614 227.691,274.163 228.057,274.163 227.859 C 274.163 227.793,273.920 227.649,273.624 227.538 C 272.361 227.065,272.010 227.007,272.010 227.271 M274.478 227.920 C 274.563 228.058,275.105 228.290,275.683 228.435 C 276.260 228.581,276.935 228.771,277.182 228.859 C 277.477 228.963,277.549 228.937,277.392 228.784 C 277.261 228.655,276.684 228.416,276.111 228.253 C 275.539 228.090,274.902 227.892,274.697 227.813 C 274.471 227.726,274.385 227.769,274.478 227.920 M277.977 229.051 C 278.134 229.239,278.443 229.387,278.664 229.378 C 278.886 229.369,279.255 229.442,279.486 229.539 C 279.739 229.646,279.904 229.612,279.904 229.451 C 279.904 229.306,279.716 229.170,279.486 229.150 C 279.255 229.130,278.940 229.102,278.785 229.087 C 278.630 229.073,278.423 228.982,278.326 228.885 C 277.999 228.557,277.690 228.705,277.977 229.051 M347.189 229.980 C 346.235 230.264,345.455 230.573,345.455 230.667 C 345.455 230.761,345.966 230.679,346.591 230.484 C 347.216 230.290,348.026 230.066,348.390 229.986 C 348.755 229.907,349.111 229.749,349.182 229.634 C 349.355 229.355,349.203 229.381,347.189 229.980 M281.177 229.835 C 281.263 229.973,281.576 230.146,281.874 230.218 C 282.172 230.290,282.819 230.453,283.312 230.580 C 283.804 230.706,284.156 230.727,284.093 230.626 C 284.031 230.525,283.507 230.323,282.930 230.177 C 282.352 230.032,281.687 229.839,281.451 229.748 C 281.179 229.644,281.079 229.676,281.177 229.835 M285.755 231.243 C 285.965 231.453,286.282 231.570,286.460 231.501 C 286.638 231.433,286.878 231.464,286.992 231.571 C 287.291 231.849,289.979 232.589,290.132 232.436 C 290.202 232.366,290.110 232.262,289.927 232.205 C 289.743 232.149,289.001 231.915,288.278 231.686 C 287.554 231.457,286.776 231.252,286.548 231.230 C 286.320 231.208,286.060 231.116,285.970 231.026 C 285.879 230.935,285.708 230.861,285.589 230.861 C 285.470 230.861,285.544 231.033,285.755 231.243 M341.268 231.703 C 340.347 232.012,339.803 232.272,340.060 232.281 C 340.718 232.303,343.301 231.511,343.301 231.287 C 343.301 231.035,343.192 231.057,341.268 231.703 M338.517 232.536 C 338.024 232.694,338.003 232.731,338.397 232.748 C 338.660 232.759,339.037 232.663,339.234 232.536 C 339.654 232.265,339.363 232.265,338.517 232.536 M292.464 233.080 C 293.153 233.497,296.651 234.410,296.651 234.172 C 296.651 234.061,296.506 233.971,296.329 233.971 C 296.151 233.971,295.674 233.805,295.267 233.602 C 294.860 233.399,294.140 233.199,293.668 233.156 C 293.195 233.114,292.740 233.011,292.656 232.927 C 292.572 232.844,292.387 232.778,292.245 232.782 C 292.102 232.786,292.201 232.920,292.464 233.080 M335.287 233.361 C 333.532 233.911,333.254 234.026,333.254 234.201 C 333.254 234.296,334.061 234.159,335.048 233.896 C 336.035 233.632,336.842 233.326,336.842 233.216 C 336.842 232.956,336.469 232.991,335.287 233.361 M300.106 235.295 C 300.361 235.488,300.792 235.654,301.062 235.664 C 301.656 235.686,302.145 235.777,302.901 236.006 C 303.290 236.124,303.394 236.100,303.230 235.931 C 303.012 235.705,300.333 234.918,299.846 234.936 C 299.733 234.940,299.850 235.102,300.106 235.295 M329.067 235.104 C 328.804 235.171,328.319 235.338,327.990 235.475 C 327.661 235.613,327.321 235.734,327.233 235.746 C 326.809 235.799,326.775 236.124,327.193 236.124 C 327.456 236.124,327.752 236.044,327.851 235.945 C 327.950 235.846,328.102 235.761,328.190 235.755 C 328.959 235.703,330.144 235.340,330.144 235.157 C 330.144 234.917,329.864 234.903,329.067 235.104 M305.024 236.603 C 305.221 236.730,305.577 236.836,305.813 236.838 C 306.050 236.840,306.549 237.000,306.922 237.193 C 307.294 237.385,307.962 237.605,308.405 237.680 C 308.848 237.755,309.426 237.878,309.689 237.954 C 310.014 238.048,310.091 238.013,309.928 237.846 C 309.705 237.617,305.433 236.360,304.904 236.367 C 304.773 236.369,304.827 236.475,305.024 236.603 M323.445 236.760 C 323.248 236.826,322.925 236.942,322.727 237.017 C 322.530 237.093,322.122 237.196,321.821 237.247 C 321.065 237.375,320.008 237.791,320.130 237.913 C 320.242 238.025,322.101 237.625,322.847 237.329 C 324.174 236.801,324.490 236.635,324.163 236.638 C 323.965 236.639,323.642 236.695,323.445 236.760 M310.408 238.040 C 310.543 238.259,312.896 238.859,313.043 238.712 C 313.097 238.658,312.499 238.442,311.716 238.232 C 310.932 238.022,310.343 237.935,310.408 238.040 M318.002 238.360 C 317.048 238.637,316.268 238.935,316.268 239.022 C 316.268 239.216,319.411 238.293,319.725 238.007 C 319.850 237.892,319.904 237.812,319.844 237.827 C 319.785 237.842,318.956 238.082,318.002 238.360 " stroke="none" fill="#6cb4dc" fill-rule="evenodd"></path><path id="path6" d="M32.093 83.074 C 32.127 83.798,32.136 83.806,32.229 83.194 L 32.328 82.536 85.315 82.536 L 138.302 82.536 138.139 84.629 C 138.048 85.781,138.030 86.669,138.097 86.603 C 138.165 86.537,138.296 85.541,138.390 84.390 L 138.560 82.297 85.309 82.297 L 32.057 82.297 32.093 83.074 M32.368 85.407 C 32.368 86.130,32.413 86.426,32.468 86.065 C 32.523 85.703,32.523 85.111,32.468 84.749 C 32.413 84.387,32.368 84.683,32.368 85.407 M32.608 88.038 C 32.608 88.762,32.652 89.058,32.707 88.696 C 32.762 88.334,32.762 87.742,32.707 87.380 C 32.652 87.019,32.608 87.315,32.608 88.038 M137.867 87.919 C 137.869 88.577,137.916 88.817,137.971 88.454 C 138.026 88.090,138.024 87.552,137.967 87.257 C 137.911 86.963,137.866 87.261,137.867 87.919 M32.847 90.670 C 32.847 91.394,32.892 91.690,32.946 91.328 C 33.001 90.966,33.001 90.374,32.946 90.012 C 32.892 89.650,32.847 89.946,32.847 90.670 M137.628 90.789 C 137.630 91.447,137.676 91.688,137.731 91.324 C 137.786 90.961,137.785 90.423,137.728 90.128 C 137.671 89.834,137.626 90.132,137.628 90.789 M33.083 93.182 C 33.085 93.840,33.131 94.080,33.186 93.717 C 33.241 93.353,33.240 92.815,33.183 92.521 C 33.126 92.226,33.081 92.524,33.083 93.182 M136.997 97.074 C 136.770 99.670,136.525 102.197,136.453 102.690 L 136.322 103.586 110.685 103.648 L 85.048 103.710 110.712 103.769 L 136.375 103.828 136.577 103.289 C 136.806 102.680,137.676 92.620,137.515 92.459 C 137.457 92.401,137.224 94.478,136.997 97.074 M33.322 96.053 C 33.324 96.711,33.370 96.951,33.425 96.588 C 33.480 96.224,33.479 95.686,33.422 95.391 C 33.365 95.097,33.320 95.395,33.322 96.053 M33.558 98.804 C 33.558 99.396,33.605 99.638,33.662 99.342 C 33.719 99.046,33.719 98.562,33.662 98.266 C 33.605 97.969,33.558 98.212,33.558 98.804 M33.797 101.435 C 33.797 102.028,33.844 102.270,33.901 101.974 C 33.958 101.678,33.958 101.193,33.901 100.897 C 33.844 100.601,33.797 100.843,33.797 101.435 M34.036 104.306 C 34.036 104.898,34.083 105.141,34.140 104.844 C 34.197 104.548,34.197 104.064,34.140 103.768 C 34.083 103.472,34.036 103.714,34.036 104.306 M55.323 104.426 C 55.326 104.952,55.375 105.139,55.432 104.842 C 55.490 104.544,55.487 104.113,55.428 103.885 C 55.368 103.656,55.321 103.900,55.323 104.426 M55.571 106.818 C 55.573 107.476,55.619 107.717,55.674 107.353 C 55.729 106.990,55.728 106.451,55.671 106.157 C 55.614 105.863,55.569 106.160,55.571 106.818 M34.276 106.938 C 34.276 107.530,34.322 107.772,34.379 107.476 C 34.436 107.180,34.436 106.696,34.379 106.400 C 34.322 106.103,34.276 106.346,34.276 106.938 M34.521 109.569 C 34.521 110.293,34.566 110.589,34.621 110.227 C 34.676 109.865,34.676 109.273,34.621 108.911 C 34.566 108.550,34.521 108.846,34.521 109.569 M55.810 109.450 C 55.812 110.108,55.858 110.348,55.913 109.985 C 55.968 109.621,55.967 109.083,55.910 108.789 C 55.853 108.494,55.808 108.792,55.810 109.450 M34.751 112.081 C 34.746 112.739,34.821 113.923,34.919 114.713 C 35.080 116.010,35.098 116.045,35.104 115.072 C 35.108 114.480,35.033 113.295,34.937 112.440 C 34.771 110.965,34.761 110.947,34.751 112.081 M56.049 112.321 C 56.051 112.978,56.098 113.219,56.153 112.856 C 56.208 112.492,56.206 111.954,56.149 111.659 C 56.092 111.365,56.047 111.663,56.049 112.321 M56.256 114.365 C 56.175 115.749,57.113 125.502,57.309 125.306 C 57.393 125.222,56.604 115.943,56.377 114.354 L 56.292 113.756 56.256 114.365 M35.239 117.464 C 35.239 118.188,35.284 118.484,35.339 118.122 C 35.394 117.760,35.394 117.168,35.339 116.806 C 35.284 116.444,35.239 116.740,35.239 117.464 M35.478 120.096 C 35.478 120.819,35.523 121.115,35.578 120.754 C 35.633 120.392,35.633 119.800,35.578 119.438 C 35.523 119.076,35.478 119.372,35.478 120.096 M35.711 122.727 C 35.711 123.319,35.758 123.562,35.815 123.266 C 35.872 122.969,35.872 122.485,35.815 122.189 C 35.758 121.893,35.711 122.135,35.711 122.727 M35.954 125.478 C 35.955 126.136,36.002 126.377,36.057 126.013 C 36.112 125.650,36.110 125.112,36.054 124.817 C 35.997 124.523,35.952 124.821,35.954 125.478 M95.978 125.299 L 134.420 125.360 134.517 126.017 C 134.608 126.636,134.613 126.633,134.592 125.957 L 134.569 125.239 96.053 125.238 L 57.536 125.237 95.978 125.299 M134.279 128.110 C 134.281 128.768,134.327 129.009,134.382 128.645 C 134.437 128.281,134.436 127.743,134.379 127.449 C 134.322 127.155,134.277 127.452,134.279 128.110 M36.196 128.469 C 36.196 129.193,36.241 129.489,36.296 129.127 C 36.351 128.765,36.351 128.173,36.296 127.811 C 36.241 127.449,36.196 127.745,36.196 128.469 M134.040 130.742 C 134.042 131.400,134.088 131.640,134.143 131.277 C 134.198 130.913,134.196 130.375,134.140 130.080 C 134.083 129.786,134.038 130.084,134.040 130.742 M36.385 130.263 C 36.327 131.071,37.658 145.602,37.749 145.155 C 37.830 144.757,36.680 130.898,36.503 130.144 C 36.452 129.924,36.406 129.971,36.385 130.263 M133.792 133.612 C 133.795 134.139,133.844 134.326,133.901 134.028 C 133.958 133.731,133.956 133.300,133.896 133.071 C 133.837 132.843,133.790 133.086,133.792 133.612 M133.558 136.364 C 133.558 136.956,133.605 137.198,133.662 136.902 C 133.719 136.606,133.719 136.121,133.662 135.825 C 133.605 135.529,133.558 135.772,133.558 136.364 M133.325 138.995 C 133.325 139.719,133.370 140.015,133.425 139.653 C 133.480 139.291,133.480 138.699,133.425 138.337 C 133.370 137.975,133.325 138.272,133.325 138.995 M132.778 144.104 C 132.613 146.003,132.525 147.693,132.581 147.862 C 132.637 148.030,132.821 146.526,132.989 144.519 C 133.157 142.513,133.246 140.822,133.186 140.762 C 133.126 140.702,132.943 142.206,132.778 144.104 M37.799 146.471 C 37.799 146.570,54.308 146.651,74.486 146.651 L 111.172 146.651 111.058 148.505 C 110.996 149.525,111.000 150.305,111.069 150.239 C 111.137 150.173,111.232 149.312,111.278 148.325 L 111.364 146.531 74.581 146.411 C 54.351 146.346,37.799 146.373,37.799 146.471 M132.365 149.641 C 132.367 150.299,132.413 150.540,132.468 150.176 C 132.523 149.812,132.522 149.274,132.465 148.980 C 132.408 148.686,132.363 148.983,132.365 149.641 M110.657 152.882 C 110.562 154.213,110.536 155.353,110.599 155.415 C 110.661 155.478,110.790 154.440,110.885 153.110 C 110.980 151.780,111.007 150.640,110.943 150.577 C 110.880 150.513,110.751 151.551,110.657 152.882 M132.126 152.273 C 132.128 152.931,132.174 153.171,132.229 152.808 C 132.284 152.444,132.283 151.906,132.226 151.612 C 132.169 151.317,132.124 151.615,132.126 152.273 M131.879 154.904 C 131.881 155.431,131.930 155.618,131.987 155.320 C 132.045 155.023,132.042 154.592,131.983 154.363 C 131.923 154.135,131.876 154.378,131.879 154.904 M110.356 156.818 C 110.357 157.476,110.404 157.717,110.459 157.353 C 110.514 156.990,110.512 156.451,110.455 156.157 C 110.399 155.863,110.354 156.160,110.356 156.818 M131.644 157.656 C 131.644 158.248,131.691 158.490,131.748 158.194 C 131.805 157.898,131.805 157.413,131.748 157.117 C 131.691 156.821,131.644 157.063,131.644 157.656 M38.873 157.181 C 38.723 157.424,39.173 163.780,39.372 164.234 C 39.495 164.517,39.291 160.533,39.080 158.553 L 38.933 157.177 49.457 157.177 L 59.980 157.177 60.120 158.553 C 60.197 159.309,60.398 161.543,60.566 163.517 C 60.735 165.490,60.911 166.855,60.958 166.549 C 61.052 165.934,60.302 157.403,60.129 157.117 C 59.956 156.833,39.050 156.896,38.873 157.181 M110.113 159.569 C 110.113 160.161,110.160 160.404,110.217 160.108 C 110.274 159.812,110.274 159.327,110.217 159.031 C 110.160 158.735,110.113 158.977,110.113 159.569 M131.408 160.646 C 131.410 161.304,131.456 161.545,131.511 161.181 C 131.566 160.817,131.565 160.279,131.508 159.985 C 131.451 159.691,131.406 159.988,131.408 160.646 M109.864 162.440 C 109.864 162.901,109.913 163.089,109.974 162.859 C 110.034 162.629,110.034 162.252,109.974 162.022 C 109.913 161.791,109.864 161.980,109.864 162.440 M130.861 165.670 C 130.692 167.715,130.604 169.440,130.666 169.502 C 130.728 169.564,130.918 167.941,131.086 165.895 C 131.255 163.849,131.343 162.125,131.282 162.063 C 131.220 162.001,131.031 163.625,130.861 165.670 M109.635 165.072 C 109.635 165.664,109.681 165.906,109.738 165.610 C 109.795 165.314,109.795 164.830,109.738 164.533 C 109.681 164.237,109.635 164.480,109.635 165.072 M39.545 165.789 C 39.545 166.513,39.590 166.809,39.645 166.447 C 39.700 166.086,39.700 165.493,39.645 165.132 C 39.590 164.770,39.545 165.066,39.545 165.789 M109.399 167.823 C 109.400 168.481,109.447 168.722,109.502 168.358 C 109.557 167.994,109.555 167.456,109.499 167.162 C 109.442 166.868,109.397 167.165,109.399 167.823 M61.079 168.541 C 61.080 169.330,61.125 169.624,61.178 169.194 C 61.231 168.764,61.230 168.118,61.176 167.759 C 61.121 167.399,61.078 167.751,61.079 168.541 M39.781 168.541 C 39.783 169.199,39.830 169.439,39.885 169.076 C 39.940 168.712,39.938 168.174,39.881 167.879 C 39.825 167.585,39.780 167.883,39.781 168.541 M108.972 171.516 L 108.800 173.919 107.809 174.181 C 105.045 174.912,104.074 175.207,104.158 175.291 C 104.278 175.410,108.103 174.435,108.638 174.149 C 109.035 173.937,109.594 169.562,109.267 169.235 C 109.199 169.167,109.067 170.194,108.972 171.516 M130.279 172.384 C 130.185 173.782,130.159 174.976,130.222 175.038 C 130.284 175.100,130.412 174.009,130.508 172.613 C 130.603 171.217,130.628 170.022,130.565 169.959 C 130.501 169.895,130.372 170.986,130.279 172.384 M61.312 171.172 C 61.314 171.830,61.361 172.071,61.416 171.707 C 61.471 171.344,61.469 170.805,61.412 170.511 C 61.356 170.217,61.311 170.514,61.312 171.172 M40.017 171.292 C 40.017 171.884,40.064 172.126,40.121 171.830 C 40.178 171.534,40.178 171.050,40.121 170.754 C 40.064 170.458,40.017 170.700,40.017 171.292 M40.263 173.923 C 40.263 174.647,40.308 174.943,40.363 174.581 C 40.418 174.219,40.418 173.627,40.363 173.266 C 40.308 172.904,40.263 173.200,40.263 173.923 M61.507 173.488 C 61.483 174.147,61.948 174.370,64.713 175.018 C 66.091 175.342,65.166 174.904,63.516 174.453 C 62.156 174.080,61.823 173.892,61.692 173.422 C 61.532 172.852,61.531 172.853,61.507 173.488 M40.445 175.837 C 40.405 176.834,41.233 185.749,41.337 185.439 C 41.434 185.147,40.708 175.921,40.552 175.478 C 40.506 175.347,40.458 175.508,40.445 175.837 M129.976 176.555 C 129.976 177.279,130.021 177.575,130.076 177.213 C 130.130 176.851,130.130 176.259,130.076 175.897 C 130.021 175.535,129.976 175.831,129.976 176.555 M67.484 175.695 C 67.664 175.871,72.288 177.074,72.390 176.972 C 72.444 176.918,71.419 176.586,70.112 176.236 C 67.753 175.603,67.292 175.508,67.484 175.695 M100.058 176.257 C 98.839 176.594,97.888 176.915,97.944 176.971 C 98.047 177.074,102.669 175.872,102.851 175.695 C 103.060 175.492,102.197 175.665,100.058 176.257 M76.675 178.229 C 77.464 178.486,78.433 178.749,78.828 178.815 C 79.222 178.881,78.900 178.726,78.110 178.469 C 77.321 178.213,76.352 177.949,75.957 177.883 C 75.562 177.817,75.885 177.973,76.675 178.229 M91.907 178.482 C 90.024 179.027,89.578 179.226,90.670 179.034 C 91.718 178.850,94.266 178.037,93.780 178.041 C 93.583 178.043,92.740 178.242,91.907 178.482 M129.730 179.187 C 129.730 179.779,129.777 180.021,129.834 179.725 C 129.891 179.429,129.891 178.944,129.834 178.648 C 129.777 178.352,129.730 178.594,129.730 179.187 M86.179 180.016 C 85.617 180.192,84.917 180.289,84.624 180.233 C 84.093 180.130,84.093 180.131,84.604 180.359 C 84.970 180.522,85.519 180.462,86.518 180.148 C 87.288 179.907,87.757 179.706,87.560 179.703 C 87.362 179.700,86.741 179.841,86.179 180.016 M129.498 182.057 C 129.498 182.781,129.542 183.077,129.597 182.715 C 129.652 182.353,129.652 181.761,129.597 181.400 C 129.542 181.038,129.498 181.334,129.498 182.057 M129.110 185.407 C 128.680 190.478,128.697 190.393,128.018 190.642 C 127.674 190.768,127.560 190.880,127.765 190.890 C 128.695 190.937,128.918 190.382,129.201 187.305 C 129.353 185.652,129.434 184.091,129.380 183.836 C 129.326 183.582,129.205 184.288,129.110 185.407 M41.459 187.081 C 41.459 187.805,41.504 188.101,41.559 187.739 C 41.614 187.377,41.614 186.785,41.559 186.423 C 41.504 186.062,41.459 186.358,41.459 187.081 M41.713 189.694 C 41.733 190.199,41.884 190.550,42.105 190.610 C 42.348 190.675,42.374 190.642,42.187 190.508 C 42.034 190.399,41.857 189.987,41.794 189.593 C 41.689 188.936,41.682 188.944,41.713 189.694 M42.943 190.909 C 43.206 191.022,43.583 191.115,43.780 191.115 C 44.006 191.115,43.962 191.039,43.660 190.909 C 43.397 190.796,43.020 190.703,42.823 190.703 C 42.597 190.703,42.641 190.779,42.943 190.909 M124.282 191.627 C 123.981 191.756,123.936 191.832,124.163 191.832 C 124.360 191.832,124.737 191.740,125.000 191.627 C 125.302 191.497,125.346 191.421,125.120 191.421 C 124.922 191.421,124.545 191.514,124.282 191.627 M46.192 191.717 C 46.385 191.892,50.774 193.085,50.871 192.989 C 50.924 192.935,49.965 192.607,48.740 192.259 C 46.609 191.654,45.974 191.519,46.192 191.717 M121.770 192.350 C 120.894 192.654,120.731 192.758,121.283 192.664 C 122.278 192.495,123.953 191.901,123.445 191.898 C 123.248 191.896,122.494 192.100,121.770 192.350 M52.512 193.541 C 52.775 193.654,53.152 193.746,53.349 193.746 C 53.575 193.746,53.531 193.670,53.230 193.541 C 52.967 193.428,52.590 193.335,52.392 193.335 C 52.166 193.335,52.210 193.411,52.512 193.541 M114.053 194.432 C 112.375 194.905,111.045 195.335,111.099 195.389 C 111.199 195.489,117.501 193.811,117.683 193.636 C 117.923 193.406,116.902 193.630,114.053 194.432 M55.144 194.258 C 55.933 194.514,56.902 194.777,57.297 194.842 C 57.691 194.907,57.422 194.762,56.699 194.520 C 55.975 194.277,55.006 194.015,54.545 193.936 C 54.085 193.857,54.354 194.002,55.144 194.258 M107.596 196.232 C 106.182 196.639,105.069 197.015,105.122 197.068 C 105.224 197.170,110.566 195.734,110.743 195.557 C 110.969 195.331,110.046 195.529,107.596 196.232 M60.785 195.793 C 60.961 195.968,65.364 197.156,65.465 197.055 C 65.518 197.002,64.559 196.674,63.333 196.326 C 61.166 195.711,60.580 195.589,60.785 195.793 M101.435 197.947 C 99.300 198.577,98.641 198.847,99.677 198.668 C 100.673 198.495,104.049 197.416,103.589 197.417 C 103.391 197.417,102.422 197.656,101.435 197.947 M69.019 198.086 C 69.809 198.342,70.778 198.606,71.172 198.672 C 71.567 198.738,71.244 198.582,70.455 198.326 C 69.665 198.069,68.696 197.806,68.301 197.740 C 67.907 197.674,68.230 197.829,69.019 198.086 M94.617 199.889 C 93.674 200.216,93.672 200.218,94.498 200.079 C 95.474 199.915,96.471 199.550,95.933 199.555 C 95.736 199.557,95.144 199.707,94.617 199.889 M75.379 199.853 C 75.565 200.026,79.250 200.974,79.349 200.874 C 79.403 200.820,78.601 200.548,77.566 200.268 C 75.724 199.771,75.179 199.668,75.379 199.853 M92.344 200.478 C 91.869 200.786,92.467 200.786,93.182 200.478 L 93.660 200.273 93.182 200.260 C 92.919 200.252,92.542 200.351,92.344 200.478 M83.720 202.198 C 85.152 202.642,88.725 202.282,88.190 201.746 C 88.130 201.687,87.443 201.817,86.663 202.036 C 85.358 202.402,85.142 202.403,83.966 202.054 C 83.263 201.845,82.573 201.685,82.433 201.697 C 82.292 201.709,82.871 201.935,83.720 202.198 " stroke="none" fill="#f19c78" fill-rule="evenodd"></path><path id="path7" d="M263.636 16.242 C 263.636 30.833,263.675 32.499,264.015 32.630 C 264.223 32.710,270.225 32.750,277.352 32.718 L 290.311 32.662 277.273 32.539 L 264.234 32.416 264.173 16.208 C 264.133 5.680,264.028 -0.000,263.874 -0.000 C 263.719 -0.000,263.636 5.650,263.636 16.242 M290.661 5.383 L 290.550 10.885 282.955 10.948 L 275.359 11.012 275.414 16.570 L 275.469 22.129 275.538 16.687 L 275.607 11.244 283.198 11.216 C 287.373 11.200,290.843 11.191,290.909 11.196 C 290.975 11.201,291.001 9.518,290.967 7.457 C 290.851 0.418,290.772 -0.121,290.661 5.383 M301.242 4.246 C 301.289 8.519,301.376 8.015,301.492 2.811 C 301.527 1.264,301.474 -0.001,301.376 -0.000 C 301.277 -0.000,301.217 1.911,301.242 4.246 M327.751 5.742 C 327.751 9.410,327.838 11.483,327.990 11.483 C 328.143 11.483,328.230 9.410,328.230 5.742 C 328.230 2.073,328.143 0.000,327.990 0.000 C 327.838 0.000,327.751 2.073,327.751 5.742 M337.799 4.560 C 337.799 7.538,337.882 9.068,338.038 8.971 C 338.184 8.881,338.278 7.095,338.278 4.412 C 338.278 1.630,338.189 0.000,338.038 0.000 C 337.887 0.000,337.799 1.679,337.799 4.560 M301.196 8.748 C 301.196 9.071,301.690 9.763,302.007 9.885 C 302.287 9.992,302.277 9.884,301.954 9.317 C 301.597 8.689,301.196 8.388,301.196 8.748 M339.137 10.586 C 339.476 11.211,339.798 11.722,339.853 11.722 C 340.167 11.722,339.856 10.995,339.237 10.278 L 338.521 9.450 339.137 10.586 M302.525 10.526 C 302.627 10.724,302.896 11.154,303.123 11.483 C 303.350 11.812,303.521 12.176,303.502 12.291 C 303.484 12.407,303.718 12.667,304.022 12.869 L 304.576 13.236 304.078 12.420 C 303.548 11.549,302.213 9.922,302.525 10.526 M356.253 11.649 C 356.371 12.039,364.683 22.717,364.787 22.613 C 364.833 22.568,364.704 22.225,364.502 21.851 C 364.300 21.478,364.130 21.274,364.124 21.398 C 364.113 21.670,362.919 20.089,362.919 19.803 C 362.919 19.693,362.542 19.272,362.081 18.867 C 361.621 18.463,361.244 18.006,361.244 17.851 C 361.244 17.697,360.897 17.197,360.473 16.740 C 360.049 16.283,359.695 15.855,359.687 15.789 C 359.653 15.531,358.032 13.397,357.869 13.397 C 357.775 13.397,357.352 12.940,356.931 12.380 C 356.510 11.821,356.205 11.492,356.253 11.649 M320.385 12.965 C 320.709 13.386,321.125 13.780,321.310 13.842 C 321.495 13.904,321.325 13.567,320.931 13.095 C 320.043 12.029,319.577 11.918,320.385 12.965 M340.829 12.919 C 341.071 13.379,341.349 13.792,341.447 13.836 C 341.546 13.880,341.627 14.009,341.627 14.122 C 341.627 14.236,341.896 14.620,342.225 14.975 C 342.554 15.330,342.823 15.742,342.823 15.891 C 342.823 16.173,344.129 17.703,344.370 17.703 C 344.543 17.703,343.792 16.473,343.420 16.148 C 343.270 16.017,342.758 15.317,342.283 14.593 C 341.807 13.870,341.187 13.008,340.904 12.679 L 340.391 12.081 340.829 12.919 M304.694 13.756 C 304.947 14.437,305.791 15.550,306.053 15.550 C 306.299 15.550,305.671 14.514,304.968 13.762 C 304.521 13.283,304.518 13.282,304.694 13.756 M321.535 14.263 C 321.533 14.411,321.966 15.003,322.498 15.579 C 323.111 16.243,323.352 16.408,323.156 16.030 C 322.723 15.195,322.010 14.248,322.006 14.501 C 322.004 14.618,321.898 14.551,321.770 14.354 C 321.643 14.157,321.537 14.116,321.535 14.263 M306.459 16.146 C 306.459 16.460,307.018 17.351,307.332 17.536 C 307.510 17.641,307.656 17.824,307.656 17.942 C 307.656 18.060,307.925 18.448,308.254 18.803 C 308.583 19.157,308.852 19.594,308.852 19.772 C 308.852 19.950,308.959 20.096,309.091 20.096 C 309.222 20.096,309.330 20.233,309.330 20.401 C 309.330 20.570,309.545 20.891,309.809 21.117 C 310.426 21.646,310.397 21.368,309.735 20.423 C 307.973 17.907,307.515 17.275,307.016 16.668 C 306.710 16.296,306.459 16.061,306.459 16.146 M323.563 16.981 C 323.683 17.176,324.443 18.162,325.252 19.172 C 326.061 20.182,326.947 21.315,327.222 21.689 C 327.496 22.063,327.698 22.201,327.669 21.996 C 327.640 21.791,327.324 21.308,326.966 20.922 C 326.609 20.536,326.316 20.067,326.316 19.879 C 326.316 19.691,326.245 19.608,326.159 19.694 C 325.995 19.859,324.522 17.993,324.522 17.620 C 324.522 17.500,324.257 17.228,323.934 17.015 C 323.456 16.699,323.386 16.693,323.563 16.981 M344.689 18.425 C 344.936 18.690,345.290 19.202,345.476 19.561 C 345.661 19.921,345.894 20.276,345.994 20.350 C 346.093 20.424,346.443 20.848,346.771 21.293 C 347.100 21.738,347.368 22.033,347.368 21.948 C 347.368 21.754,345.934 19.604,345.521 19.180 C 345.351 19.005,345.101 18.655,344.966 18.402 C 344.831 18.150,344.612 17.943,344.480 17.943 C 344.348 17.943,344.442 18.160,344.689 18.425 M301.974 21.889 C 301.755 22.137,301.675 23.556,301.675 27.160 C 301.675 30.786,301.754 32.171,301.974 32.391 C 302.213 32.630,302.273 31.574,302.273 27.110 C 302.273 24.042,302.273 21.535,302.273 21.540 C 302.273 21.545,302.138 21.702,301.974 21.889 M290.670 27.273 C 290.604 30.233,290.577 32.700,290.610 32.755 C 290.855 33.164,290.910 31.922,290.854 27.248 L 290.789 21.890 290.670 27.273 M338.801 27.333 C 338.776 30.326,338.837 32.775,338.935 32.775 C 339.034 32.776,339.086 30.919,339.052 28.649 C 338.951 22.009,338.850 21.480,338.801 27.333 M327.751 27.510 L 327.751 32.532 315.251 32.597 L 302.751 32.662 315.431 32.659 L 328.110 32.656 328.175 27.572 C 328.217 24.234,328.155 22.488,327.995 22.488 C 327.837 22.488,327.751 24.256,327.751 27.510 M364.354 32.295 C 364.354 32.447,359.910 32.554,351.854 32.596 L 339.354 32.660 352.093 32.717 C 363.283 32.768,364.833 32.731,364.833 32.416 C 364.833 32.219,364.725 32.057,364.593 32.057 C 364.462 32.057,364.354 32.164,364.354 32.295 " stroke="none" fill="#5c5c5c" fill-rule="evenodd"></path></g></svg>