<svg id="svg" version="1.1" xmlns="http://www.w3.org/2000/svg" xmlns:xlink="http://www.w3.org/1999/xlink" width="400" height="400" viewBox="0, 0, 400,400"><g id="svgg"><path id="path0" d="M100.480 175.680 C 99.813 176.347,99.792 209.105,100.458 210.567 L 100.915 211.572 125.838 211.686 C 145.633 211.776,150.867 211.907,151.280 212.320 C 151.702 212.742,151.838 228.069,152.000 293.452 C 152.197 372.668,152.213 374.074,152.976 374.632 C 153.949 375.343,191.515 375.488,192.826 374.786 C 193.587 374.379,193.600 373.052,193.600 294.030 C 193.600 215.527,193.617 213.667,194.365 212.744 L 195.129 211.800 219.865 211.704 C 244.525 211.608,244.602 211.605,245.300 210.760 C 246.188 209.684,246.396 176.556,245.520 175.680 C 244.822 174.982,101.178 174.982,100.480 175.680 M308.400 175.598 C 290.981 178.418,282.733 181.163,273.157 187.325 C 253.081 200.245,245.094 225.693,253.048 251.400 C 254.739 256.866,258.206 262.918,262.400 267.727 C 265.210 270.950,268.743 274.267,271.800 276.555 C 274.279 278.409,275.455 279.232,279.630 282.030 C 281.594 283.347,288.232 286.693,294.200 289.375 C 323.648 302.611,331.388 309.235,331.383 321.200 C 331.379 331.877,323.623 338.297,308.400 340.224 C 300.957 341.166,288.791 340.367,283.800 338.609 C 282.920 338.299,281.210 337.775,280.000 337.445 C 272.664 335.445,265.446 331.855,257.000 326.006 C 255.680 325.092,254.213 323.982,253.739 323.539 C 253.243 323.075,252.480 322.790,251.939 322.867 L 251.000 323.000 250.896 343.261 L 250.793 363.523 252.096 364.625 C 252.813 365.231,254.210 366.065,255.200 366.478 C 256.190 366.891,257.540 367.484,258.200 367.796 C 261.292 369.254,273.022 372.437,277.400 373.006 C 278.500 373.149,281.650 373.646,284.400 374.111 C 290.288 375.106,312.898 375.369,317.400 374.494 C 318.720 374.238,321.690 373.738,324.000 373.384 C 349.404 369.488,369.106 354.129,372.981 335.200 C 373.138 334.430,373.650 332.270,374.117 330.400 C 375.263 325.819,375.403 309.576,374.329 306.000 C 373.965 304.790,373.452 302.727,373.188 301.416 C 372.452 297.758,369.571 290.944,367.451 287.849 C 359.834 276.727,352.107 270.541,334.883 261.773 C 331.298 259.949,327.845 258.342,327.210 258.202 C 326.575 258.063,325.841 257.690,325.579 257.374 C 325.317 257.058,324.899 256.799,324.651 256.799 C 324.168 256.797,314.864 252.389,313.200 251.373 C 312.650 251.037,311.455 250.426,310.544 250.014 C 309.633 249.603,308.785 249.099,308.658 248.894 C 308.532 248.689,307.226 247.819,305.758 246.961 C 302.063 244.801,297.301 240.053,295.368 236.600 L 293.800 233.800 293.800 229.000 C 293.800 221.473,298.761 214.808,306.000 212.608 C 306.550 212.441,307.720 211.984,308.600 211.592 C 314.406 209.007,333.108 208.936,341.000 211.470 C 342.100 211.823,343.990 212.347,345.200 212.633 C 350.101 213.795,354.476 215.613,361.337 219.341 C 367.515 222.699,366.977 224.270,367.106 202.486 C 367.232 181.234,367.457 182.422,363.000 180.894 C 356.037 178.506,350.477 177.327,338.000 175.588 C 334.954 175.164,311.033 175.172,308.400 175.598 " stroke="none" fill="#f7f9fb" fill-rule="evenodd"></path><path id="path1" d="M0.000 200.000 L 0.000 400.000 200.000 400.000 L 400.000 400.000 400.000 200.000 L 400.000 0.000 200.000 0.000 L 0.000 0.000 0.000 200.000 M245.520 175.680 C 246.396 176.556,246.188 209.684,245.300 210.760 C 244.602 211.605,244.525 211.608,219.865 211.704 L 195.129 211.800 194.365 212.744 C 193.617 213.667,193.600 215.527,193.600 294.030 C 193.600 373.052,193.587 374.379,192.826 374.786 C 191.515 375.488,153.949 375.343,152.976 374.632 C 152.213 374.074,152.197 372.668,152.000 293.452 C 151.838 228.069,151.702 212.742,151.280 212.320 C 150.867 211.907,145.633 211.776,125.838 211.686 L 100.915 211.572 100.458 210.567 C 99.792 209.105,99.813 176.347,100.480 175.680 C 101.178 174.982,244.822 174.982,245.520 175.680 M338.000 175.588 C 350.477 177.327,356.037 178.506,363.000 180.894 C 367.457 182.422,367.232 181.234,367.106 202.486 C 366.977 224.270,367.515 222.699,361.337 219.341 C 354.476 215.613,350.101 213.795,345.200 212.633 C 343.990 212.347,342.100 211.823,341.000 211.470 C 333.108 208.936,314.406 209.007,308.600 211.592 C 307.720 211.984,306.550 212.441,306.000 212.608 C 298.761 214.808,293.800 221.473,293.800 229.000 L 293.800 233.800 295.368 236.600 C 297.301 240.053,302.063 244.801,305.758 246.961 C 307.226 247.819,308.532 248.689,308.658 248.894 C 308.785 249.099,309.633 249.603,310.544 250.014 C 311.455 250.426,312.650 251.037,313.200 251.373 C 314.864 252.389,324.168 256.797,324.651 256.799 C 324.899 256.799,325.317 257.058,325.579 257.374 C 325.841 257.690,326.575 258.063,327.210 258.202 C 327.845 258.342,331.298 259.949,334.883 261.773 C 352.107 270.541,359.834 276.727,367.451 287.849 C 369.571 290.944,372.452 297.758,373.188 301.416 C 373.452 302.727,373.965 304.790,374.329 306.000 C 375.403 309.576,375.263 325.819,374.117 330.400 C 373.650 332.270,373.138 334.430,372.981 335.200 C 369.106 354.129,349.404 369.488,324.000 373.384 C 321.690 373.738,318.720 374.238,317.400 374.494 C 312.898 375.369,290.288 375.106,284.400 374.111 C 281.650 373.646,278.500 373.149,277.400 373.006 C 273.022 372.437,261.292 369.254,258.200 367.796 C 257.540 367.484,256.190 366.891,255.200 366.478 C 254.210 366.065,252.813 365.231,252.096 364.625 L 250.793 363.523 250.896 343.261 L 251.000 323.000 251.939 322.867 C 252.480 322.790,253.243 323.075,253.739 323.539 C 254.213 323.982,255.680 325.092,257.000 326.006 C 265.446 331.855,272.664 335.445,280.000 337.445 C 281.210 337.775,282.920 338.299,283.800 338.609 C 288.791 340.367,300.957 341.166,308.400 340.224 C 323.623 338.297,331.379 331.877,331.383 321.200 C 331.388 309.235,323.648 302.611,294.200 289.375 C 288.232 286.693,281.594 283.347,279.630 282.030 C 279.063 281.650,277.700 280.735,276.600 279.995 C 266.466 273.180,260.092 266.346,255.425 257.292 C 248.175 243.226,248.354 219.826,255.815 206.400 C 258.390 201.766,259.027 200.828,261.919 197.414 C 266.801 191.650,271.681 187.834,279.157 183.931 C 286.897 179.890,293.487 178.013,308.400 175.598 C 311.033 175.172,334.954 175.164,338.000 175.588 " stroke="none" fill="#0474c4" fill-rule="evenodd"></path></g></svg>