<svg xmlns="http://www.w3.org/2000/svg" viewBox="0 0 400 390.90909091">
                <g fill-rule="evenodd">
                    <path d="M105.624 54.001c-12.122 1.832-9.808 20.236 2.386 18.972 6.036-.626 8.527-3.608 8.618-10.316.094-6.891-3.576-9.779-11.004-8.656m8.432 5.695c3.798 4.979-2.264 13.34-7.671 10.582-1.352-.69-1.361-1.09-.068-3.045.633-.957 1.426-2.931 1.763-4.387 1.151-4.973 3.601-6.265 5.976-3.15m-80.72 16.457c.108 1.427 1.655 2.094 1.756.755.051-.671-.012-.726-.304-.266-.356.564-.422.505-.526-.461-.084-.784-.985-.812-.926-.028m332.756 15.015c-.807.808-.817.901-.211 2.053.483.918.702 2.939.915 8.441.374 9.695.354 147.282-.023 156.207-.341 8.088-.284 8.266 2.728 8.469l1.76.118.099-87.676.098-87.675h-1.346c-.741 0-1.455-.176-1.588-.391-.403-.653-1.537-.44-2.432.454m-21.939.342c-1.145.164-70.911.284-155.034.266-132.55-.028-152.951.042-152.951.528 0 .308-.176.686-.391.839-.675.481-.527 170.731.148 171.148 2.496 1.543 3.279 1.557 91.451 1.659l84.56.098.875-.876c.81-.812.861-1.142.691-4.481-.594-11.637-.235-25.449.708-27.26 1.763-3.386 2.158-3.593 8.953-4.694 4.323-.7 5.021-1.525 5.384-6.358.467-6.227-1.635-8.706-8.537-10.071-6.512-1.288-7.021-2.728-6.84-19.346l.124-11.339 1.119-2.129c1.208-2.298 2.443-3.488 4.33-4.17.855-.309 18.761-.445 62.586-.476 60.738-.042 66.593.063 68.231 1.231.323.23-.068-.207-.868-.971-2.057-1.965-2.328-2.91-1.617-5.634.367-1.404.486-2.793.314-3.659-.469-2.36-.262-64.953.222-67.125.922-4.142 2.611-5.394 8.026-5.948l3.503-.359-2.552-.053c-2.261-.046-8.177-.647-9.765-.991-.323-.07-1.524.007-2.67.171M33.035 172.825c0 33.871.046 47.727.103 30.792.056-16.936.056-44.648 0-61.584-.057-16.935-.103-3.079-.103 30.792m43.309-59.047c.376.003 1.388.709 2.248 1.569 2.971 2.971 2.205 5.002-4.291 11.372-6.213 6.093-6.228 7.055-.208 13.154 2.045 2.071 3.717 3.896 3.717 4.054 0 .159.66.809 1.467 1.445 3.123 2.462 5.083.535 7.969-7.838.833-2.415 1.763-4.92 2.066-5.567 1.395-2.967 3.492-8.372 3.989-10.28 1.697-6.518 7.4-9.706 11.274-6.304 1.608 1.412 2.471 1.301 4.441-.568 3.414-3.241 6.952-1.614 15.761 7.248 10.217 10.278 10.484 12.416 2.526 20.186-2.05 2.001-4.386 4.443-5.193 5.427-6.349 7.749-13.727 8.222-13.538.868.074-2.895.725-3.842 5.728-8.344 5.33-4.796 6.105-8.519 2.293-11.016-.567-.372-2.605-2.23-4.527-4.129-4.126-4.075-5.804-4.61-6.851-2.181-.79 1.833-3.086 6.578-3.737 7.722-.306.538-1.081 2.676-1.723 4.752-.642 2.076-1.545 4.54-2.008 5.474-.463.935-1.097 2.492-1.408 3.46-2.73 8.477-5.692 10.489-11.102 7.542l-2.152-1.173-1.478.935c-2.497 1.581-6.116 2.343-8.067 1.699-2.286-.754-6.808-4.607-10.273-8.752-1.054-1.26-2.8-2.99-3.881-3.845-6.391-5.051-5.942-8.423 2.237-16.818 7.653-7.854 11.376-10.744 13.255-10.288.43.105 1.09.193 1.466.196m89.408 13.657c5.096 1.55 5.177 8.815.114 10.178-3.498.942-16.947.887-18.652-.076-3.571-2.017-4.133-7.418-.987-9.482 1.933-1.268 15.931-1.712 19.525-.62m63.183-.411c62.827-.221 61.43-.276 64.037 2.515 1.451 1.553 1.41 4.72-.081 6.307-2.449 2.607-1.327 2.524-35.244 2.596-16.867.036-31.987.076-33.6.089-14.461.113-38.126-.323-39.739-.733-5.3-1.346-5.585-9.015-.384-10.35.885-.227 1.785-.473 2-.547.215-.074 6.109-.062 13.098.025 6.99.087 20.45.131 29.913.098m-44.611 22.325c4.074 1.747 4.496 7.559.729 10.051-1.368.905-33.491 1.072-37.078.192-6.169-1.512-6.394-8.272-.347-10.426 2.748-.979 34.353-.821 36.696.183m31.802.029c3.934 1.117 4.322 8.258.529 9.716-.974.375-13.553 1.414-15.779 1.303-4.988-.247-6.171-8.518-1.577-11.023 1.705-.93 13.549-.927 16.827.004m58.739.292c2.851 1.418 3.619 3.918 2.104 6.848-1.718 3.321-3.281 3.762-12.648 3.562-4.194-.089-9.121-.126-10.949-.082-23.269.554-26.818-.166-26.948-5.472-.131-5.373 2.199-5.883 26.948-5.903l19.355-.015 2.138 1.062M93.766 172.423c5.608 1.03 8.6 6.491 5.018 9.164-2.582 1.927-1.806 1.88-27.816 1.667l-8.211-.067-1.871-1.12c-4.654-2.788-2.992-8.414 2.848-9.643 1.597-.336 28.202-.337 30.032-.001m81.337.946c3.378 2.132 3.96 5.313 1.434 7.839-2.077 2.077-2.841 2.158-20.143 2.139-8.705-.01-21.313.01-28.018.044-15.188.079-16.844-.27-18.34-3.857-.803-1.926.989-5.374 3.356-6.457 1.195-.547 17.694-.856 42.443-.795l17.614.043 1.654 1.044m-51.154 19.902c16.134.121 17.471.587 17.359 6.056-.091 4.454-1.498 4.968-13.644 4.994-5.162.01-14.608.064-20.993.118-14.413.122-16.935-.681-16.935-5.395 0-4.799 4.423-6.338 17.204-5.986 2.366.065 10.02.161 17.009.213m72.727.598c5.143 2.506 5.225 8.02.155 10.425-1.548.735-15.494.251-18.418-.639-3.761-1.144-3.532-8.133.319-9.732 3.652-1.516 14.873-1.55 17.944-.054m-119.061.026c4.407 1.681 4.323 8.811-.12 10.142-1.795.538-12.072.606-14.275.095-6.725-1.561-6.884-9.178-.221-10.575 2.281-.479 13.133-.227 14.616.338m88.148.528c4.516 2.243 3.774 7.989-1.223 9.473-9.058 2.69-16.95-3.051-11.813-8.593 2.205-2.38 9.083-2.844 13.036-.88m184.188 17.269c-.538.285-2.005.633-3.262.774-5.299.596-7.467 3.664-7.066 10l.262 4.146 1.917 1.07c1.453.811 8.149 2.831 8.149 2.458 0-.035-.684-.819-1.519-1.743-1.635-1.806-1.788-2.35-2.227-7.936l-.266-3.391 2.104-2.267c1.157-1.247 2.324-2.505 2.592-2.795.89-.962.702-1.049-.684-.316m-259.916 3.07c4.494 2.944 3.349 8.899-1.925 10.01-3.333.702-25.218.641-26.587-.075-2.645-1.381-3.503-3.096-3.32-6.635.068-1.3 2.036-3.263 3.772-3.761 2.431-.697 26.906-.295 28.06.461m46.817-.463c5.733.929 6.979 7.755 1.828 10.011-2.048.896-32.897 1.299-35.554.463-4.003-1.258-5.074-7.218-1.674-9.319 2.377-1.47 28.255-2.314 35.4-1.155m62.561.26c4.011 1.692 4.244 7.432.391 9.67-1.945 1.131-42.691 1.476-45.545.386-5.322-2.032-5.568-8.3-.398-10.155 1.945-.698 43.88-.607 45.552.099M33.685 244.251c-.715.773-.368 1.027.518.379.393-.287.556-.619.363-.737-.194-.117-.591.043-.881.358m349.954 3.694c-.606.971-.125 1.138 2.114.734 1.908-.344 1.911-.347.279-.262-1.072.056-1.518-.047-1.271-.294.533-.534.474-.876-.152-.876-.294 0-.73.314-.97.698m4.045-.439c-.133.216-.046.392.195.392.24 0 .351.14.245.31-.105.171.149.336.564.367.974.073.972-.533-.003-1.055-.505-.27-.84-.274-1.001-.014m-6.115 2.608c-.238.287-.347.521-.242.521.105 0 .059.718-.101 1.596-.161.877-.15 1.449.022 1.271.173-.179.372-.853.442-1.498.088-.802.314-1.132.715-1.043.322.072.456 0 .296-.159-.159-.16-.118-.497.092-.75.263-.317.2-.459-.205-.459-.323 0-.781.234-1.019.521" fill="#f3d36f"/>
                    <path d="M147.018 57.869c-.85.922-1.619 1.958-1.708 2.304-.09.346-.383 1.474-.652 2.507-.333 1.277-.964 2.327-1.974 3.284-2.952 2.797-2.972 4.518-.062 5.142 7.391 1.585 13.506-8.13 8.183-12.998-2.261-2.068-2.107-2.058-3.787-.239m88.759 120.392c-20.345.333-19.159-.688-19.159 16.507v11.139l1.271 1.188c1.629 1.523 2.927 2.011 6.569 2.467 3.41.427 5.784 1.358 7.996 3.136 2.466 1.982 2.711 2.051 4.981 1.391 2.023-.587 5.995-.702 19.848-.574 2.688.025 17.82-.034 33.626-.132 31.467-.194 30.268-.274 31.499 2.106 1.034 1.999.79 10.491-.352 12.233-.823 1.255 2.676 1.127-28.996 1.059-14.839-.032-34.057-.062-42.707-.067l-15.727-.008-2.259 1.025c-1.243.565-2.611 1.187-3.041 1.383-.431.196-2.278.521-4.106.722-4.729.52-6.681 1.443-7.923 3.746-.602 1.116-1.102 18.229-.61 20.903 1.023 5.572 3.96 8.195 9.231 8.244 1.014.009 2.547.284 3.408.611 3.549 1.35 5.666 1.687 11.886 1.892 3.57.117 8.168.318 10.217.447 2.865.179 4.244.082 5.966-.419 1.953-.567 4.185-.636 17.389-.537 8.331.062 16.731.104 18.667.091 1.935-.012 5.366-.028 7.624-.036 2.258-.008 7.212-.061 11.008-.118 8.935-.135 9.636.183 10.51 4.772.44 2.31.024 9.503-.6 10.356-.361.494-1.532.717-5.121.972-2.559.183-4.902.425-5.206.538-.304.114-1.887-.09-3.517-.453-2.796-.622-3.241-.62-7.854.03-4.434.626-5.271.638-8.995.128-2.744-.375-5.596-.483-8.602-.324-2.473.131-5.878.075-7.565-.123-2.197-.258-3.812-.22-5.682.133-1.891.357-3.517.392-5.878.127-1.963-.22-4.218-.226-5.657-.015-1.316.193-4.768.235-7.672.093-2.903-.142-6.246-.207-7.429-.145-1.183.062-2.942.084-3.91.048-9.073-.329-9.333-.317-9.881.432-.401.548-1.318.805-3.738 1.049-8.684.875-9.454 1.758-10.275 11.777-1.045 12.755 1.337 20.786 6.582 22.196 1.004.27 3.536.377 6.452.273 2.64-.095 8.375-.027 12.744.149 7.674.31 8.007.292 9.775-.525l1.831-.846h46.921c54.997 0 50.204.462 50.982-4.918.2-1.381.571-3.039.824-3.684.447-1.139.257-17.218-.234-19.795-.351-1.842-1.839-2.808-4.815-3.126-6.842-.732-7.606-1.761-7.753-10.442-.156-9.178.467-10.233 7.33-12.421 4.027-1.284 4.459-3.481 3.919-19.927-.304-9.253-1.026-10.35-7.438-11.299-5.373-.794-6.647-2.725-6.647-10.069 0-7.968 1.776-11.65 5.621-11.65 5.629 0 8.449-2.829 8.481-8.508.103-18.311.028-19.484-1.324-20.746-1.828-1.706-6.648-2.938-10.325-2.64-3.435.279-71.038.359-81.828.097-3.333-.081-12.482-.042-20.332.087m22.434 10.936c3.016 1.367 3.954 2.647 3.957 5.395.004 4.519-2.191 5.212-16.491 5.212-14.075 0-16.742-.808-16.742-5.076 0-5.31 3.251-6.547 17.339-6.595l9.52-.032 2.417 1.096m75.979-.038c5.43 2.859 5.036 8.331-.721 10.041-3.013.894-30.793.864-33.893-.037-5.882-1.71-6.231-8.198-.554-10.307 2.92-1.084 33.026-.825 35.168.303m-50.054.325c5.634 4.201 2.749 9.915-5.153 10.202-7.293.266-11.249-3.705-8.251-8.282 1.866-2.847 10.501-4.084 13.404-1.92m-25.832 53.173c2.648 1.253 4.039 3.164 4.15 5.7.195 4.501-1.336 4.964-16.902 5.104l-11.925.107-1.63-.968c-2.864-1.7-3.76-4.991-2.101-7.713 1.476-2.42 2.382-2.635 12.137-2.874 4.839-.119 9.996-.251 11.461-.294 2.161-.062 3.069.115 4.81.938m51.373-.674c23.998-.712 27.987.146 28.245 6.073.221 5.085-1.461 5.502-22.184 5.508l-16.813.004-1.459-.978c-5.431-3.64-1.691-11.358 5.173-10.676 1.183.118 4.35.148 7.038.069M283 242.63c4.126 1.651 4.917 7.814 1.293 10.068-3.159 1.964-12.76.649-13.722-1.881-1.017-2.675-.047-6.007 2.171-7.461 2.037-1.335 7.73-1.738 10.258-.726m-27.608 53.371c5.163.707 6.669 1.973 6.722 5.651.035 2.416-.978 4.06-3.162 5.136-1.616.796-21.939 1.209-25.325.515-4.727-.97-6.135-7.078-2.305-10.002 1.456-1.111 1.471-1.114 8.724-1.309 3.996-.107 8.361-.248 9.699-.313 1.338-.065 3.879.08 5.647.322m72.107-.066c7.845.081 11.201 2.543 9.898 7.261-1.176 4.259-2.066 4.437-21.854 4.371-19.836-.067-20.899-.358-20.431-5.597.576-6.44.183-6.367 32.387-6.035m-43.931.495c4.68 2.505 3.632 10.168-1.523 11.135-2.288.429-7.37-.122-9.056-.982-3.466-1.768-3.534-8.143-.108-10.006 1.268-.688 9.464-.801 10.687-.147" fill="#1a9ef3"/>
                    <path d="M149.165 22.461c-.105.335-.273.869-.372 1.188-.099.319-.407.497-.684.395-1.015-.372-1.535.436-1.409 2.192.139 1.948 2.03 2.734 5.163 2.146l1.444-.271-.114-3.01-.114-3.009-1.861-.119c-1.414-.091-1.907.026-2.053.488M44.698 31.398c-.144.232-.047.273.236.098.352-.218.343-.077-.033.526-.283.452-.916.823-1.408.823-.679 0-.949.28-1.127 1.173-.225 1.124-.378 1.243-1.701 1.33-.324.022-.607.438-.632.931-.056 1.122-.361 1.427-1.442 1.441-.718.01-.853.226-.821 1.313.032 1.081-.084 1.269-.685 1.112-.397-.104-.624-.03-.503.165.12.195-.145.355-.59.355-.754 0-.799.185-.671 2.77.107 2.142-.002 2.911-.481 3.39-.46.46-.494.661-.132.782.268.089.383.332.255.539-.331.536-1.389-.422-1.079-.976.137-.246.009-.222-.288.054-.699.65-1.051 13.135-.421 14.941.241.69.262 1.107.049.975-.23-.141-.353 2.224-.324 6.191.042 5.614.126 6.414.671 6.374.343-.025.649.175.682.444.12 1.008.177 1.061.535.493.292-.46.355-.405.304.266-.035.467-.203.762-.374.657-.17-.106-.309-.024-.309.18 0 .205.275.478.611.607.667.256.409 1.026-.341 1.016-.28-.003-.232-.157.121-.385.476-.308.426-.38-.271-.385-.985-.007-1.537.613-.807.908.39.157.391.204.002.229-.268.017-.488.217-.488.444 0 .228.174.307.386.176.222-.137.287.02.154.368-.128.333-.351.606-.495.606-.144 0-.257 35.279-.252 78.397.007 49.245.149 78.397.383 78.397.204 0 .16.211-.098.469-.568.569-.623 1.877-.078 1.877.215 0 .388.308.385.684-.006.585-.061.599-.385.098-.289-.447-.381-.291-.385.653-.009 1.812.36 2.592.982 2.075.354-.294.583-.296.761-.007.14.227-.019.518-.354.647-.335.128-.488.435-.341.681.148.246-.029.206-.393-.089-.818-.663-1.002 2.972-.192 3.782.365.365.365.469 0 .469-.338 0-.469 1.265-.469 4.52 0 3.187.126 4.441.43 4.254.305-.189.315-.052.034.473-.532.994-.55 36.892-.019 36.892.211 0 .257.203.104.452-.167.269-.108.345.145.189.234-.145.542-.072.687.161.144.234.517.327.829.207.317-.122.462-.047.328.169-.131.212-.031.386.223.386.315 0 .339.156.077.489-.442.56-.506 3.03-.078 3.03.156 0 .395.289.53.642.216.561.162.573-.424.098-.504-.409-.594-.417-.362-.031.17.282.756.683 1.302.89.547.208.896.476.776.596-.487.487.595 2.497 1.344 2.497.48 0 .663-.168.488-.451-.178-.289-.107-.345.198-.156.263.162.378.395.255.517-.122.122.086.575.463 1.006.377.43.465.654.196.497-.661-.387-.619.077.07.766.307.307 1.231.57 2.053.585 1.372.024 1.421.061.603.456-2.256 1.087-.037 1.758 5.577 1.687 5.493-.07 6.626-2.51 1.202-2.59-3.024-.044-3.863-.282-4.729-1.342-.439-.536-1.077-.975-1.419-.975-.342 0-.841-.528-1.108-1.173-.296-.714-.773-1.173-1.221-1.173-.404 0-.748-.132-.764-.293-.129-1.262-.44-1.897-1.276-2.604-.531-.45-1.172-1.477-1.424-2.284-.291-.929-.699-1.466-1.115-1.466-.809 0-1.108-2.706-.907-8.211.229-6.287.214-8.071-.163-18.573-.428-11.948-.497-173.08-.077-179.667.328-5.144.563-6.257 1.323-6.257.297 0 .541-.175.541-.391 0-.215-.22-.393-.489-.397-.324-.004-.292-.13.098-.376.894-.566.826-7.916-.092-9.83-.785-1.637-.842-5.126-.109-6.601.326-.657.512-3.446.566-8.515.045-4.146.144-7.929.22-8.407.076-.478.238-1.648.361-2.599.123-.952.49-2.096.816-2.542.325-.446 1.032-1.471 1.57-2.277s1.138-1.466 1.332-1.466c.194 0 .5-.427.679-.948.407-1.183 3.087-3.344 4.192-3.381 2.396-.081 4.146-.495 5.863-1.388 1.995-1.036 3.673-1.133 15.882-.913 1.613.029 11.203.046 21.31.038 16.9-.013 18.487.042 19.746.685 1.672.855 3.595.823 5.67-.093 1.231-.544 2.643-.691 6.647-.692 2.795-.002 10.537-.024 17.204-.051 49.351-.198 218.789-.04 219.664.205.6.167.987.474.859.68-.128.207.391.674 1.153 1.037.762.363 1.484.972 1.605 1.352.121.38.518.788.884.906.365.118.964.743 1.33 1.389.366.645.926 1.174 1.244 1.174.318 0 .697.396.842.879.145.484.621 1.163 1.058 1.509 1.28 1.013 1.42 3.319 1.45 23.809.03 19.724.108 21.314 1.037 20.957.289-.11.694.1.901.467.245.434.385-7.695.4-23.235.02-20.761-.053-23.966-.562-24.388-.321-.267-.585-.354-.585-.194 0 .16-.253.081-.563-.176-.31-.257-.467-.719-.349-1.025.118-.307.009-.558-.242-.558s-.354-.165-.229-.367c.126-.205-.19-.291-.717-.195-.984.178-1.66-.687-1.164-1.489.152-.245.072-.302-.194-.137-.27.166-.452.026-.452-.348 0-.366-.265-.579-.639-.512-.398.072-.879-.37-1.271-1.169-.49-.997-.83-1.249-1.52-1.127-.489.085-1-.024-1.136-.243-.141-.229-.054-.28.205-.12.588.363.558-.192-.05-.94-.586-.722-316.819-.995-317.264-.274M33.525 57.951c-.076 1.353-.139.348-.14-2.233-.001-2.58.062-3.687.139-2.459.077 1.228.078 3.34.001 4.692m106.984-3.523c-6.27 3.478-7.766 11.583-2.802 15.179 1.887 1.367 2.664 1.473 2.664.364 0-1.169.926-2.739 2.455-4.162.881-.82 1.51-1.895 1.831-3.128.27-1.034.563-2.162.653-2.508.089-.346.862-1.387 1.717-2.313 1.698-1.84 1.924-2.617.871-3.005-.376-.139-.777-.388-.89-.554-.584-.854-4.882-.77-6.499.127M33.518 86.51c-.086.699-.157.127-.157-1.271 0-1.397.071-1.969.157-1.27.087.699.087 1.842 0 2.541m187.806 91.408c-4.402 1.61-6.254 5.047-5.464 10.138.311 2.007.316 3.908.016 6.78-.939 9.008.882 14.549 4.705 14.321.293-.018.054-.245-.533-.505-.586-.26-1.598-.982-2.248-1.605l-1.182-1.133v-11.142c0-13.337.138-13.908 3.766-15.569l2.085-.955 32.167-.036c23.784-.026 31.403-.14 29.235-.437-3.404-.466-5.482-.487-30.89-.307-10.43.074-21.339.029-24.242-.099-4.669-.206-5.525-.143-7.415.549m74.277-.385c-7.319.562-7.224.635.978.756 12.421.182 39.913-.052 42.147-.359 1.414-.195.006-.305-4.611-.363-3.656-.045-8.494-.119-10.752-.164-2.258-.045-6.217-.013-8.798.07-2.581.084-6.891.054-9.58-.066-2.688-.12-6.911-.063-9.384.126m-60.938 11.126c-6.937 1.637-8.044 8.222-1.747 10.388 3.1 1.067 22.102 1.142 25.406.1 5.495-1.732 5.431-7.437-.111-9.95l-2.417-1.096-9.52.032c-6.19.021-10.251.205-11.611.526m64.359.197c-5.677 2.109-5.328 8.597.554 10.307 3.1.901 30.88.931 33.893.037 5.757-1.71 6.151-7.182.721-10.041-2.142-1.128-32.248-1.387-35.168-.303m-23.996-.047c-5.985 1.048-7.033 8.328-1.485 10.316 6.017 2.157 13.123-.18 13.186-4.336.076-5.038-4.302-7.275-11.701-5.98m4.316 4.977c.858.329.774 1.216-.163 1.717-.824.441-2.346-.062-2.346-.776 0-.761 1.507-1.326 2.509-.941m-55.882 16.136c5.359 1.556 6.288 3.086 6.735 11.09.396 7.094-.671 8.721-6.727 10.257-6.194 1.571-7.737 3.761-7.633 10.832.024 1.576-.08 5.25-.231 8.166-.349 6.773 1.727 13.272 4.238 13.272.237 0 .068-.396-.375-.88-1.239-1.352-2.346-3.811-2.78-6.171-.492-2.677.008-19.789.61-20.906 1.242-2.303 3.194-3.226 7.923-3.746 1.828-.201 3.675-.526 4.106-.722.43-.196 1.798-.818 3.041-1.383l2.259-1.025 15.727.008c8.65.005 27.868.035 42.707.067 31.672.068 28.173.196 28.996-1.059 1.142-1.742 1.386-10.234.352-12.233-1.231-2.38-.032-2.3-31.499-2.106-15.806.098-30.938.157-33.626.132-13.876-.128-17.824-.014-19.857.577-2.283.663-2.191.69-5.027-1.457-2.417-1.828-5.313-2.88-8.743-3.176l-2.542-.219 2.346.682m115.055 1.199c-2.486 1.577-3.031 3.464-3.031 10.5 0 7.271 1.251 9.218 6.451 10.046 1.959.312.86-.686-1.265-1.148-2.617-.57-3.036-1.866-3.036-9.405 0-7.865.391-9.173 3.096-10.377 1.391-.62 1.468-.715.598-.739-.55-.015-1.815.49-2.813 1.123m-96.482 30.892c-9.755.239-10.661.454-12.137 2.874-1.659 2.722-.763 6.013 2.101 7.713l1.63.968 11.925-.107c15.566-.14 17.097-.603 16.902-5.104-.175-4.01-3.919-6.784-8.96-6.638-1.465.043-6.622.175-11.461.294m57.69-.102c-4.979 1.37-6.364 7.926-2.257 10.679l1.459.978 16.813-.004c20.723-.006 22.405-.423 22.184-5.508-.258-5.927-4.247-6.785-28.245-6.073-2.688.079-5.855.049-7.038-.069-1.182-.117-2.495-.119-2.916-.003m-24.518.491c-3.913.762-6.06 4.662-4.634 8.415 1.421 3.735 13.878 3.739 15.579.005 2.601-5.709-2.947-9.978-10.945-8.42m96.252 5.301c0 5.286.049 5.669.734 5.669 1.411 0 1.65-.899 1.588-5.989-.062-5.126-.132-5.31-2.029-5.344-.162-.003-.293 2.546-.293 5.664m12.155-.432c-.249.3-.403.773-.341 1.052.061.278-.228.58-.643.67-1.26.272-1.787 1.114-1.787 2.853 0 2.006.316 1.883.455-.178.098-1.454.413-1.912 1.424-2.065.368-.056.396.06.101.415-.225.272-.279.624-.12.784.16.159.03.231-.287.159-.368-.083-.622.224-.701.847-.067.538-.321 1.374-.563 1.857-.243.484-.323.997-.18 1.141.144.143.262.056.262-.195s.308-.454.684-.451c.541.005.572.078.145.348-.296.187-.418.537-.27.776.343.554 2.178.571 2.178.02 0-.227-.147-.323-.326-.212-.179.11-.326-.082-.326-.428 0-.497.143-.452.682.213.776.958 3.875 1.239 3.886.353.004-.34.114-.317.361.072.294.466.461.474.972.05.737-.612.81-2.396.127-3.132-.391-.421-.391-.471 0-.25.576.325.67-.394.098-.748-.215-.133-.388-.451-.385-.707.003-.28.157-.232.385.12.287.445.38.28.385-.684.006-1.208-.408-1.529-1.685-1.307-.177.031-.211-.125-.075-.345.137-.22.051-.401-.189-.401-.241 0-.328-.176-.195-.392.161-.26.496-.256 1.001.014.435.233.758.251.758.043 0-.962-5.065-1.215-5.831-.292m1.53.223c0 .136-.172.419-.381.629-.247.247.199.327 1.271.229 2.191-.201 1.755.153-.561.456-1.581.207-1.803.15-1.691-.433.071-.37.142-.775.159-.9.041-.311 1.203-.292 1.203.019m-159.825 17.498c3.499.53 4.661 3.65 4.333 11.626l-.243 5.884 3.869.116c2.128.064 4.661.144 5.629.179.968.036 2.727.014 3.91-.048 1.183-.062 4.526.003 7.429.145 2.904.142 6.356.1 7.672-.093 1.439-.211 3.694-.205 5.657.015 2.361.265 3.987.23 5.878-.127 1.87-.353 3.485-.391 5.682-.133 1.687.198 5.092.254 7.565.123 3.006-.159 5.858-.051 8.602.324 3.724.51 4.561.498 8.995-.128 4.613-.65 5.058-.652 7.854-.03 1.63.363 3.213.567 3.517.453.304-.113 2.647-.355 5.206-.538 5.627-.401 5.509-.288 5.83-5.554.593-9.742-.372-10.701-10.619-10.546-3.796.057-8.75.11-11.008.118-2.258.008-5.689.024-7.624.036-1.936.013-10.336-.029-18.667-.091-13.204-.099-15.436-.03-17.389.537-1.722.501-3.101.598-5.966.419-2.049-.129-6.647-.33-10.217-.447-6.22-.205-8.337-.542-11.886-1.892-.861-.327-2.356-.575-3.324-.553-1.115.027-1.366.101-.685.205m14.729 31c-7.253.195-7.268.198-8.724 1.309-3.83 2.924-2.422 9.032 2.305 10.002 3.386.694 23.709.281 25.325-.515 3.971-1.956 4.391-7.897.694-9.809-1.399-.724-6.899-1.446-9.901-1.3-1.338.065-5.703.206-9.699.313m60.052-.065c-5.225.581-6.916 8.57-2.295 10.842 1.71.841 32.313 1.254 35.494.48 4.883-1.189 5.772-7.24 1.481-10.082-1.748-1.157-1.857-1.176-7.279-1.232-12.282-.126-26.298-.131-27.401-.008m-27.217.65c-3.426 1.863-3.358 8.238.108 10.006 1.686.86 6.768 1.411 9.056.982 5.155-.967 6.203-8.63 1.523-11.135-1.223-.654-9.419-.541-10.687.147m97.638-.129c.111.18-.069.326-.4.326-.559 0-.795.547-1.096 2.539-.065.428-.599 1.01-1.188 1.292-.735.352-1.071.813-1.071 1.469 0 .765-.2.956-.997.956-.758 0-1.097.283-1.407 1.173-.307.881-.652 1.173-1.385 1.173-.626 0-1.045.264-1.168.735-.22.84-1.681 1.611-3.054 1.611-1.003 0-1.33.326-1.568 1.563-.165.857-.144.864 2.835.95 1.422.04 2.067-.096 2.101-.445.101-1.043.154-1.228.428-1.501.154-.155.682-.301 1.173-.326.668-.034.923-.314 1.016-1.12.088-.771.343-1.076.9-1.076.511 0 .916-.4 1.185-1.173.377-1.082 1.134-1.45 2.458-1.195.95.183 2.325-.426 1.764-.781-.311-.197-.381-.36-.155-.364.25-.003.421-1.208.435-3.069.019-2.288-.106-3.062-.491-3.062-.284 0-.425.146-.315.325m-19.524 12.741c-.32 1.021-.687 2.719-.814 3.773-.566 4.695 3.597 4.34-50.865 4.34h-46.921l-1.857.858c-1.653.763-2.472 1.684-1.499 1.684.686 0 1.987 2.641 1.987 4.03 0 .769.151 1.491.335 1.604.184.114.251 1.444.148 2.956-.171 2.533-.126 2.749.58 2.749.439 0 .958.419 1.212.977.459 1.007 5.3 1.494 6.606.665 1.199-.762.103-1.864-1.943-1.953-2.44-.106-2.455-.129-2.383-3.464.082-3.755.058-3.654.887-3.654.462 0 .9-.413 1.142-1.076.216-.591.407-.842.424-.558.1 1.672-.94 1.63 40.177 1.628 41.091-.001 40.792-.013 39.804 1.586-.322.522.989.766 4.12.766 3.119 0 4.297-.483 4.297-1.762 0-.293.484-.588 1.075-.656.748-.086 1.112-.376 1.194-.954.106-.741.431-.849 3.051-1.017 1.613-.104 3.13-.386 3.371-.627.494-.493 1.063-11.017.595-11.016-.161 0-.293-.244-.293-.543 0-.43-2.957-2.194-3.679-2.194-.092 0-.43.836-.751 1.858m-203.683-1.157c-.807.071-1.469.338-1.472.594-.004.287-.168.24-.428-.122-.365-.507-.395-.5-.22.051.372 1.174-.583 1.513-4.264 1.513-4.508 0-6.036-.954-2.707-1.691.433-.096.162-.193-.606-.218-.764-.025-1.625.174-1.915.443-.421.391-.471.391-.25 0 .211-.375-.482-.482-2.973-.461-1.896.016-2.935.15-2.496.323.744.291.744.299 0 .601-.737.299-.736.313.029.647.606.265.456.324-.664.263-.794-.043-1.572.048-1.726.203-.155.155.715.281 1.934.281 1.218 0 2.215-.132 2.215-.293-.001-.161 1.011-.267 2.248-.236l2.249.057-1.955-.289-1.955-.289 1.869-.061c1.343-.044 1.933.104 2.095.525.182.474 1.083.586 4.703.586 2.463 0 4.387-.146 4.276-.325-.11-.18.319-.326.955-.326.635 0 1.156.13 1.156.289 0 .159.351.197.782.085.587-.154.782-.012.782.569 0 .604.204.734.931.595.513-.098 1.041-.002 1.174.213.144.233-.075.309-.541.187-.438-.115-.782-.012-.782.232 0 .24.352.436.782.436 1.141 0 1.239 18.36.097 18.405-.376.015-5.475.037-11.332.049-6.367.013-10.558.166-10.425.381.391.632-.956 2.247-1.747 2.095-.406-.079-.733.063-.725.314.044 1.57-.144 1.826-1.338 1.826-.706 0-1.455.291-1.761.684-.469.602-.506.606-.306.03.164-.473.029-.625-.488-.551-.566.082-.739.516-.831 2.083-.102 1.726-.239 2.01-1.07 2.219-.562.141-1.047.616-1.184 1.161-.127.508-.647 1.112-1.156 1.344-.508.232-.942.738-.963 1.124-.451 8.21-.449 8.614.056 9.145.552.582.772 5.912.23 5.575-.161-.1-.293.17-.293.6 0 .43.176.891.391 1.024.215.133.391-.043.391-.391 0-.348.179-.522.397-.387.219.135.306.394.194.576-.113.182-.005.397.238.478.244.081.465.58.491 1.109.038.748.308 1.004 1.222 1.156.938.157 1.173.391 1.173 1.173v.978l72.629.093c57.557.075 72.631-.007 72.636-.391.004-.317.136-.282.385.102.227.353.381.401.385.121.003-.256-.163-.569-.368-.697-.206-.127-.276-.487-.156-.8.191-.496-8.903-.581-71.278-.671-77.033-.111-72.806.006-73.463-2.039-.142-.441-.333-4.431-.425-8.867l-.167-8.066 1.377-1.649c.757-.906 1.377-1.983 1.377-2.393 0-.41.26-.745.578-.745.317 0 .885-.484 1.261-1.075.761-1.195 1.326-1.686 1.686-1.463.131.081.755-.301 1.387-.849 2.002-1.736 2.705-1.85 11.901-1.931 10.969-.097 10.65-.081 10.372-.531-.127-.205.303-.65.955-.987l1.186-.613v-10.304c0-11.154.015-11.076-2.151-10.974-1.502.071-2.857-.553-2.15-.99.779-.481-.726-1.013-2.444-.863m-86.358.616c.475.573-.355 1.674-.873 1.156-.141-.141-.257-.052-.257.199s.352.456.782.456c.43 0 .782-.132.782-.293 0-.161 1.056-.293 2.346-.293s2.346.132 2.346.293c0 .161.45.293 1.001.293.609 0 .9-.163.743-.417-.142-.229-.356-.318-.476-.198-.386.385-1.229-.595-1.007-1.173.174-.453-.351-.558-2.808-.558-2.512 0-2.948.091-2.579.535m76.485.638c-.133.215.121.391.563.391.443 0 .805-.176.805-.391 0-.215-.253-.391-.563-.391-.31 0-.672.176-.805.391m-55.055.515c.108.176-.129.264-.527.196-.868-.149-1.251 1.477-.51 2.169.368.345.414.181.203-.729-.256-1.104-.238-1.127.305-.395.318.427.495.911.394 1.075-.101.164.021.297.272.297s.355-.263.231-.586c-.173-.452.086-.587 1.131-.587.945 0 1.356.178 1.356.587 0 .736 1.408.776 1.688.048.113-.297 0-.762-.252-1.035-.353-.382-.346-.433.031-.22.297.168.489.043.489-.317 0-.438-.359-.565-1.369-.486-.753.059-1.369.008-1.369-.114s-.511-.222-1.135-.222c-.625 0-1.047.144-.938.319m6.081-.026c.185.554 36.166.941 36.712.395.164-.163-7.728-.247-17.538-.185-11.93.075-17.97-.022-18.241-.293-.559-.56-1.13-.509-.933.083m-34.506.394c0 .185-.16.238-.355.117-.195-.12-.261.136-.148.57.114.434.389.901.612 1.039.255.158.321-.07.179-.615-.244-.93.463-.616 1.565.696.267.317.6.462.74.322.141-.141.01-.557-.289-.925-.482-.592-.462-.638.172-.4.394.148.8.268.903.268.102 0 .061.204-.093.452-.173.28-.107.345.173.172.593-.367.576-1.282-.032-1.658-.674-.417-3.427-.448-3.427-.038m217.553 21.287c-.084.28-.228.752-.318 1.048-.122.399.448.609 2.187.806 2.958.334 4.234.813 4.234 1.587 0 .358.471.701 1.15.836.822.165 1.266.561 1.554 1.389.222.636.549 1.068.726.959.669-.414 1.392.513 1.529 1.961.376 3.974 2.564 3.465 2.407-.56-.066-1.673-.908-2.456-1.95-1.812-.328.203-.385-.069-.204-.972.137-.689.109-1.166-.064-1.059-.173.107-.235-.349-.137-1.013.122-.835.04-1.124-.267-.934-.243.151-.443.118-.443-.074 0-.191-.484-.353-1.075-.36-2.777-.034-2.86-.069-2.672-1.106.101-.555.019-.886-.188-.759-.201.125-.366.062-.366-.14 0-.594-5.922-.398-6.103.203m13.375 11.43c-.091.338-.163 4.126-.16 8.419l.005 7.806-1.017.811c-.559.446-1.017 1.092-1.017 1.435 0 .689-1.101 1.093-2.998 1.101-1.267.005-1.693.496-1.403 1.615.261 1.005 6.771 1.076 6.684.072-.15-1.735.037-2.019 1.228-1.868.908.115 1.153.001 1.111-.518-.248-3.058.128-8.289.596-8.289 1.281 0 1.779-1.318 1.747-4.625-.031-3.29-.454-4.368-1.714-4.368-.352 0-.559-.408-.559-1.102 0-1.272-2.179-1.697-2.503-.489m-166.199 1.042c-.748.749-.958.689-.724-.206.115-.441.421-.669.735-.548.454.174.453.291-.011.754" fill="#97d2e9"/>
                    <path d="M149.829 54.629c-1.579.302-1.494 1.27.252 2.834 6.087 5.454.359 15.645-7.628 13.573-3.177-.824-4.103.232-1.308 1.492 3.178 1.433 9.634-.587 12.275-3.841 2.297-2.829.213-14.917-2.462-14.284-.124.029-.632.131-1.129.226m-77.532 64.167c-.945.401-2.932 2.368-4.73 4.682-2.313 2.976-3.793 4.493-5.745 5.887-4.053 2.894-3.256 7.394 1.619 9.135.591.211 1.075.588 1.075.838s.331.661.734.913c.404.252 1.14 1.296 1.635 2.319 1.169 2.413 2.848 4.166 5.181 5.406 2.293 1.22 2.112 1.23 2.412-.135.478-2.178-1.348-4.838-4.488-6.534-1.216-.658-2.743-1.716-4.203-2.912-.59-.483-.643-4.289-.106-7.567.388-2.37 1.389-3.907 2.846-4.369.844-.268 1.249-.582 3.854-2.992 3.509-3.244 3.456-6.174-.084-4.671m41.719.19c-1.667 1.219 2.676 6.429 6.729 8.071 1.627.66 2.498.076 1.728-1.157-.263-.422-.479-1.029-.479-1.35 0-.321-.44-.871-.977-1.223-.538-.353-.978-.84-.978-1.085 0-.562-2.556-2.634-4.044-3.278-1.362-.59-1.139-.592-1.979.022m-16.235 2.715c-.519 1.129-1.179 2.831-1.466 3.783-.287.952-.896 2.36-1.353 3.128-.457.769-1.152 2.514-1.545 3.879-.393 1.364-.878 2.684-1.077 2.932-.2.249-.484 1.018-.632 1.71-.148.691-.666 1.843-1.152 2.559-1.783 2.627-2.326 6.127-1.252 8.065l.517.933.909-1.618c.5-.889 1.033-1.617 1.184-1.617.151 0 .491-1.146.756-2.547.264-1.4.787-2.94 1.163-3.421.376-.481.818-1.315.983-1.853.165-.537.717-1.731 1.227-2.653.509-.921.928-2.153.929-2.737.003-1.675.792-4.088 1.704-5.211 3.171-3.909 3.773-7.385 1.279-7.385-1.104 0-1.327.211-2.174 2.053m25.617 7.185c-.127.33-.231 1.924-.231 3.54 0 3.545-.564 4.891-3.059 7.299-3.05 2.942-3.5 3.318-4.74 3.959-.657.34-1.194.756-1.194.925 0 .169-.336.668-.747 1.109-.676.726-.978 1.832-.86 3.158.069.785 1.924.564 3.274-.391 1.537-1.087 1.49-1.04 4.589-4.604 1.398-1.608 2.675-2.982 2.838-3.054.163-.073 1.131-.909 2.15-1.858 1.019-.949 1.971-1.726 2.115-1.726.571 0 1.89-2.706 1.89-3.877 0-1.431-.98-3.552-1.641-3.552-.246 0-.725-.24-1.065-.533-.997-.86-3.047-1.105-3.319-.395m26.728 2.932c-.587 1.419.348 2.684 1.983 2.68 6.965-.019 11.332-.601 11.332-1.511 0-1.628-2.268-2.328-7.579-2.339l-5.247-.01-.489 1.18m47.232-.6c-.115.115-1.4.209-2.855.209-1.456 0-3.629.247-4.831.549-1.201.302-2.668.491-3.259.42-.672-.08-1.076.057-1.076.364 0 1.034 16.864 1.24 18.671.229.424-.237.074-.411-1.218-.605-.997-.149-1.812-.401-1.812-.559 0-.158-.645-.33-1.433-.383-.788-.053-1.555-.173-1.705-.265-.15-.093-.367-.074-.482.041m17.891.209c-.86.204-2.532.55-3.714.768-6.74 1.244-2.155 1.72 16.031 1.665 8.71-.026 19.355-.047 23.656-.047 14.775.001 16.447-.195 12.487-1.459-2.114-.675-4.639-.866-8.968-.679-.86.037-4.291.06-7.625.052-3.333-.008-8.38.112-11.215.268-3.199.176-6.462.12-8.602-.148-5.248-.656-10.311-.833-12.05-.42m54.937.368c-.323.201-1.115.566-1.76.811l-1.173.446 1.76.548c2.118.661 16.794.274 17.529-.462 1.065-1.064-14.724-2.361-16.356-1.343M150.244 152.95c-1.106.559-1.099.682.114 1.99 1.153 1.244 3.038 1.437 4.154.427 1.033-.935 3.668-1.093 5.3-.318.884.419 1.801.56 2.595.399 3.457-.7 9.864-.887 11.591-.337 5.377 1.71 9.479 1.438 9.307-.619l-.118-1.413-14.077-.005c-7.741-.002-14.956-.132-16.031-.287-1.239-.178-2.277-.119-2.835.163m50.812.012c-2.085 2.085.178 4.048 4.223 3.662 4.786-.457 6.256-1.186 6.256-3.102 0-.883-9.641-1.399-10.479-.56m33.029.058l-1.105.514 1.021 1.213 1.021 1.214 7.513.027c6.05.022 7.737-.09 8.661-.575.711-.373 3.168-.759 6.452-1.014 2.917-.225 5.462-.562 5.656-.747.202-.194.036-.337-.391-.336-1.293.002-14.563-.368-21.271-.593-4.883-.163-6.72-.091-7.557.297m33.461.139c-.914.088-1.661.307-1.661.486s.295.3.657.27c.401-.033.75.328.895.924.412 1.687 4.139 1.68 4.51-.009.148-.671.207-1.28.133-1.353-.289-.284-2.954-.471-4.534-.318M65.986 176.72c-2.226.295-3.354 1.4-2.41 2.361.791.805 6.09.97 12.279.381 2.688-.255 5.944-.554 7.234-.664 1.38-.117 4.151.091 6.73.507 4.237.682 4.411.682 5.171-.006l.787-.712-.799-1.121c-1.06-1.489-7.783-1.411-7.783.089 0 .812-3.682.832-6.019.033-2.548-.871-11.36-1.375-15.19-.868m50.77.201c-4.074 1.452-1.571 3.361 3.584 2.733 1.447-.176 3.687-.295 4.978-.264 8.368.201 23.393.014 25.463-.317 1.609-.257 3.661-.265 5.901-.023 2.879.311 13.739.65 15.221.475.724-.085.936-1.159.443-2.241-.42-.921-.609-.988-2.238-.79-9.665 1.172-17.486 1.387-24.262.668-7.221-.767-12.327-.81-16.811-.143-3.767.561-4.301.558-6.516-.032-2.888-.769-3.76-.779-5.763-.066m226.371.978c-1.03.184-.856.303 1.623 1.116 5.158 1.691 4.96.773 4.836 22.458-.031 5.438-.423 6.061-4.778 7.574l-2.482.863 2.2.03c3.759.052 4.605-.273 5.861-2.254l1.128-1.778-.009-11.361c-.01-12.189-.195-13.893-1.671-15.368-1.021-1.022-4.464-1.679-6.708-1.28m-56.03.279c.376.098.992.098 1.368 0 .377-.099.069-.179-.684-.179-.753 0-1.061.08-.684.179m-130.235 19.403c-1.046 1.114-1.057 1.465-.08 2.706 1.554 1.976 5.372 1.836 6.359-.233 1.208-2.534-4.215-4.67-6.279-2.473m-89.942-.224c-4.087.283-4.704 3.215-.681 3.239.88.005 2.364.186 3.296.401 1.743.402 7.046-1.809 5.517-2.301-.311-.1-.985-.507-1.498-.905-.94-.73-1.673-.778-6.634-.434m29.205.857c-1.243 2.185-.124 2.577 5.625 1.97 5.643-.595 9.623-.643 13.402-.16 1.505.193 3.528.328 4.496.301.968-.027 3.783-.112 6.256-.187 3.67-.113 4.736-.015 5.798.532 1.277.657 4.368-.449 4.368-1.563 0-1.066-3.406-2.125-5.3-1.648-3.074.775-6.758.907-10.267.366-2.689-.414-3.701-.408-5.865.032-3.4.692-8.052.631-12.14-.158-4.766-.921-5.594-.854-6.373.515m88.039-.368c-.537.174-1.505.337-2.15.361-1.607.062-2.484.639-1.884 1.239.589.589 6.473.869 8.207.39.873-.241 1.741-.228 2.502.037 1.465.511 3.882.095 3.882-.667 0-.919-2.738-1.879-3.774-1.324-.507.271-1.31.342-1.963.174-1.798-.462-3.774-.548-4.82-.21m-27.733 20.193c-1.062 1.35-1.036 1.496.46 2.632l1.271.966 5.079-.745c7.269-1.065 13.417-1.244 16.938-.494 2.157.46 3.692.534 6.256.301 1.87-.17 3.575-.262 3.79-.205 2.721.729 6.854.049 6.84-1.126-.013-1.109-4.389-1.965-6.326-1.237-.575.216-1.618.151-2.86-.178-2.689-.713-5.033-.676-6.758.106-2.235 1.015-12.139.869-16.108-.236-4.294-1.195-7.536-1.114-8.582.216m-90.102-.373c-1.96.23-3.316 1.407-2.606 2.262.601.724 16.379.882 18.877.188 3.291-.914.647-1.691-7.136-2.098-1.398-.073-3.685-.222-5.083-.331-1.398-.109-3.221-.119-4.052-.021m40.018.858L105 219.648l1.361.829c1.657 1.01 1.479 1.008 3.996.051 1.132-.43 2.483-.782 3.002-.782 1.37 0 .813-.358-2.195-1.411-3.313-1.16-3.196-1.165-4.817.189m18.585-.852c-.858.097-1.738.32-1.955.495-.218.175-1.364.446-2.547.602-2.963.392-3.29.736-.977 1.029 1.075.136 3.065.45 4.422.697 4.145.754 11.072.059 11.01-1.105-.077-1.451-4.928-2.288-9.953-1.718m219.989 14.118c-.79.122-.647.273.978 1.032 3.395 1.587 3.388 1.568 3.67 10.176.54 16.436.107 18.634-3.919 19.918-6.863 2.188-7.486 3.243-7.33 12.421.147 8.687.909 9.71 7.777 10.444 4.29.458 4.773 1.144 5.056 7.189.123 2.63.255 4.501.293 4.158.038-.343.421-.942.851-1.331 1.158-1.048 1.024-3.443-.339-6.061-.616-1.183-1.236-3.058-1.377-4.167-.141-1.11-.614-3.045-1.052-4.301-2.919-8.382-1.269-11.082 6.771-11.082 3.169 0 4.648-.156 5.21-.55 3.742-2.621 4.286-1.074 4.248 12.084-.037 12.528-.299 13.403-5.052 16.814-.599.43-1.461 1.154-1.914 1.608-1.883 1.886-5.565 3.144-6.562 2.241-.686-.621-.715-.535-.715 2.151 0 3.229-.025 3.215 2.547 1.488 1.072-.72 2.581-1.516 3.353-1.769.771-.253 2.531-1.505 3.91-2.783s2.637-2.329 2.795-2.336c2.169-.101 3.427-6.507 3.424-17.439-.002-10.133-.219-11.651-1.935-13.572l-1.107-1.239-2.316.478c-1.571.325-4.015.397-7.597.225-3.634-.174-6.105-.098-7.921.245-2.013.38-2.747.39-3.096.041-.738-.738.423-1.194 3.058-1.2l2.348-.006.949-2.053c1.499-3.24 2.372-24.793 1.186-29.253-.645-2.424-3.385-4.004-6.192-3.571m-124.175 32.323c.418.315 1.287.572 1.932.569 1.126-.004 1.11-.028-.391-.568-2.005-.722-2.495-.723-1.541-.001m-173.63 6.317c-.43.103-1.721.37-2.869.593-3.067.596-3.132.863-3.005 12.261.12 10.721-.057 9.939 3.196 14.14 2.052 2.649 2.788 3.308 4.334 3.876 1.025.377 2.864 1.079 4.088 1.561 2.514.991 22.526 1.412 25.223.531.867-.283 2.144-.285 4.157-.005 1.801.251 15.971.419 37.264.444 36.023.041 36.582.068 37.872 1.843.969 1.334 1.719 22.132.962 26.665-.973 5.82-5.255 7.967-11.609 5.821-2.164-.731-2.792-.789-4.72-.439-1.327.241-2.589.266-3.129.061-1.749-.663-3.623-.408-4.417.6-.408.519-1.489 1.315-2.402 1.769-.913.453-2.188 1.258-2.833 1.787l-1.173.963-.234 5.773c-.129 3.176-.458 6.522-.732 7.436-.71 2.371 1.711 4.239 4.391 3.389 1.248-.396 127.773-.482 131.668-.09 1.828.184 3.939.541 4.692.793 4.979 1.666 12.057.258 12.833-2.554.713-2.582-.162-12.643-1.303-14.974-2.628-5.373-8.64-7.858-15.44-6.384-13.118 2.845-14.821 2.537-16.279-2.939-.783-2.94-.669-7.759.263-11.121.951-3.436 1.232-3.068-2.565-3.358-2.989-.228-3.067-.214-1.849.348l1.27.586v6.079c0 6.997-.38 7.985-2.873 7.464-4.4-.92-72.843-1.142-75.717-.246-4.579 1.428-4.852.739-4.873-12.316-.021-12.657-.062-12.522 3.691-12.065 2.538.308 10.046.428 18.971.303 16.035-.225 25.795.058 26.857.779 1.071.727 2.664 3.345 2.664 4.378 0 .313.82 1.648 1.823 2.967 2.485 3.268 3.495 3.649 8.734 3.302 2.258-.15 4.985-.216 6.061-.147 5.977.385 9.779.139 10.845-.7l1.049-.826-4.579-.214c-2.518-.118-6.738-.137-9.378-.042-2.92.106-5.447-.001-6.452-.271-5.245-1.41-7.627-9.441-6.582-22.196.821-10.019 1.591-10.902 10.275-11.777 3.341-.337 4.551-1.048 3.999-2.351-.14-.329-.549-1.692-.909-3.029-.361-1.338-.778-2.555-.928-2.705-.15-.15-.273-.662-.273-1.137 0-4.483-1.074-4.666-26.588-4.538-1.828.009-5.348-.006-7.821-.034-2.473-.028-35.46-.023-73.305.011-37.845.034-69.428-.008-70.186-.095-.757-.086-1.729-.073-2.159.03m223.489 68.25c2.408.84 6.007 3.367 6.698 4.704 1.052 2.036 1.795 14.245.92 15.119-1.35 1.348-10.774.498-10.774-.971 0-.955.903-2.487 1.819-3.088 1.108-.726 1.241-2.841.317-5.052-.33-.79-.703-2.879-.828-4.642-.128-1.794-.487-3.619-.816-4.145-.548-.875-.525-.989.339-1.653 1.115-.858.762-.816 2.325-.272" fill="#797c7c"/>
                    <path d="M54.252 31.181c1.989.071 5.245.071 7.234 0 1.989-.071.362-.129-3.617-.129-3.978 0-5.606.058-3.617.129m20.724-.009c.698.087 1.842.087 2.541 0 .699-.086.127-.157-1.271-.157s-1.969.071-1.27.157m58.455-.013c.376.098.992.098 1.369 0 .376-.098.068-.179-.685-.179-.752 0-1.06.081-.684.179m34.604.013c.699.087 1.843.087 2.542 0 .699-.086.127-.157-1.271-.157s-1.97.071-1.271.157m42.033.011c18.871.056 49.751.056 68.622 0 18.871-.056 3.431-.102-34.311-.102s-53.182.046-34.311.102m111.828-.003c1.667.073 4.394.073 6.061 0 1.667-.073.303-.133-3.03-.133-3.334 0-4.697.06-3.031.133m16.618-.008c.699.087 1.843.087 2.542 0 .699-.086.127-.157-1.271-.157s-1.97.071-1.271.157m17.791-.013c.376.098.992.098 1.369 0 .376-.098.068-.179-.685-.179-.752 0-1.06.081-.684.179M56.109 33.59c-1.29.149-3.049.65-3.91 1.114-1.41.761-3.194 1.162-5.518 1.241-1.105.037-3.785 2.198-4.192 3.381-.179.521-.485.948-.679.948-.194 0-.794.66-1.332 1.466-.538.806-1.234 1.818-1.547 2.248-.916 1.26-1.077 2.682-1.263 11.144-.097 4.409-.336 8.506-.529 9.104-.24.739-.222 1.008.055.837.224-.139.15.251-.164.866-.808 1.583-.796 5.031.024 6.742.918 1.914.986 9.264.092 9.83-.39.246-.422.372-.098.376.269.004.489.182.489.397 0 .216-.244.391-.541.391-.73 0-.976 1.075-1.274 5.572-.167 2.524-.116 3.813.151 3.813.222 0 .379-.291.349-.647-.05-.601 10.979-.65 154.627-.684 165.709-.041 155.974.077 155.974-1.879 0-.889 1.314-5.952 2.211-8.521 2.476-7.09 2.422-6.846 2.219-9.922-.172-2.61-.119-2.953.424-2.744.487.187.62-.032.62-1.025 0-1.078.086-1.191.587-.776 1.012.841.772-2.058-.247-2.97-2.794-2.499-3.2-4.637-1.513-7.978 1.457-2.886 1.48-4.461.098-6.822-1.911-3.266-2.041-3.53-2.047-4.164-.013-1.356-2.56-3.299-5.714-4.358-1.777-.597-2.674-1.048-2.112-1.063.538-.013 1.743-.462 2.679-.998 2.342-1.338 8.851-1.446 10.635-.176.615.438 1.634.976 2.265 1.196.787.274 1.213.734 1.36 1.47.151.756 1.115 1.76 3.269 3.409 4.329 3.311 4.133 2.501 3.994 16.528-.229 23.031.209 29.387 2.025 29.387.389 0 .815.176.948.391.133.215.85.391 1.593.391h1.352l-.09-2.137c-.049-1.175-.184-2.011-.299-1.857-.501.667-1.498.436-1.721-.399-.131-.487-.251-9.596-.267-20.241-.03-20.49-.17-22.796-1.45-23.809-.437-.346-.913-1.025-1.058-1.509-.145-.483-.524-.879-.842-.879-.318 0-.878-.529-1.244-1.174-.366-.646-.965-1.271-1.33-1.389-.366-.118-.763-.526-.884-.906s-.843-.989-1.605-1.352c-.762-.363-1.281-.83-1.153-1.037.128-.206-.259-.513-.859-.68-.875-.245-170.313-.403-219.664-.205-6.667.027-14.409.049-17.204.051-4.004.001-5.416.148-6.647.692-2.075.916-3.998.948-5.67.093-1.259-.643-2.846-.698-19.746-.685-23.632.019-23.202.022-27.566-.185-2.043-.097-4.77-.055-6.061.093M33.385 55.718c.001 2.581.064 3.586.14 2.233.077-1.352.076-3.464-.001-4.692-.077-1.228-.14-.121-.139 2.459m41.411-2.452c10.141 7.04 6.383 21.29-5.588 21.187-3.135-.027-4.405-.655-6.674-3.302-4.028-4.698-4.272-5.938-2.35-11.931 1.757-5.479 2.323-6.015 6.41-6.071 1.115-.015 2.38-.178 2.81-.363 1.529-.657 4.081-.43 5.392.48m283.835-.485c-.71.168-1.38.395-1.489.504-.381.381.933 2.833 2.112 3.941l1.188 1.117.268-2.15c.262-2.091.019-3.839-.521-3.758-.147.022-.848.178-1.558.346m-245.077.843c3.825 1.743 5.909 10.384 3.542 14.691-5.392 9.813-19.387 6.354-19.323-4.776.034-6.08 2.535-8.734 9.167-9.729 4.632-.695 5.447-.718 6.614-.186m33.454.677c.416.609 1.563.78 2.815.42 3.65-1.046 6.573 10.302 3.597 13.966-3.209 3.953-13.831 6.017-13.831 2.688 0-.249-.781-1.003-1.737-1.677-5.118-3.607-3.702-11.743 2.657-15.27 1.617-.897 5.915-.981 6.499-.127m212.498 15.885c-1.843 1.785-1.918 9.188-.093 9.188.517 0 .354 1.189-.245 1.788-.308.307-.667.558-.799.558s-1.193.704-2.357 1.564c-1.165.861-2.301 1.564-2.525 1.564-.823 0-.373.678.907 1.368 1.507.811 5.576.633 6.196-.27.193-.281.264-1.655.159-3.053-.105-1.397-.012-3.685.207-5.083.297-1.898.265-3.284-.123-5.474l-.52-2.932-.807.782M33.361 85.239c0 1.398.071 1.97.157 1.271.087-.699.087-1.842 0-2.541-.086-.699-.157-.127-.157 1.27m72.211 33.823v2.541h1.571c1.447 0 1.554-.072 1.345-.903-.124-.496-.265-1.167-.313-1.491-.118-.805-1.639-2.689-2.171-2.689-.271 0-.432.945-.432 2.542m103.91 8.291c.484.093 1.276.093 1.759 0 .484-.093.088-.169-.879-.169-.968 0-1.364.076-.88.169M69.469 132.03c-.445.445-.286 3.468.208 3.962.842.842 1.048.495.436-.733-.358-.716-.508-1.663-.371-2.346.234-1.172.183-1.339-.273-.883m99.288 1.694c-.369 1.183-.772 2.415-.896 2.737-.123.323.148.168.602-.343.842-.948 1.454-3.114 1.139-4.034-.096-.281-.477.458-.845 1.64m123.75 2.105l-.944 1.219 1.119-1.064c.615-.584 1.04-1.133.943-1.219-.096-.085-.599.393-1.118 1.064m-19.286 2.473c.486.093 1.19.09 1.564-.008.373-.098-.024-.174-.885-.17-.86.004-1.166.084-.679.178m-50.845.397c.695.086 1.926.087 2.737.003.812-.085.244-.156-1.262-.157-1.505-.002-2.169.067-1.475.154m37.091 10.263c.448.182 1.416.188 2.15.015 1.208-.284 1.131-.316-.815-.33-1.541-.011-1.92.079-1.335.315M82.624 150.69c-.136.239-.115.316.047.171.161-.145 1.058.143 1.993.64 1.352.719 1.617.77 1.291.248-.547-.875-2.992-1.652-3.331-1.059m113.899 1.639c-1.137 2.963 1.092 7.368 4.103 8.11 1.85.456 1.596-.28-.401-1.161-2.681-1.183-3.661-2.771-3.406-5.515.198-2.115.116-2.509-.296-1.434m31.949 6.577c.753.587 4.84 1.424 6.751 1.382 1.807-.039.064-.592-2.904-.921-1.364-.151-2.947-.441-3.519-.644-.94-.335-.971-.318-.328.183m-74.024.997c-.552.166 1.324.296 4.301.298 4.315.003 4.815-.049 2.737-.288-3.282-.376-5.812-.379-7.038-.01m27.566.019l-1.955.268 2.029.061c1.117.034 2.139-.114 2.272-.329.133-.215.099-.364-.075-.33-.174.034-1.196.182-2.271.33m82.339-.243c.09.081 1.571.249 3.291.373 1.941.14 2.757.099 2.151-.109-.952-.325-5.767-.56-5.442-.264M64.516 172.258c0 1.105 5.255 1.69 8.016.893 1.48-.427 1.511-.467.586-.741-1.141-.338-8.602-.469-8.602-.152m63.925.535c.781.305 5.677.16 6.015-.178.099-.1-1.388-.169-3.306-.154-2.089.017-3.175.15-2.709.332m90.3 2.535c-1.882.674-3.118 1.864-4.328 4.166l-1.119 2.129-.124 11.339c-.181 16.618.328 18.058 6.84 19.346 6.902 1.365 9.004 3.844 8.537 10.071-.363 4.833-1.061 5.658-5.384 6.358-6.795 1.101-7.19 1.308-8.953 4.694-.942 1.81-1.303 15.698-.708 27.211.132 2.568.042 3.725-.325 4.168-.863 1.044.176 1.277 5.224 1.174 7.551-.154 10.293 2.27 9.726 8.597-.197 2.194-.092 3.371.461 5.184l.715 2.346.307-5.618c.469-8.578-.698-11.052-5.463-11.586-6.474-.724-9.034-5.112-8.543-14.64.151-2.916.255-6.59.231-8.166-.104-7.071 1.439-9.261 7.633-10.832 6.056-1.536 7.123-3.163 6.727-10.257-.461-8.262-1.485-9.789-7.56-11.272-6.552-1.6-7.848-4.458-6.759-14.904.301-2.883.295-4.772-.02-6.802-1.18-7.605 3.257-11.312 12.83-10.72 2.502.155 13.259.225 23.904.156 10.646-.069 21.379-.085 23.852-.035 2.473.049 8.719.061 13.881.027 5.161-.035 11.319-.048 13.685-.029 2.365.019 6.764.01 9.775-.02 6.03-.059 9.15-.036 21.896.164l8.603.136v-2.737l-62.171-.039c-44.27-.027-62.515.085-63.37.391m-134.962 8.104c.356.199 1.99.197 3.873-.005l3.257-.349-3.873.005c-2.443.003-3.646.132-3.257.349m33.242-.153c1.028.081 2.611.08 3.519-.002.907-.082.066-.148-1.869-.147-1.936.001-2.678.068-1.65.149m75.941 9.878c1.15.495 2.915.495 2.15 0-.322-.208-1.114-.369-1.759-.357-1.007.018-1.063.069-.391.357m-125.997.281c.595.09 1.474.087 1.955-.005.481-.093-.005-.167-1.08-.164-1.076.003-1.469.079-.875.169m210.552.533c-.897.522-.865 1.017.098 1.532.913.489 2.346-.091 2.346-.949 0-.913-1.332-1.231-2.444-.583m-186.833 2.15c-1.017 1.082-1.365 4.401-.548 5.218.274.273.355-.08.257-1.111-.091-.949.153-2.183.653-3.314.925-2.093.904-2.14-.362-.793m77.468 2.51c-.016.753-.143 1.792-.281 2.31-.161.6-.107.851.15.692.606-.375.919-2.484.517-3.485-.317-.789-.359-.737-.386.483m30.857 3.672c-.315.299-1.451 1.003-2.525 1.564-1.074.561-1.716 1.021-1.428 1.021.897 0 3.047-1.172 3.987-2.173.955-1.016.928-1.326-.034-.412m141.721 8.434c-2.705 1.204-3.096 2.512-3.096 10.377 0 7.539.419 8.835 3.036 9.405.696.151 1.613.516 2.037.812 1.448 1.007 2.943.7 2.943-.606 0-1.028-.287-1.286-2.88-2.584l-2.879-1.443-.265-4.189c-.273-4.315-.078-5.415 1.222-6.869.966-1.081 3.488-2.932 3.994-2.932.229 0 .417-.616.417-1.369 0-1.642-1.689-1.867-4.529-.602m-233.496 3.413c.376.099.992.099 1.368 0 .376-.098.069-.179-.684-.179-.753 0-1.061.081-.684.179m23.081.019c1.028.08 2.611.079 3.519-.003.907-.082.066-.148-1.869-.146-1.936.001-2.678.068-1.65.149m-70.098 1.079c-1.393 1.028-1.949 1.7-1.939 2.347.003.215.19.076.414-.31.225-.386 1.231-1.219 2.237-1.85 1.005-.632 1.554-1.152 1.219-1.156-.334-.004-1.203.432-1.931.969m7.329 9.857c.484.093 1.276.093 1.76 0s.088-.17-.88-.17-1.363.077-.88.17m104.008.012c1.129.079 2.977.079 4.106 0s.205-.143-2.053-.143-3.182.064-2.053.143M35.808 271.98c.342 7.845.352 9.413.105 16.192-.201 5.505.098 8.211.907 8.211.416 0 .824.537 1.115 1.466.252.807.893 1.834 1.424 2.284.836.707 1.147 1.342 1.276 2.604.016.161.36.293.764.293.448 0 .925.459 1.221 1.173.267.645.766 1.173 1.108 1.173.342 0 .98.439 1.419.975.866 1.06 1.705 1.298 4.729 1.342 2.583.038 3.711.804 2.969 2.017-.456.747-.448.832.061.637.562-.216 2.029.961 1.659 1.331-.098.098.177.178.611.178.716 0 .695-.069-.214-.731-1.338-.975-1.265-1.243.357-1.298.748-.026 1.292.062 1.21.195-.082.133.626.293 1.573.355 1.147.076 1.722-.044 1.722-.358 0-.26.116-.356.257-.215.518.518 1.348-.583.873-1.156-.369-.444.067-.535 2.579-.535 2.457 0 2.982.105 2.808.558-.118.307.039.769.349 1.026s.563.322.563.146c0-.177.211-.111.469.147.579.579 13.048.668 13.401.096.127-.206.519-.264.87-.13.351.135.538.083.415-.114-.122-.198.289-.36.914-.36.624 0 1.135.1 1.135.222s.616.173 1.369.114c.753-.059 1.369.061 1.369.267 0 .529 1.46.467 1.796-.077.173-.28.108-.345-.172-.172-.248.153-.451.092-.451-.136 0-.528.659-.538.982-.015.161.262 6.295.391 17.863.375 9.69-.012 17.712.072 17.829.188.31.311 2.25.257 2.578-.07.154-.155.932-.246 1.726-.203 1.12.061 1.27.002.664-.263-.765-.334-.766-.348-.029-.647.744-.302.744-.31 0-.601-.439-.173.6-.307 2.496-.323 2.491-.021 3.184.086 2.973.461-.221.391-.171.391.25 0 .29-.269 1.151-.468 1.915-.443.768.025 1.039.122.606.218-3.329.737-1.801 1.691 2.707 1.691 3.681 0 4.636-.339 4.264-1.513-.175-.551-.145-.558.22-.051.238.332.424.392.428.139.008-.643 3.083-.852 3.858-.263.518.395.533.493.077.503-1.298.028.435.958 1.841.987 2.532.052 2.441-.357 2.441 10.964v10.329l-1.186.613c-.652.337-1.082.782-.955.987.278.45.597.434-10.372.531-9.196.081-9.899.195-11.901 1.931-.632.548-1.256.93-1.387.849-.36-.223-.925.268-1.686 1.463-.376.591-.944 1.075-1.261 1.075-.318 0-.578.335-.578.745s-.62 1.487-1.377 2.393l-1.377 1.649.167 8.066c.092 4.436.283 8.426.425 8.867.657 2.045-3.569 1.928 73.439 2.039 56.507.081 71.456.204 71.395.586-.262 1.63.307 1.808 5.769 1.803 4.697-.003 5.258-.075 5.2-.661-.138-1.395.052-1.636 1.296-1.641 1.928-.008 3.03-.408 3.03-1.101 0-.343.451-.983 1.001-1.422l1.002-.799.074-8.698c.04-4.784.015-8.523-.057-8.307-.187.56-1.621.484-1.828-.098-.095-.269-.238-1.165-.316-1.991-.137-1.448-.86-2.375-1.529-1.961-.177.109-.504-.323-.726-.959-.288-.828-.732-1.224-1.554-1.389-.679-.135-1.15-.478-1.15-.836 0-.773-1.276-1.253-4.224-1.586l-2.342-.265.315-1.1.316-1.1-5.874-.032-5.874-.032.237.942c.455 1.814-6.051 2.228-6.868.436-.254-.558-.773-.977-1.212-.977-.706 0-.751-.216-.58-2.749.103-1.512.036-2.842-.148-2.956-.184-.113-.335-.835-.335-1.604 0-1.543-1.395-4.152-2.096-3.919-.299.1-.481 2.03-.553 5.901-.195 10.335 1.732 11.948 12.02 10.06 14.803-2.717 20.752 1.692 21.046 15.599l.145 6.843-1.421 1.368c-1.795 1.73-6.467 2.042-14.561.976-5.072-.669-122.598-.986-133.25-.36l-3.91.23-1.49-1.253c-1.043-.876-1.41-1.443-1.224-1.889.146-.35.323-3.364.393-6.697.157-7.503.411-8.208 3.98-11.083 4.211-3.392 7.034-3.81 18.869-2.791 7.814.673 8.602-.808 8.602-16.16 0-15.914-.915-16.942-13.973-15.705-2.791.264-6.782.365-9.089.229-2.262-.134-20.917-.269-41.454-.301-46.651-.073-44.234.184-48.799-5.177-4.193-4.925-4.971-7.084-4.52-12.55.203-2.456.211-5.476.02-7.039-.594-4.848-.159-9.852 1.065-12.257.585-1.151 1.008-2.137.94-2.191-.068-.055-1.241-.314-2.607-.576-1.366-.261-2.755-.579-3.087-.707-.538-.206-.567.609-.264 7.555m332.301 7.478c.032 17.647.352 16.554-6.773 23.166-1.961 1.82-5.308 3.515-7.001 3.547-.701.013-2.298 1.045-2.009 1.299.092.081.826.455 1.633.831.806.376 1.466.909 1.466 1.184 0 .584.884.986 2.085.947.751-.024.766-.06.135-.309-1.266-.498-.395-2.401 1.099-2.401 1.381 0 2.843-.768 3.063-1.611.123-.471.542-.735 1.168-.735.733 0 1.078-.292 1.385-1.173.31-.89.649-1.173 1.407-1.173.797 0 .997-.191.997-.956 0-.656.336-1.117 1.071-1.469.589-.282 1.123-.864 1.188-1.292.301-1.992.537-2.539 1.096-2.539.353 0 .499-.202.354-.489-.136-.268.022-.157.351.248.54.663.601-.777.623-14.687l.025-15.423-1.694-.088-1.693-.088.024 13.211M42.773 308.732c.131.34.238.692.238.782 0 .09.197.163.439.163.316 0 .312-.152-.017-.548-.349-.421-.338-.596.05-.751.306-.123.219-.215-.221-.234-.507-.021-.654.156-.489.588m96.034.554c0 .215-.362.391-.805.391-.442 0-.696-.176-.563-.391.133-.215.495-.391.805-.391.31 0 .563.176.563.391m7.124.132c-.491.273-.769.618-.619.768.432.432 2.098.318 2.098-.144 0-.25-.353-.312-.88-.155-.866.258-.867.252-.098-.352.943-.741.718-.793-.501-.117m-11.62.268l1.955.301-2.249-.057c-1.237-.031-2.249.075-2.248.236 0 .161 1.071.293 2.379.293 2.988 0 3.11-.95.132-1.026l-1.924-.049 1.955.302m-72.923.48c0 .161 1.056.293 2.346.293s2.346-.132 2.346-.293c0-.161-1.056-.293-2.346-.293s-2.346.132-2.346.293m19.953.489c0 .736.683 1.469 1.118 1.2.239-.148.434-.082.434.145 0 .228.528.414 1.173.414.808 0 1.173-.192 1.173-.616 0-.479-.354-.591-1.586-.502-1.068.077-1.705-.073-1.949-.459-.199-.315-.363-.397-.363-.182m36.602 33.236c-.124.322-.13.586-.014.586s.475-.264.797-.586c.509-.509.511-.587.014-.587-.315 0-.674.264-.797.587m-.641 11.707c0 1.385.132 2.6.293 2.699.162.1.294-1.033.294-2.518 0-1.485-.132-2.7-.294-2.7-.161 0-.293 1.133-.293 2.519" fill="#b1b0ab"/>
                    <path d="M109.328 59.23c-.35.533-.911 2.16-1.248 3.616-.337 1.456-1.13 3.43-1.763 4.387-1.293 1.955-1.284 2.355.068 3.045 5.407 2.758 11.469-5.603 7.671-10.582-1.401-1.837-3.683-2.062-4.728-.466m252.744 32.71c-.967.163-3.607.497-5.865.742-6.077.66-7.65 1.76-8.596 6.008-.484 2.172-.691 64.765-.222 67.125.172.866.053 2.255-.314 3.659-.764 2.925-.485 3.618 2.622 6.511 3.166 2.95 3.375 3.678 3.601 12.589.375 14.742-.476 21.658-2.922 23.743-.126.107-1.176 1.221-2.333 2.474l-2.104 2.279.266 3.391c.48 6.102.469 6.072 3.413 9.148 3.733 3.899 3.634 3.332 3.613 20.689l-.017 14.716 1.094.646c1.429.844 10.98.474 11.752-.455.862-1.039 1.01-13.571 1.013-85.342.003-94.806.343-88.823-5.001-87.923" fill="#f9b40a"/>
                    <path d="M343.891 38.545c-.861.513-2.004.946-2.542.961-.566.015.325.464 2.112 1.064 3.154 1.059 5.701 3.002 5.714 4.358.006.634.136.898 2.047 4.164 1.382 2.361 1.359 3.936-.098 6.822-1.687 3.341-1.281 5.479 1.513 7.978 1.019.912 1.259 3.811.247 2.97-.501-.415-.587-.302-.587.776 0 .993-.133 1.212-.62 1.025-.543-.209-.596.134-.424 2.744.203 3.072.237 2.917-2.222 9.922-.734 2.089-2.147 7.615-2.298 8.979-.142 1.297 1.686 1.646 8.888 1.696 11.257.078 11.627-.073 10.631-4.314-.718-3.054-.876-9.11-.701-26.754.139-14.027.335-13.217-3.994-16.528-2.154-1.649-3.118-2.653-3.269-3.409-.147-.736-.573-1.196-1.36-1.47-.631-.22-1.65-.758-2.265-1.196-1.741-1.24-8.567-1.106-10.772.212M71.808 52.787c1.107.162 2.251.438 2.541.613.434.261.432.199-.008-.344-.389-.479-1.087-.648-2.541-.612l-2.005.048 2.013.295m288.909.432c.144.454.141 1.792-.007 2.974l-.268 2.15-1.188-1.117c-2.974-2.795-2.69-4.247.935-4.791.147-.022.384.331.528.784m-297.391.385c-.999.368-2.331 2.172-2.327 3.152.001.29.396.06.88-.512 1.031-1.22 2.242-1.92 4.397-2.54l1.564-.45-1.76-.008c-.968-.004-2.207.157-2.754.358m48.272.368c4.568 2.279 6.383 7.737 4.514 13.573-1.305 4.075-7.752 6.68-12.495 5.048-1.754-.604-1.757-.603-.849.146 4.096 3.377 11.257 1.166 14.328-4.424 3.056-5.561-.62-15.187-5.775-15.122l-1.253.015 1.53.764M78.692 57.88c5.299 10.275-5.552 20.228-14.86 13.631-1.926-1.366-2.1-1.224-.587.477 4.696 5.279 15.633 1.584 17.341-5.859.611-2.662-.95-8.862-2.569-10.206-.322-.267-.018.614.675 1.957m282.264 19.93c-.219 1.398-.312 3.686-.207 5.083.105 1.398.034 2.772-.159 3.053-.62.903-4.689 1.081-6.196.27-1.28-.69-1.73-1.368-.907-1.368.224 0 1.36-.703 2.525-1.564 1.164-.86 2.225-1.564 2.357-1.564.132 0 .491-.251.799-.558.599-.599.762-1.788.245-1.788-1.825 0-1.75-7.403.093-9.188l.807-.782.52 2.932c.388 2.19.42 3.576.123 5.474M72.668 114.076c-2.501 1.199-13.686 11.874-16.321 15.578-2.4 3.372-1.216 7.671 3.039 11.034 1.081.855 2.827 2.585 3.881 3.845 3.434 4.108 7.986 7.997 10.225 8.736 2.409.795 8.089-.795 9.109-2.549.4-.689 2.538.084 3.608 1.304 3.121 3.558 7.685.049 10.125-7.786.309-.992.746-2.135.972-2.542.875-1.575 2.079-4.758 2.996-7.919.526-1.816 1.208-3.582 1.514-3.925.306-.344 1.104-1.856 1.772-3.361.668-1.506 1.387-3.043 1.599-3.416.212-.374.385-2.074.385-3.778 0-8.495-9.94-6.56-12.271 2.39-.497 1.908-2.594 7.313-3.989 10.28-.303.647-1.233 3.152-2.066 5.567-2.886 8.373-4.846 10.3-7.969 7.838-.807-.636-1.467-1.282-1.467-1.436 0-.408-5.556-6.026-7.199-7.279-2.863-2.184-1.767-4.93 4.133-10.362 5.779-5.32 6.741-8.056 3.848-10.948-.86-.86-1.872-1.566-2.248-1.569-.376-.003-1.036-.091-1.466-.196-.43-.104-1.425.118-2.21.494m37.791-.333c-.43.19-1.208.805-1.73 1.366-.521.561-1.181 1.02-1.466 1.02-.771 0-.627.953.266 1.762.432.39.713.781.626.869-.979.978 4.669 7.954 8.438 10.424 3.812 2.497 3.037 6.22-2.293 11.016-5.003 4.502-5.654 5.449-5.728 8.344-.189 7.354 7.189 6.881 13.538-.868.807-.984 3.143-3.426 5.193-5.427 7.925-7.737 7.665-9.953-2.338-19.991-7.987-8.016-11.274-9.945-14.506-8.515m-35.633 5.2c.952.89-.806 3.308-4.895 6.734-.355.298-.987.649-1.404.782-1.457.462-2.458 1.999-2.846 4.369-.537 3.278-.484 7.084.106 7.567 1.46 1.196 2.987 2.254 4.203 2.912 3.14 1.696 4.966 4.356 4.488 6.534-.3 1.365-.119 1.355-2.412.135-2.333-1.24-4.012-2.993-5.181-5.406-.495-1.023-1.231-2.067-1.635-2.319-.403-.252-.734-.663-.734-.913s-.484-.627-1.075-.838c-4.875-1.741-5.672-6.241-1.619-9.135 1.952-1.394 3.432-2.911 5.745-5.887 3.404-4.382 5.812-5.886 7.259-4.535m41.169.021c1.488.644 4.044 2.716 4.044 3.278 0 .245.44.732.978 1.085.537.352.977.902.977 1.223 0 .321.216.928.479 1.35.77 1.233-.101 1.817-1.728 1.157-4.053-1.642-8.396-6.852-6.729-8.071.84-.614.617-.612 1.979-.022m-14.584 1.582c.365 1.452-.701 3.979-2.735 6.487-.912 1.123-1.701 3.536-1.704 5.211-.001.584-.42 1.816-.929 2.737-.51.922-1.062 2.116-1.227 2.653-.165.538-.607 1.372-.983 1.853-.376.481-.899 2.021-1.163 3.421-.265 1.401-.605 2.547-.756 2.547-.151 0-.684.728-1.184 1.617l-.909 1.618-.517-.933c-1.074-1.938-.531-5.438 1.252-8.065.486-.716 1.004-1.868 1.152-2.559.148-.692.432-1.461.632-1.71.199-.248.684-1.568 1.077-2.932.393-1.365 1.088-3.11 1.545-3.879.457-.768 1.066-2.176 1.353-3.128 1.597-5.289 4.341-7.948 5.096-4.938m46.976 6.676c-5.157 1.456-5.863 7.666-1.173 10.315 1.714.968 15.161 1.016 18.688.066 4.468-1.203 4.285-8.939-.241-10.175-2.245-.612-15.283-.768-17.274-.206m37.537-.314c-.215.07-1.115.313-2 .54-5.072 1.302-4.971 8.779.137 10.228 2.885.819 103.709.91 105.67.096 3.953-1.641 5.547-5.764 3.2-8.277-2.557-2.738-1.869-2.712-65.561-2.479-10.322.037-23.783 0-29.912-.083-6.129-.083-11.319-.094-11.534-.025m-59.207 2.373c.34.293.819.533 1.065.533.661 0 1.641 2.121 1.641 3.552 0 1.171-1.319 3.877-1.89 3.877-.144 0-1.096.777-2.115 1.726-1.019.949-1.987 1.785-2.15 1.858-.163.072-1.44 1.446-2.838 3.054-3.099 3.564-3.052 3.517-4.589 4.604-1.35.955-3.205 1.176-3.274.391-.118-1.326.184-2.432.86-3.158.411-.441.747-.94.747-1.109 0-.169.537-.585 1.194-.925 1.24-.641 1.69-1.017 4.74-3.959 2.495-2.408 3.059-3.754 3.059-7.299 0-4.212 1.142-5.223 3.55-3.145m35.558 2.359c2.487 2.092-.141 2.831-10.166 2.858-1.635.004-2.57-1.261-1.983-2.68l.489-1.18 5.247.01c5.024.011 5.297.053 6.413.992m37.27-.198c.788.053 1.433.225 1.433.383s.815.41 1.812.559c1.292.194 1.642.368 1.218.605-1.807 1.011-18.671.805-18.671-.229 0-.307.404-.444 1.076-.364.591.071 2.058-.118 3.259-.42 1.202-.302 3.375-.549 4.831-.549 1.455 0 2.74-.094 2.855-.209.115-.115.332-.134.482-.041.15.092.917.212 1.705.265m27.754.405c2.14.268 5.403.324 8.602.148 2.835-.156 7.882-.276 11.215-.268 3.334.008 6.765-.015 7.625-.052 4.329-.187 6.854.004 8.968.679 3.96 1.264 2.288 1.46-12.487 1.459-4.301 0-14.946.021-23.656.047-18.186.055-22.771-.421-16.031-1.665 1.182-.218 2.854-.564 3.714-.768 1.739-.413 6.802-.236 12.05.42m57.064.245c2.988.54 3.095 1.132.257 1.413-5.727.565-13.94.615-15.607.095l-1.76-.548 1.173-.446c.645-.245 1.437-.61 1.76-.811.682-.426 11.424-.2 14.177.297m-136.735 17.074c-8.341 2.971-4.553 11.212 4.962 10.798 4.16-.181 7.087-.196 18.723-.1 14.196.117 14.158.124 15.617-2.735 1.622-3.18.532-6.435-2.606-7.78-2.343-1.004-33.948-1.162-36.696-.183m51.758.164c-4.194 2.294-3.59 7.99 1.065 10.049l2.191.968 6.499-.432c7.611-.507 8.255-.698 9.371-2.79 1.761-3.299.658-6.883-2.386-7.747-3.171-.9-15.12-.935-16.74-.048m32.286-.02c-4.977 1.457-6.33 3.666-4.62 7.541 1.184 2.683 7.232 3.397 27.298 3.22 2.366-.021 5.269-.038 6.452-.037 1.182 0 3.229-.136 4.548-.302 1.555-.195 3.09-.135 4.368.171 7.026 1.686 11.214-7.843 4.623-10.518-2.049-.832-2.567-.875-7.77-.653-3.066.131-5.838.221-6.16.2-7.205-.47-26.72-.213-28.739.378m-62.562 3.764l14.077.005.118 1.413c.172 2.057-3.93 2.329-9.307.619-1.727-.55-8.134-.363-11.591.337-.794.161-1.711.02-2.595-.399-1.632-.775-4.267-.617-5.3.318-1.397 1.264-5.147 0-5.147-1.735 0-.67 1.911-1.104 3.714-.845 1.075.155 8.29.285 16.031.287m40.45-.158c2.23.478 2.174.403 1.402 1.896-.617 1.194-1.218 1.385-5.683 1.812-4.045.386-6.308-1.577-4.223-3.662.592-.593 5.823-.621 8.504-.046m45.572.212c3.871.104 7.372.188 7.781.188.427-.001.593.142.391.336-.194.185-2.739.522-5.656.747-3.284.255-5.741.641-6.452 1.014-.924.485-2.611.597-8.661.575l-7.513-.027-1.021-1.214-1.021-1.213 1.105-.514c.837-.388 2.674-.46 7.557-.297 3.549.119 9.619.301 13.49.405m16.948.349c.074.073.015.682-.133 1.353-.371 1.689-4.098 1.696-4.51.009-.145-.596-.494-.957-.895-.924-.362.03-.657-.091-.657-.27 0-.597 5.605-.748 6.195-.168m-194.661 18.96c-2.043.14-4.329.461-5.08.712-1.884.632-4.835.573-6.515-.128-1.919-.802-2.641-.742-4.395.365-4.333 2.735-4.555 6.278-.543 8.681l1.871 1.12 16.031.04c16.653.041 17.878-.059 19.996-1.64 2.732-2.039 2.159-5.114-1.405-7.541-2.929-1.994-8.175-2.417-19.96-1.609m57.227.21c-1.884.224-4.05.337-4.813.251-12.503-1.416-18.185-.248-19.702 4.05-1.889 5.355 2.704 6.609 23.398 6.391 4.731-.05 15.376-.066 23.656-.035 16.487.06 17.282-.026 19.352-2.096 2.526-2.526 1.944-5.707-1.434-7.839l-1.654-1.044-17.689-.043c-10.141-.025-19.151.131-21.114.365m209.831 3.799v1.365l2.176.181c4.531.375 4.84 1.432 4.853 16.555l.009 11.361-1.154 1.82c-1.063 1.675-1.311 1.841-3.128 2.082-1.912.253-1.974.301-1.974 1.532v1.27l1.857-.192c5.682-.587 6.68-4.457 6.178-23.955-.269-10.433-1.277-12.442-6.573-13.104l-2.244-.28v1.365m-263.301 1.142c2.337.799 6.019.779 6.019-.033 0-1.5 6.723-1.578 7.783-.089l.799 1.121-.787.712c-.76.688-.934.688-5.171.006-2.579-.416-5.35-.624-6.73-.507-1.29.11-4.546.409-7.234.664-9.246.879-13.753.244-12.288-1.732 1.153-1.556 13.191-1.653 17.609-.142m41.343-.601c2.215.59 2.749.593 6.516.032 4.484-.667 9.59-.624 16.811.143 6.776.719 14.597.504 24.262-.668 1.629-.198 1.818-.131 2.238.79.493 1.082.281 2.156-.443 2.241-1.482.175-12.342-.164-15.221-.475-2.24-.242-4.292-.234-5.901.023-2.07.331-17.095.518-25.463.317-1.291-.031-3.531.088-4.978.264-3.24.395-6.702-.596-5.674-1.623 1.581-1.582 4.419-1.959 7.853-1.044m-23.79 16.209c-5.366.352-6.314.763-7.468 3.24-3.157 6.782-.545 8.138 15.41 8.003 6.385-.054 15.831-.108 20.993-.118 12.146-.026 13.553-.54 13.644-4.994.112-5.469-1.225-5.935-17.359-6.056-6.989-.052-14.643-.148-17.009-.213-2.365-.065-6.06-.003-8.211.138m82.936-.024c-5.064.867-7.623 5.059-5.342 8.75 1.125 1.819 2.092 2.049 10.88 2.583l7.144.434 2.185-1.101c6.2-3.122 5.294-8.906-1.615-10.318-2.88-.589-10.656-.793-13.252-.348m-118.666.448c-6.656 1.15-6.492 8.954.221 10.512 2.203.511 12.48.443 14.275-.095 4.444-1.332 4.528-8.441.12-10.149-1.348-.523-12.011-.718-14.616-.268m92.168.055c-3.652 1.375-5.234 5.864-2.951 8.374 3.231 3.552 14.482 3.101 15.516-.622.52-1.873.509-4.6-.024-5.595-1.082-2.022-9.194-3.417-12.541-2.157m7.088 4.066c1.478 1.062 1.48 1.068.886 2.313-.987 2.069-4.805 2.209-6.359.233-2.259-2.872 2.161-4.927 5.473-2.546m-88.701.05c.513.398 1.187.805 1.498.905 1.529.492-3.774 2.703-5.517 2.301-.932-.215-2.416-.396-3.296-.401-4.023-.024-3.406-2.956.681-3.239 4.961-.344 5.694-.296 6.634.434m28.944-.092c4.088.789 8.74.85 12.14.158 2.164-.44 3.176-.446 5.865-.032 3.509.541 7.193.409 10.267-.366 1.894-.477 5.3.582 5.3 1.648 0 1.114-3.091 2.22-4.368 1.563-1.062-.547-2.128-.645-5.798-.532-2.473.075-5.288.16-6.256.187-.968.027-2.991-.108-4.496-.301-3.779-.483-7.759-.435-13.402.16-5.749.607-6.868.215-5.625-1.97.779-1.369 1.607-1.436 6.373-.515m86.486.357c.653.168 1.456.097 1.963-.174 1.036-.555 3.774.405 3.774 1.324 0 .762-2.417 1.178-3.882.667-.761-.265-1.629-.278-2.502-.037-1.734.479-7.618.199-8.207-.39-.6-.6.277-1.177 1.884-1.239.645-.024 1.613-.187 2.15-.361 1.046-.338 3.022-.252 4.82.21M63.325 214.261c-7.118 2.087-6.588 10.883.658 10.947 25.928.229 26.401.165 28.154-3.793 1.331-3.003.772-4.77-2.104-6.655-1.112-.728-24.44-1.165-26.708-.499m42.775.011c-5.098.446-7.201 2.321-6.627 5.91.342 2.136 1.842 4.022 3.653 4.591 2.657.836 33.506.433 35.554-.463 3.375-1.478 4.182-6.342 1.475-8.885-1.414-1.329-23.501-2.076-34.055-1.153m47.761.188c-5.024 1.803-4.992 7.802.055 9.993 2.645 1.148 43.874.947 45.888-.224 3.853-2.238 3.62-7.978-.391-9.67-1.672-.706-43.607-.797-45.552-.099m11.152 3.363c3.969 1.105 13.873 1.251 16.108.236 1.725-.782 4.069-.819 6.758-.106 1.242.329 2.285.394 2.86.178 1.937-.728 6.313.128 6.326 1.237.014 1.175-4.119 1.855-6.84 1.126-.215-.057-1.92.035-3.79.205-2.564.233-4.099.159-6.256-.301-3.521-.75-9.669-.571-16.938.494l-5.079.745-1.271-.966c-1.496-1.136-1.522-1.282-.46-2.632 1.046-1.33 4.288-1.411 8.582-.216m-89.549.195c7.783.407 10.427 1.184 7.136 2.098-2.498.694-18.276.536-18.877-.188-1.279-1.541 1.904-2.613 6.658-2.241 1.398.109 3.685.258 5.083.331m35.7.317c3.008 1.053 3.565 1.411 2.195 1.411-.519 0-1.87.352-3.002.782-2.517.957-2.339.959-3.996-.051l-1.361-.829 1.347-1.124c1.621-1.354 1.504-1.349 4.817-.189m22.646.042c.584.43 1.068.886 1.075 1.013.062 1.164-6.865 1.859-11.01 1.105-1.357-.247-3.347-.561-4.422-.697-2.313-.293-1.986-.637.977-1.029 1.183-.156 2.329-.427 2.547-.602 1.258-1.011 9.387-.853 10.833.21m211.802 11.998c.223 1.09.474 1.311 1.798 1.587 3.611.75 4.057 2.154 4.126 13.004.072 11.319-.395 17.023-1.609 19.648l-.949 2.053-2.348.006c-2.635.006-3.796.462-3.058 1.2.349.349 1.083.339 3.096-.041 1.816-.343 4.287-.419 7.921-.245 3.582.172 6.026.1 7.597-.225l2.316-.478 1.107 1.239c1.716 1.921 1.933 3.439 1.935 13.572.003 10.932-1.255 17.338-3.424 17.439-.158.007-1.426 1.067-2.816 2.355s-3.16 2.532-3.933 2.763c-1.49.447-3.64 1.883-2.84 1.898 1.436.026 4.925-1.782 6.805-3.526 7.114-6.603 6.803-5.549 6.778-22.964-.018-12.773-.034-13.025-.858-13.849-.611-.611-.979-.729-1.35-.435-1.048.832-10.354 1.019-11.683.235l-1.192-.704.247-10.557c.46-19.699-.251-23.452-4.629-24.441-1.112-.251-2.308-.534-2.659-.629-.529-.143-.593.043-.378 1.095m-133.437 35.391c-.155.155-38.534.23-85.287.168l-85.005-.114-1.061 2.085c-1.22 2.398-1.654 7.41-1.061 12.251.191 1.563.183 4.583-.02 7.039-.451 5.466.327 7.625 4.52 12.55 4.565 5.361 2.148 5.104 48.799 5.177 20.537.032 39.192.167 41.454.301 2.307.136 6.298.035 9.089-.229 13.058-1.237 13.973-.209 13.973 15.705 0 15.352-.788 16.833-8.602 16.16-11.835-1.019-14.658-.601-18.869 2.791-3.569 2.875-3.823 3.58-3.98 11.083-.07 3.333-.247 6.347-.393 6.697-.186.446.181 1.013 1.224 1.889l1.49 1.253 3.91-.23c10.652-.626 128.178-.309 133.25.36 8.094 1.066 12.766.754 14.561-.976l1.421-1.368-.145-6.843c-.294-13.907-6.243-18.316-21.046-15.599-10.071 1.848-12.054.307-12.134-9.425-.043-5.218-.05-5.256-.588-3.324-.692 2.488-.704 7.63-.024 10.184 1.458 5.476 3.161 5.784 16.279 2.939 6.8-1.474 12.812 1.011 15.44 6.384 1.141 2.331 2.016 12.392 1.303 14.974-.776 2.812-7.854 4.22-12.833 2.554-.753-.252-2.864-.609-4.692-.793-3.895-.392-130.42-.306-131.668.09-2.68.85-5.101-1.018-4.391-3.389.274-.914.603-4.26.732-7.436l.234-5.773 1.173-.963c.645-.529 1.92-1.334 2.833-1.787.913-.454 1.994-1.25 2.402-1.769.794-1.008 2.668-1.263 4.417-.6.54.205 1.802.18 3.129-.061 1.928-.35 2.556-.292 4.72.439 6.354 2.146 10.636-.001 11.609-5.821.757-4.533.007-25.331-.962-26.665-1.29-1.775-1.849-1.802-37.872-1.843-21.293-.025-35.463-.193-37.264-.444-2.013-.28-3.29-.278-4.157.005-2.697.881-22.709.46-25.223-.531-1.224-.482-3.063-1.184-4.088-1.561-1.823-.67-6.171-5.467-7.115-7.849-.569-1.437-.578-19.408-.011-20.781.906-2.19-1.324-2.128 72.314-2.016 37.214.056 69.246.024 71.182-.072 1.935-.095 5.454-.145 7.82-.11 2.365.034 5.797.055 7.625.046 25.558-.128 26.588.049 26.588 4.58 0 1.937.719 1.222.973-.967.658-5.669-2.446-8.317-9.563-8.157-2.48.055-4.873-.032-5.319-.194-.446-.162-.937-.168-1.091-.014" fill="#a1977e"/>
                    <path d="M67.058 53.51c-7.289 2.013-10.511 10.52-5.948 15.703 6.991 7.94 19.492 3.968 18.985-6.033-.408-8.049-5.427-11.772-13.037-9.67" fill="#cb6676"/>
                    <path d="M363.05 268.943c-.43.09-1.129.406-1.553.703-.546.382-2.068.54-5.197.54-8.04 0-9.69 2.7-6.771 11.082.438 1.256.911 3.191 1.052 4.301.141 1.109.761 2.984 1.377 4.167 1.396 2.682 1.481 4.845.241 6.165-1.55 1.651-.836 7.129.929 7.129.734 0 4.903-2.126 5.664-2.888.453-.454 1.315-1.178 1.914-1.608 4.753-3.411 5.015-4.286 5.052-16.814.035-12.363-.166-13.31-2.708-12.777M161.87 309.5c-.471.883-.577 3.001-.563 11.287.021 13.055.294 13.744 4.873 12.316 2.874-.896 71.317-.674 75.717.246 2.538.53 2.909-.474 2.785-7.524l-.107-6.121-1.235-.503c-1.112-.453-1.345-.417-2.336.363-1.122.883-4.795 1.133-10.896.74-1.076-.069-3.803-.003-6.061.147-5.239.347-6.249-.034-8.734-3.302-1.003-1.319-1.823-2.654-1.823-2.967 0-1.033-1.593-3.651-2.664-4.378-1.062-.721-10.822-1.004-26.857-.779-8.925.125-16.433.005-18.971-.303-2.519-.306-2.555-.297-3.128.778m106.41 29.452c-.864.664-.887.778-.339 1.653.329.526.688 2.351.816 4.145.125 1.763.498 3.852.828 4.642.924 2.211.791 4.326-.317 5.052-.916.601-1.819 2.133-1.819 3.088 0 1.469 9.424 2.319 10.774.971.875-.874.132-13.083-.92-15.119-.691-1.337-4.29-3.864-6.698-4.704-1.563-.544-1.21-.586-2.325.272" fill="#484c4c"/>
                </g>
            </svg>